<ttFont>
    <TTGlyph name=".notdef" xMin="-100" yMin="-178" xMax="1509" yMax="1688">
      <contour>
        <pt x="1032" y="1688" on="1"/>
        <pt x="1038" y="1688" on="1"/>
        <pt x="1044" y="1673" on="0"/>
        <pt x="1077" y="1618" on="0"/>
        <pt x="1110" y="1554" on="0"/>
        <pt x="1135" y="1495" on="0"/>
        <pt x="1135" y="1475" on="1"/>
        <pt x="1135" y="1458" on="0"/>
        <pt x="1128" y="1430" on="0"/>
        <pt x="1128" y="1413" on="1"/>
        <pt x="1128" y="1378" on="0"/>
        <pt x="1161" y="1309" on="0"/>
        <pt x="1161" y="1278" on="1"/>
        <pt x="1161" y="1237" on="0"/>
        <pt x="1130" y="1210" on="1"/>
        <pt x="1130" y="1204" on="0"/>
        <pt x="1151" y="1204" on="0"/>
        <pt x="1151" y="1200" on="1"/>
        <pt x="1122" y="1200" on="1"/>
        <pt x="1112" y="1196" on="0"/>
        <pt x="1104" y="1188" on="1"/>
        <pt x="1192" y="1155" on="1"/>
        <pt x="1192" y="1153" on="0"/>
        <pt x="1194" y="1153" on="0"/>
        <pt x="1194" y="1151" on="1"/>
        <pt x="1190" y="1151" on="1"/>
        <pt x="1186" y="1151" on="0"/>
        <pt x="1182" y="1155" on="1"/>
        <pt x="1182" y="1155" on="0"/>
        <pt x="1178" y="1151" on="1"/>
        <pt x="1176" y="1151" on="0"/>
        <pt x="1174" y="1159" on="0"/>
        <pt x="1169" y="1159" on="1"/>
        <pt x="1167" y="1159" on="0"/>
        <pt x="1165" y="1157" on="1"/>
        <pt x="1149" y="1163" on="1"/>
        <pt x="1137" y="1163" on="0"/>
        <pt x="1108" y="1180" on="0"/>
        <pt x="1096" y="1180" on="1"/>
        <pt x="1083" y="1180" on="0"/>
        <pt x="1075" y="1174" on="1"/>
        <pt x="1071" y="1169" on="1"/>
        <pt x="1069" y="1167" on="0"/>
        <pt x="1069" y="1165" on="1"/>
        <pt x="1069" y="1163" on="0"/>
        <pt x="1071" y="1163" on="1"/>
        <pt x="1100" y="1147" on="1"/>
        <pt x="1085" y="1151" on="1"/>
        <pt x="1079" y="1155" on="0"/>
        <pt x="1069" y="1157" on="0"/>
        <pt x="1065" y="1161" on="1"/>
        <pt x="1061" y="1159" on="0"/>
        <pt x="1042" y="1155" on="0"/>
        <pt x="1026" y="1145" on="0"/>
        <pt x="1014" y="1122" on="0"/>
        <pt x="1014" y="1102" on="1"/>
        <pt x="1014" y="1055" on="0"/>
        <pt x="1059" y="954" on="0"/>
        <pt x="1067" y="903" on="1"/>
        <pt x="1081" y="846" on="0"/>
        <pt x="1071" y="733" on="0"/>
        <pt x="1085" y="680" on="1"/>
        <pt x="1087" y="680" on="0"/>
        <pt x="1122" y="739" on="0"/>
        <pt x="1165" y="811" on="0"/>
        <pt x="1204" y="874" on="0"/>
        <pt x="1210" y="881" on="1"/>
        <pt x="1231" y="920" on="0"/>
        <pt x="1278" y="993" on="0"/>
        <pt x="1294" y="1036" on="1"/>
        <pt x="1300" y="1049" on="1"/>
        <pt x="1305" y="1085" on="0"/>
        <pt x="1341" y="1163" on="0"/>
        <pt x="1341" y="1225" on="1"/>
        <pt x="1341" y="1260" on="0"/>
        <pt x="1325" y="1323" on="0"/>
        <pt x="1303" y="1384" on="0"/>
        <pt x="1286" y="1446" on="0"/>
        <pt x="1286" y="1477" on="1"/>
        <pt x="1286" y="1505" on="0"/>
        <pt x="1305" y="1550" on="0"/>
        <pt x="1337" y="1579" on="1"/>
        <pt x="1341" y="1579" on="1"/>
        <pt x="1341" y="1579" on="0"/>
        <pt x="1358" y="1583" on="1"/>
        <pt x="1409" y="1571" on="1"/>
        <pt x="1434" y="1554" on="0"/>
        <pt x="1473" y="1487" on="0"/>
        <pt x="1497" y="1407" on="0"/>
        <pt x="1509" y="1323" on="0"/>
        <pt x="1509" y="1288" on="1"/>
        <pt x="1509" y="1092" on="0"/>
        <pt x="1352" y="866" on="1"/>
        <pt x="1352" y="864" on="0"/>
        <pt x="1346" y="862" on="1"/>
        <pt x="1303" y="795" on="0"/>
        <pt x="1235" y="700" on="0"/>
        <pt x="1188" y="629" on="0"/>
        <pt x="1163" y="569" on="0"/>
        <pt x="1163" y="539" on="1"/>
        <pt x="1165" y="537" on="0"/>
        <pt x="1169" y="537" on="1"/>
        <pt x="1192" y="537" on="0"/>
        <pt x="1266" y="563" on="0"/>
        <pt x="1292" y="563" on="1"/>
        <pt x="1333" y="563" on="0"/>
        <pt x="1356" y="541" on="1"/>
        <pt x="1389" y="500" on="1"/>
        <pt x="1405" y="469" on="0"/>
        <pt x="1432" y="393" on="0"/>
        <pt x="1432" y="356" on="1"/>
        <pt x="1432" y="307" on="0"/>
        <pt x="1354" y="240" on="0"/>
        <pt x="1253" y="197" on="0"/>
        <pt x="1159" y="174" on="0"/>
        <pt x="1145" y="170" on="1"/>
        <pt x="1110" y="168" on="0"/>
        <pt x="1032" y="150" on="0"/>
        <pt x="1010" y="145" on="1"/>
        <pt x="1004" y="133" on="0"/>
        <pt x="1006" y="102" on="0"/>
        <pt x="983" y="98" on="1"/>
        <pt x="973" y="100" on="1"/>
        <pt x="956" y="84" on="0"/>
        <pt x="918" y="84" on="1"/>
        <pt x="907" y="84" on="0"/>
        <pt x="897" y="90" on="0"/>
        <pt x="893" y="90" on="1"/>
        <pt x="891" y="90" on="0"/>
        <pt x="889" y="88" on="0"/>
        <pt x="887" y="88" on="1"/>
        <pt x="856" y="104" on="1"/>
        <pt x="846" y="125" on="1"/>
        <pt x="811" y="125" on="1"/>
        <pt x="797" y="88" on="1"/>
        <pt x="784" y="84" on="0"/>
        <pt x="782" y="84" on="1"/>
        <pt x="778" y="84" on="0"/>
        <pt x="758" y="88" on="1"/>
        <pt x="754" y="74" on="1"/>
        <pt x="750" y="70" on="0"/>
        <pt x="741" y="70" on="0"/>
        <pt x="739" y="68" on="1"/>
        <pt x="735" y="66" on="1"/>
        <pt x="707" y="86" on="1"/>
        <pt x="707" y="86" on="0"/>
        <pt x="705" y="82" on="1"/>
        <pt x="702" y="86" on="1"/>
        <pt x="698" y="84" on="0"/>
        <pt x="694" y="80" on="1"/>
        <pt x="692" y="78" on="0"/>
        <pt x="692" y="74" on="1"/>
        <pt x="688" y="74" on="1"/>
        <pt x="664" y="88" on="0"/>
        <pt x="664" y="129" on="1"/>
        <pt x="651" y="135" on="0"/>
        <pt x="618" y="133" on="0"/>
        <pt x="604" y="137" on="1"/>
        <pt x="559" y="143" on="1"/>
        <pt x="547" y="143" on="0"/>
        <pt x="504" y="150" on="0"/>
        <pt x="465" y="160" on="0"/>
        <pt x="432" y="170" on="0"/>
        <pt x="428" y="174" on="1"/>
        <pt x="336" y="197" on="0"/>
        <pt x="246" y="233" on="0"/>
        <pt x="217" y="233" on="1"/>
        <pt x="170" y="233" on="1"/>
        <pt x="156" y="238" on="1"/>
        <pt x="96" y="227" on="1"/>
        <pt x="123" y="199" on="0"/>
        <pt x="127" y="166" on="1"/>
        <pt x="127" y="154" on="0"/>
        <pt x="119" y="139" on="1"/>
        <pt x="78" y="121" on="1"/>
        <pt x="72" y="111" on="1"/>
        <pt x="53" y="92" on="1"/>
        <pt x="29" y="88" on="1"/>
        <pt x="23" y="94" on="1"/>
        <pt x="-16" y="111" on="1"/>
        <pt x="-23" y="111" on="0"/>
        <pt x="-23" y="98" on="1"/>
        <pt x="-23" y="94" on="1"/>
        <pt x="-23" y="92" on="0"/>
        <pt x="-20" y="92" on="1"/>
        <pt x="27" y="70" on="1"/>
        <pt x="31" y="57" on="0"/>
        <pt x="31" y="57" on="1"/>
        <pt x="31" y="55" on="0"/>
        <pt x="27" y="43" on="1"/>
        <pt x="16" y="33" on="1"/>
        <pt x="18" y="33" on="0"/>
        <pt x="2" y="29" on="1"/>
        <pt x="-8" y="29" on="1"/>
        <pt x="-27" y="37" on="1"/>
        <pt x="-47" y="59" on="1"/>
        <pt x="-59" y="49" on="1"/>
        <pt x="-59" y="39" on="0"/>
        <pt x="-39" y="31" on="0"/>
        <pt x="-14" y="20" on="0"/>
        <pt x="6" y="8" on="0"/>
        <pt x="6" y="-6" on="1"/>
        <pt x="6" y="-8" on="0"/>
        <pt x="2" y="-20" on="1"/>
        <pt x="2" y="-25" on="1"/>
        <pt x="14" y="-33" on="0"/>
        <pt x="43" y="-37" on="0"/>
        <pt x="43" y="-57" on="1"/>
        <pt x="43" y="-80" on="0"/>
        <pt x="23" y="-92" on="0"/>
        <pt x="8" y="-92" on="1"/>
        <pt x="-2" y="-92" on="0"/>
        <pt x="-25" y="-88" on="0"/>
        <pt x="-35" y="-88" on="1"/>
        <pt x="-39" y="-92" on="0"/>
        <pt x="-41" y="-88" on="0"/>
        <pt x="-41" y="-92" on="1"/>
        <pt x="0" y="-170" on="1"/>
        <pt x="-4" y="-178" on="1"/>
        <pt x="-8" y="-178" on="0"/>
        <pt x="-25" y="-156" on="0"/>
        <pt x="-39" y="-127" on="0"/>
        <pt x="-49" y="-100" on="0"/>
        <pt x="-49" y="-96" on="1"/>
        <pt x="-49" y="-86" on="0"/>
        <pt x="-47" y="-84" on="1"/>
        <pt x="-47" y="-82" on="0"/>
        <pt x="-49" y="-80" on="1"/>
        <pt x="-59" y="-80" on="1"/>
        <pt x="-61" y="-82" on="0"/>
        <pt x="-61" y="-92" on="1"/>
        <pt x="-61" y="-96" on="0"/>
        <pt x="-61" y="-111" on="0"/>
        <pt x="-59" y="-121" on="1"/>
        <pt x="-31" y="-166" on="1"/>
        <pt x="-35" y="-174" on="1"/>
        <pt x="-41" y="-174" on="1"/>
        <pt x="-49" y="-154" on="0"/>
        <pt x="-76" y="-115" on="0"/>
        <pt x="-76" y="-88" on="1"/>
        <pt x="-70" y="-82" on="0"/>
        <pt x="-70" y="-76" on="1"/>
        <pt x="-70" y="-74" on="0"/>
        <pt x="-100" y="-37" on="0"/>
        <pt x="-100" y="-18" on="1"/>
        <pt x="-100" y="-4" on="0"/>
        <pt x="-92" y="6" on="1"/>
        <pt x="-84" y="18" on="1"/>
        <pt x="-88" y="35" on="0"/>
        <pt x="-88" y="37" on="1"/>
        <pt x="-88" y="49" on="0"/>
        <pt x="-63" y="96" on="0"/>
        <pt x="-33" y="145" on="0"/>
        <pt x="-2" y="186" on="0"/>
        <pt x="2" y="190" on="1"/>
        <pt x="8" y="207" on="1"/>
        <pt x="23" y="217" on="1"/>
        <pt x="29" y="217" on="1"/>
        <pt x="51" y="250" on="1"/>
        <pt x="96" y="264" on="1"/>
        <pt x="129" y="264" on="1"/>
        <pt x="170" y="281" on="1"/>
        <pt x="254" y="299" on="1"/>
        <pt x="256" y="301" on="0"/>
        <pt x="256" y="303" on="1"/>
        <pt x="233" y="375" on="0"/>
        <pt x="233" y="422" on="1"/>
        <pt x="233" y="469" on="0"/>
        <pt x="264" y="514" on="0"/>
        <pt x="291" y="541" on="1"/>
        <pt x="324" y="563" on="1"/>
        <pt x="326" y="563" on="0"/>
        <pt x="330" y="565" on="0"/>
        <pt x="332" y="565" on="1"/>
        <pt x="348" y="571" on="1"/>
        <pt x="346" y="571" on="1"/>
        <pt x="348" y="571" on="1"/>
        <pt x="352" y="571" on="0"/>
        <pt x="354" y="573" on="1"/>
        <pt x="381" y="569" on="0"/>
        <pt x="453" y="543" on="0"/>
        <pt x="481" y="524" on="1"/>
        <pt x="483" y="524" on="0"/>
        <pt x="496" y="555" on="0"/>
        <pt x="512" y="596" on="0"/>
        <pt x="528" y="635" on="0"/>
        <pt x="532" y="643" on="1"/>
        <pt x="553" y="680" on="0"/>
        <pt x="567" y="760" on="0"/>
        <pt x="575" y="846" on="0"/>
        <pt x="588" y="932" on="0"/>
        <pt x="606" y="973" on="1"/>
        <pt x="610" y="1012" on="0"/>
        <pt x="645" y="1087" on="0"/>
        <pt x="645" y="1124" on="1"/>
        <pt x="645" y="1128" on="0"/>
        <pt x="643" y="1139" on="0"/>
        <pt x="643" y="1143" on="1"/>
        <pt x="612" y="1161" on="1"/>
        <pt x="578" y="1151" on="1"/>
        <pt x="567" y="1153" on="1"/>
        <pt x="545" y="1147" on="0"/>
        <pt x="514" y="1120" on="0"/>
        <pt x="492" y="1120" on="1"/>
        <pt x="487" y="1120" on="0"/>
        <pt x="483" y="1122" on="0"/>
        <pt x="481" y="1122" on="1"/>
        <pt x="588" y="1169" on="1"/>
        <pt x="557" y="1194" on="1"/>
        <pt x="555" y="1194" on="0"/>
        <pt x="520" y="1178" on="0"/>
        <pt x="518" y="1178" on="1"/>
        <pt x="522" y="1182" on="0"/>
        <pt x="539" y="1190" on="0"/>
        <pt x="553" y="1198" on="1"/>
        <pt x="535" y="1217" on="0"/>
        <pt x="504" y="1255" on="0"/>
        <pt x="504" y="1284" on="1"/>
        <pt x="504" y="1313" on="0"/>
        <pt x="528" y="1362" on="0"/>
        <pt x="528" y="1389" on="1"/>
        <pt x="528" y="1411" on="0"/>
        <pt x="520" y="1458" on="0"/>
        <pt x="514" y="1487" on="1"/>
        <pt x="514" y="1507" on="0"/>
        <pt x="539" y="1569" on="0"/>
        <pt x="569" y="1626" on="0"/>
        <pt x="596" y="1667" on="0"/>
        <pt x="598" y="1667" on="1"/>
        <pt x="608" y="1667" on="1"/>
        <pt x="612" y="1667" on="0"/>
        <pt x="629" y="1630" on="0"/>
        <pt x="647" y="1583" on="0"/>
        <pt x="666" y="1540" on="0"/>
        <pt x="676" y="1534" on="1"/>
        <pt x="686" y="1526" on="0"/>
        <pt x="709" y="1522" on="0"/>
        <pt x="719" y="1522" on="1"/>
        <pt x="735" y="1522" on="0"/>
        <pt x="766" y="1526" on="0"/>
        <pt x="782" y="1526" on="1"/>
        <pt x="813" y="1526" on="0"/>
        <pt x="870" y="1505" on="0"/>
        <pt x="897" y="1505" on="1"/>
        <pt x="911" y="1505" on="0"/>
        <pt x="932" y="1509" on="0"/>
        <pt x="950" y="1532" on="0"/>
        <pt x="971" y="1581" on="0"/>
        <pt x="983" y="1624" on="1"/>
        <pt x="997" y="1681" on="0"/>
      </contour>
      <contour>
        <pt x="1055" y="1620" on="1"/>
        <pt x="1055" y="1622" on="0"/>
        <pt x="1051" y="1638" on="0"/>
        <pt x="1044" y="1659" on="0"/>
        <pt x="1038" y="1675" on="0"/>
        <pt x="1036" y="1675" on="1"/>
        <pt x="1028" y="1675" on="0"/>
        <pt x="1016" y="1655" on="0"/>
        <pt x="1006" y="1632" on="0"/>
        <pt x="1002" y="1622" on="1"/>
        <pt x="999" y="1612" on="1"/>
        <pt x="999" y="1614" on="1"/>
        <pt x="1001" y="1604" on="0"/>
        <pt x="1001" y="1579" on="0"/>
        <pt x="1001" y="1569" on="1"/>
        <pt x="1001" y="1534" on="1"/>
        <pt x="1001" y="1495" on="0"/>
        <pt x="1010" y="1470" on="1"/>
        <pt x="1008" y="1468" on="0"/>
        <pt x="1006" y="1464" on="0"/>
        <pt x="1004" y="1462" on="1"/>
        <pt x="985" y="1485" on="0"/>
        <pt x="989" y="1552" on="0"/>
        <pt x="985" y="1581" on="1"/>
        <pt x="975" y="1548" on="0"/>
        <pt x="946" y="1483" on="0"/>
        <pt x="903" y="1483" on="1"/>
        <pt x="879" y="1483" on="0"/>
        <pt x="821" y="1503" on="0"/>
        <pt x="793" y="1503" on="1"/>
        <pt x="776" y="1503" on="0"/>
        <pt x="741" y="1497" on="0"/>
        <pt x="729" y="1497" on="1"/>
        <pt x="666" y="1497" on="0"/>
        <pt x="639" y="1548" on="1"/>
        <pt x="637" y="1548" on="0"/>
        <pt x="637" y="1544" on="1"/>
        <pt x="637" y="1540" on="0"/>
        <pt x="647" y="1503" on="0"/>
        <pt x="647" y="1466" on="1"/>
        <pt x="639" y="1448" on="0"/>
        <pt x="635" y="1446" on="1"/>
        <pt x="633" y="1446" on="0"/>
        <pt x="629" y="1450" on="1"/>
        <pt x="629" y="1489" on="1"/>
        <pt x="629" y="1530" on="0"/>
        <pt x="610" y="1577" on="0"/>
        <pt x="610" y="1610" on="1"/>
        <pt x="614" y="1610" on="0"/>
        <pt x="616" y="1612" on="1"/>
        <pt x="612" y="1647" on="1"/>
        <pt x="612" y="1649" on="0"/>
        <pt x="606" y="1655" on="1"/>
        <pt x="602" y="1653" on="0"/>
        <pt x="602" y="1653" on="1"/>
        <pt x="600" y="1653" on="0"/>
        <pt x="600" y="1651" on="1"/>
        <pt x="602" y="1653" on="1"/>
        <pt x="598" y="1653" on="0"/>
        <pt x="575" y="1599" on="0"/>
        <pt x="563" y="1567" on="1"/>
        <pt x="549" y="1530" on="0"/>
        <pt x="532" y="1479" on="1"/>
        <pt x="532" y="1452" on="0"/>
        <pt x="567" y="1413" on="0"/>
        <pt x="567" y="1391" on="1"/>
        <pt x="567" y="1372" on="0"/>
        <pt x="559" y="1346" on="0"/>
        <pt x="547" y="1325" on="0"/>
        <pt x="539" y="1309" on="0"/>
        <pt x="539" y="1296" on="1"/>
        <pt x="539" y="1284" on="0"/>
        <pt x="551" y="1235" on="0"/>
        <pt x="561" y="1235" on="1"/>
        <pt x="575" y="1237" on="1"/>
        <pt x="575" y="1233" on="1"/>
        <pt x="563" y="1231" on="1"/>
        <pt x="571" y="1210" on="1"/>
        <pt x="582" y="1206" on="1"/>
        <pt x="713" y="1233" on="1"/>
        <pt x="606" y="1231" on="1"/>
        <pt x="606" y="1233" on="0"/>
        <pt x="608" y="1235" on="1"/>
        <pt x="604" y="1239" on="1"/>
        <pt x="639" y="1243" on="1"/>
        <pt x="641" y="1245" on="0"/>
        <pt x="647" y="1245" on="1"/>
        <pt x="707" y="1245" on="1"/>
        <pt x="723" y="1245" on="0"/>
        <pt x="764" y="1241" on="0"/>
        <pt x="764" y="1233" on="1"/>
        <pt x="764" y="1231" on="0"/>
        <pt x="760" y="1231" on="1"/>
        <pt x="766" y="1231" on="1"/>
        <pt x="776" y="1231" on="0"/>
        <pt x="782" y="1229" on="1"/>
        <pt x="782" y="1219" on="0"/>
        <pt x="778" y="1214" on="1"/>
        <pt x="770" y="1214" on="1"/>
        <pt x="764" y="1202" on="0"/>
        <pt x="764" y="1200" on="1"/>
        <pt x="766" y="1200" on="1"/>
        <pt x="754" y="1188" on="0"/>
        <pt x="713" y="1188" on="0"/>
        <pt x="698" y="1182" on="1"/>
        <pt x="698" y="1178" on="0"/>
        <pt x="733" y="1171" on="0"/>
        <pt x="750" y="1171" on="1"/>
        <pt x="778" y="1171" on="0"/>
        <pt x="827" y="1188" on="0"/>
        <pt x="827" y="1204" on="1"/>
        <pt x="827" y="1214" on="0"/>
        <pt x="786" y="1247" on="0"/>
        <pt x="782" y="1260" on="1"/>
        <pt x="782" y="1262" on="0"/>
        <pt x="784" y="1264" on="0"/>
        <pt x="784" y="1266" on="1"/>
        <pt x="784" y="1268" on="0"/>
        <pt x="786" y="1268" on="1"/>
        <pt x="786" y="1272" on="1"/>
        <pt x="807" y="1278" on="0"/>
        <pt x="850" y="1278" on="1"/>
        <pt x="885" y="1268" on="0"/>
        <pt x="887" y="1257" on="1"/>
        <pt x="887" y="1253" on="1"/>
        <pt x="842" y="1208" on="1"/>
        <pt x="842" y="1196" on="1"/>
        <pt x="844" y="1188" on="0"/>
        <pt x="850" y="1188" on="1"/>
        <pt x="872" y="1182" on="1"/>
        <pt x="883" y="1178" on="0"/>
        <pt x="901" y="1171" on="0"/>
        <pt x="918" y="1171" on="1"/>
        <pt x="952" y="1171" on="0"/>
        <pt x="973" y="1186" on="1"/>
        <pt x="874" y="1202" on="1"/>
        <pt x="862" y="1214" on="1"/>
        <pt x="864" y="1227" on="0"/>
        <pt x="872" y="1229" on="1"/>
        <pt x="874" y="1227" on="0"/>
        <pt x="885" y="1227" on="1"/>
        <pt x="889" y="1227" on="0"/>
        <pt x="901" y="1227" on="0"/>
        <pt x="911" y="1229" on="1"/>
        <pt x="958" y="1229" on="0"/>
        <pt x="1051" y="1219" on="0"/>
        <pt x="1098" y="1217" on="1"/>
        <pt x="1108" y="1233" on="0"/>
        <pt x="1135" y="1260" on="0"/>
        <pt x="1135" y="1280" on="1"/>
        <pt x="1135" y="1294" on="0"/>
        <pt x="1118" y="1327" on="0"/>
        <pt x="1096" y="1360" on="0"/>
        <pt x="1079" y="1393" on="0"/>
        <pt x="1079" y="1405" on="1"/>
        <pt x="1079" y="1423" on="0"/>
        <pt x="1104" y="1456" on="0"/>
        <pt x="1104" y="1479" on="1"/>
        <pt x="1104" y="1516" on="0"/>
        <pt x="1065" y="1585" on="0"/>
      </contour>
      <contour>
        <pt x="-55" y="-12" on="1"/>
        <pt x="-59" y="-12" on="1"/>
        <pt x="-57" y="-12" on="0"/>
        <pt x="-57" y="-31" on="1"/>
        <pt x="-49" y="-37" on="1"/>
        <pt x="-41" y="-33" on="0"/>
        <pt x="-35" y="-27" on="1"/>
      </contour>
      <contour>
        <pt x="-76" y="2" on="1"/>
        <pt x="-82" y="2" on="1"/>
        <pt x="-86" y="-2" on="0"/>
        <pt x="-86" y="-16" on="1"/>
        <pt x="-86" y="-45" on="0"/>
        <pt x="-25" y="-80" on="0"/>
        <pt x="10" y="-80" on="1"/>
        <pt x="20" y="-80" on="1"/>
        <pt x="31" y="-70" on="1"/>
        <pt x="31" y="-51" on="0"/>
        <pt x="25" y="-47" on="1"/>
        <pt x="6" y="-41" on="1"/>
        <pt x="-12" y="-41" on="0"/>
        <pt x="-18" y="-39" on="1"/>
        <pt x="-39" y="-45" on="1"/>
        <pt x="-39" y="-47" on="0"/>
        <pt x="-41" y="-47" on="0"/>
        <pt x="-41" y="-49" on="1"/>
        <pt x="-41" y="-51" on="0"/>
        <pt x="-35" y="-51" on="1"/>
        <pt x="-10" y="-47" on="1"/>
        <pt x="6" y="-49" on="1"/>
        <pt x="10" y="-59" on="0"/>
        <pt x="10" y="-59" on="1"/>
        <pt x="10" y="-59" on="0"/>
        <pt x="12" y="-59" on="1"/>
        <pt x="6" y="-66" on="0"/>
        <pt x="-8" y="-70" on="1"/>
        <pt x="-37" y="-66" on="0"/>
        <pt x="-74" y="-41" on="0"/>
        <pt x="-74" y="-18" on="1"/>
        <pt x="-74" y="-8" on="0"/>
        <pt x="-70" y="0" on="1"/>
        <pt x="-72" y="2" on="1"/>
      </contour>
      <contour>
        <pt x="-55" y="76" on="1"/>
        <pt x="-57" y="78" on="1"/>
        <pt x="-59" y="78" on="0"/>
        <pt x="-74" y="57" on="0"/>
        <pt x="-74" y="47" on="1"/>
        <pt x="-74" y="14" on="0"/>
        <pt x="-25" y="-12" on="0"/>
        <pt x="-16" y="-12" on="1"/>
        <pt x="-8" y="-12" on="0"/>
        <pt x="-8" y="-6" on="1"/>
        <pt x="-8" y="-2" on="0"/>
        <pt x="-25" y="23" on="0"/>
        <pt x="-35" y="23" on="1"/>
        <pt x="-39" y="23" on="0"/>
        <pt x="-39" y="18" on="1"/>
        <pt x="-29" y="12" on="1"/>
        <pt x="-23" y="0" on="1"/>
        <pt x="-23" y="-2" on="0"/>
        <pt x="-29" y="-2" on="1"/>
        <pt x="-39" y="2" on="0"/>
        <pt x="-68" y="27" on="0"/>
        <pt x="-68" y="45" on="1"/>
        <pt x="-68" y="55" on="0"/>
        <pt x="-53" y="68" on="0"/>
        <pt x="-53" y="72" on="1"/>
        <pt x="-53" y="74" on="0"/>
        <pt x="-55" y="74" on="0"/>
      </contour>
      <contour>
        <pt x="-27" y="125" on="1"/>
        <pt x="-35" y="121" on="1"/>
        <pt x="-43" y="88" on="1"/>
        <pt x="-39" y="76" on="0"/>
        <pt x="-39" y="78" on="1"/>
        <pt x="-29" y="63" on="1"/>
        <pt x="-25" y="55" on="0"/>
        <pt x="-23" y="49" on="1"/>
        <pt x="-8" y="47" on="1"/>
        <pt x="-4" y="43" on="0"/>
        <pt x="-2" y="43" on="1"/>
        <pt x="2" y="43" on="0"/>
        <pt x="6" y="45" on="0"/>
        <pt x="10" y="45" on="1"/>
        <pt x="10" y="45" on="0"/>
        <pt x="14" y="43" on="1"/>
        <pt x="18" y="55" on="1"/>
        <pt x="4" y="70" on="1"/>
        <pt x="-18" y="76" on="1"/>
        <pt x="6" y="55" on="1"/>
        <pt x="6" y="51" on="1"/>
        <pt x="4" y="51" on="0"/>
        <pt x="4" y="49" on="0"/>
        <pt x="2" y="49" on="1"/>
        <pt x="0" y="49" on="0"/>
        <pt x="0" y="55" on="0"/>
        <pt x="-4" y="55" on="1"/>
        <pt x="-10" y="55" on="1"/>
        <pt x="-23" y="57" on="0"/>
        <pt x="-35" y="98" on="1"/>
      </contour>
      <contour>
        <pt x="-8" y="143" on="1"/>
        <pt x="-10" y="143" on="1"/>
        <pt x="-10" y="141" on="0"/>
        <pt x="-12" y="141" on="0"/>
        <pt x="-12" y="139" on="1"/>
        <pt x="-12" y="129" on="0"/>
        <pt x="25" y="100" on="0"/>
        <pt x="45" y="100" on="1"/>
        <pt x="45" y="98" on="0"/>
        <pt x="43" y="98" on="1"/>
        <pt x="43" y="106" on="1"/>
        <pt x="10" y="123" on="1"/>
      </contour>
      <contour>
        <pt x="2" y="168" on="1"/>
        <pt x="0" y="166" on="0"/>
        <pt x="0" y="162" on="1"/>
        <pt x="8" y="143" on="0"/>
        <pt x="37" y="121" on="0"/>
        <pt x="47" y="121" on="1"/>
        <pt x="53" y="121" on="0"/>
        <pt x="55" y="123" on="1"/>
        <pt x="14" y="147" on="1"/>
      </contour>
      <contour>
        <pt x="76" y="184" on="1"/>
        <pt x="76" y="178" on="1"/>
        <pt x="78" y="180" on="0"/>
        <pt x="80" y="180" on="1"/>
        <pt x="74" y="182" on="0"/>
        <pt x="74" y="184" on="1"/>
      </contour>
      <contour>
        <pt x="29" y="203" on="1"/>
        <pt x="27" y="205" on="1"/>
        <pt x="18" y="201" on="1"/>
        <pt x="16" y="197" on="0"/>
        <pt x="16" y="186" on="1"/>
        <pt x="16" y="170" on="0"/>
        <pt x="31" y="154" on="0"/>
        <pt x="66" y="137" on="1"/>
        <pt x="72" y="139" on="0"/>
        <pt x="80" y="139" on="1"/>
        <pt x="51" y="154" on="1"/>
        <pt x="31" y="174" on="0"/>
        <pt x="31" y="203" on="1"/>
      </contour>
      <contour>
        <pt x="154" y="258" on="1"/>
        <pt x="137" y="250" on="0"/>
        <pt x="98" y="250" on="0"/>
        <pt x="68" y="246" on="0"/>
        <pt x="47" y="225" on="0"/>
        <pt x="47" y="197" on="1"/>
        <pt x="47" y="186" on="0"/>
        <pt x="61" y="160" on="0"/>
        <pt x="72" y="154" on="1"/>
        <pt x="96" y="145" on="1"/>
        <pt x="106" y="147" on="1"/>
        <pt x="113" y="150" on="0"/>
        <pt x="115" y="156" on="1"/>
        <pt x="115" y="184" on="0"/>
        <pt x="90" y="213" on="0"/>
        <pt x="78" y="217" on="1"/>
        <pt x="72" y="217" on="0"/>
        <pt x="72" y="211" on="1"/>
        <pt x="72" y="207" on="0"/>
        <pt x="92" y="193" on="0"/>
        <pt x="102" y="176" on="1"/>
        <pt x="102" y="174" on="0"/>
        <pt x="98" y="162" on="0"/>
        <pt x="90" y="156" on="1"/>
        <pt x="84" y="156" on="0"/>
        <pt x="76" y="164" on="1"/>
        <pt x="66" y="174" on="1"/>
        <pt x="61" y="174" on="1"/>
        <pt x="59" y="174" on="0"/>
        <pt x="59" y="176" on="1"/>
        <pt x="57" y="174" on="1"/>
        <pt x="59" y="174" on="1"/>
        <pt x="53" y="182" on="0"/>
        <pt x="53" y="197" on="1"/>
        <pt x="53" y="217" on="0"/>
        <pt x="74" y="238" on="0"/>
        <pt x="104" y="246" on="0"/>
        <pt x="135" y="248" on="0"/>
        <pt x="147" y="252" on="1"/>
        <pt x="154" y="252" on="1"/>
        <pt x="160" y="252" on="0"/>
        <pt x="160" y="256" on="1"/>
        <pt x="160" y="258" on="1"/>
      </contour>
      <contour>
        <pt x="844" y="260" on="1"/>
        <pt x="799" y="258" on="1"/>
        <pt x="799" y="240" on="0"/>
        <pt x="793" y="207" on="0"/>
        <pt x="793" y="190" on="1"/>
        <pt x="793" y="166" on="0"/>
        <pt x="805" y="154" on="1"/>
        <pt x="838" y="158" on="1"/>
        <pt x="850" y="213" on="0"/>
        <pt x="850" y="250" on="1"/>
        <pt x="850" y="260" on="0"/>
      </contour>
      <contour>
        <pt x="248" y="276" on="1"/>
        <pt x="186" y="270" on="1"/>
        <pt x="176" y="266" on="0"/>
        <pt x="176" y="256" on="1"/>
        <pt x="176" y="254" on="0"/>
        <pt x="178" y="252" on="1"/>
        <pt x="270" y="250" on="1"/>
        <pt x="256" y="276" on="1"/>
      </contour>
      <contour>
        <pt x="629" y="299" on="1"/>
        <pt x="627" y="299" on="1"/>
        <pt x="625" y="297" on="0"/>
        <pt x="625" y="295" on="1"/>
        <pt x="627" y="295" on="0"/>
        <pt x="627" y="293" on="0"/>
        <pt x="629" y="293" on="1"/>
        <pt x="629" y="295" on="1"/>
        <pt x="631" y="297" on="0"/>
        <pt x="631" y="299" on="1"/>
      </contour>
      <contour>
        <pt x="596" y="309" on="1"/>
        <pt x="592" y="311" on="1"/>
        <pt x="588" y="303" on="1"/>
        <pt x="588" y="305" on="1"/>
        <pt x="588" y="301" on="0"/>
        <pt x="596" y="299" on="0"/>
        <pt x="598" y="299" on="1"/>
        <pt x="600" y="299" on="0"/>
        <pt x="602" y="301" on="1"/>
        <pt x="600" y="303" on="0"/>
        <pt x="598" y="307" on="0"/>
      </contour>
      <contour>
        <pt x="1030" y="324" on="1"/>
        <pt x="1016" y="322" on="0"/>
        <pt x="1016" y="311" on="1"/>
        <pt x="1020" y="311" on="1"/>
        <pt x="1026" y="311" on="0"/>
        <pt x="1036" y="322" on="1"/>
        <pt x="1030" y="322" on="0"/>
      </contour>
      <contour>
        <pt x="535" y="467" on="1"/>
        <pt x="528" y="459" on="1"/>
        <pt x="526" y="457" on="0"/>
        <pt x="522" y="457" on="1"/>
        <pt x="514" y="457" on="1"/>
        <pt x="510" y="457" on="0"/>
        <pt x="510" y="455" on="1"/>
        <pt x="561" y="440" on="1"/>
      </contour>
      <contour>
        <pt x="1382" y="469" on="1"/>
        <pt x="1380" y="440" on="1"/>
        <pt x="1343" y="428" on="0"/>
        <pt x="1272" y="410" on="0"/>
        <pt x="1210" y="395" on="0"/>
        <pt x="1169" y="387" on="0"/>
        <pt x="1165" y="385" on="1"/>
        <pt x="1153" y="383" on="0"/>
        <pt x="1135" y="381" on="0"/>
        <pt x="1124" y="381" on="1"/>
        <pt x="1106" y="381" on="0"/>
        <pt x="1102" y="383" on="1"/>
        <pt x="1100" y="381" on="0"/>
        <pt x="1100" y="379" on="1"/>
        <pt x="1128" y="319" on="1"/>
        <pt x="1124" y="315" on="0"/>
        <pt x="1122" y="315" on="1"/>
        <pt x="1120" y="315" on="0"/>
        <pt x="1116" y="319" on="1"/>
        <pt x="1110" y="330" on="1"/>
        <pt x="1108" y="332" on="0"/>
        <pt x="1106" y="332" on="1"/>
        <pt x="1085" y="317" on="0"/>
        <pt x="1026" y="289" on="0"/>
        <pt x="1004" y="287" on="1"/>
        <pt x="991" y="262" on="0"/>
        <pt x="989" y="209" on="0"/>
        <pt x="987" y="184" on="1"/>
        <pt x="991" y="172" on="0"/>
        <pt x="1001" y="170" on="1"/>
        <pt x="1120" y="193" on="0"/>
        <pt x="1247" y="225" on="0"/>
        <pt x="1315" y="260" on="0"/>
        <pt x="1352" y="309" on="0"/>
        <pt x="1380" y="348" on="1"/>
        <pt x="1393" y="381" on="0"/>
        <pt x="1393" y="414" on="1"/>
        <pt x="1393" y="438" on="0"/>
      </contour>
      <contour>
        <pt x="516" y="481" on="1"/>
        <pt x="514" y="483" on="1"/>
        <pt x="508" y="471" on="0"/>
        <pt x="508" y="469" on="1"/>
        <pt x="512" y="469" on="1"/>
        <pt x="520" y="471" on="0"/>
        <pt x="522" y="477" on="1"/>
        <pt x="520" y="477" on="0"/>
      </contour>
      <contour>
        <pt x="279" y="485" on="1"/>
        <pt x="276" y="485" on="1"/>
        <pt x="264" y="444" on="0"/>
        <pt x="264" y="412" on="1"/>
        <pt x="264" y="399" on="0"/>
        <pt x="270" y="342" on="0"/>
        <pt x="281" y="283" on="0"/>
        <pt x="293" y="240" on="0"/>
        <pt x="299" y="240" on="1"/>
        <pt x="403" y="205" on="0"/>
        <pt x="588" y="160" on="0"/>
        <pt x="649" y="160" on="1"/>
        <pt x="672" y="160" on="0"/>
        <pt x="678" y="162" on="1"/>
        <pt x="678" y="170" on="0"/>
        <pt x="676" y="203" on="0"/>
        <pt x="672" y="236" on="0"/>
        <pt x="662" y="266" on="0"/>
        <pt x="655" y="272" on="1"/>
        <pt x="643" y="268" on="0"/>
        <pt x="635" y="268" on="1"/>
        <pt x="608" y="268" on="1"/>
        <pt x="594" y="268" on="1"/>
        <pt x="559" y="268" on="0"/>
        <pt x="543" y="244" on="0"/>
        <pt x="532" y="233" on="1"/>
        <pt x="526" y="236" on="0"/>
        <pt x="520" y="236" on="1"/>
        <pt x="518" y="236" on="1"/>
        <pt x="518" y="240" on="1"/>
        <pt x="575" y="358" on="1"/>
        <pt x="535" y="373" on="0"/>
        <pt x="467" y="389" on="0"/>
        <pt x="399" y="414" on="0"/>
        <pt x="326" y="451" on="0"/>
        <pt x="281" y="485" on="1"/>
      </contour>
      <contour>
        <pt x="494" y="500" on="1"/>
        <pt x="483" y="485" on="1"/>
        <pt x="483" y="481" on="0"/>
        <pt x="485" y="477" on="0"/>
        <pt x="485" y="475" on="1"/>
        <pt x="485" y="471" on="1"/>
        <pt x="481" y="461" on="0"/>
        <pt x="479" y="461" on="1"/>
        <pt x="479" y="467" on="1"/>
        <pt x="489" y="459" on="0"/>
        <pt x="496" y="459" on="1"/>
        <pt x="500" y="459" on="0"/>
        <pt x="500" y="471" on="1"/>
        <pt x="492" y="483" on="1"/>
        <pt x="500" y="496" on="1"/>
        <pt x="498" y="498" on="0"/>
        <pt x="496" y="498" on="0"/>
      </contour>
      <contour>
        <pt x="1221" y="510" on="1"/>
        <pt x="1217" y="510" on="0"/>
        <pt x="1214" y="504" on="0"/>
        <pt x="1210" y="504" on="1"/>
        <pt x="1206" y="504" on="0"/>
        <pt x="1206" y="510" on="0"/>
        <pt x="1204" y="510" on="1"/>
        <pt x="1198" y="504" on="0"/>
        <pt x="1198" y="500" on="1"/>
        <pt x="1198" y="496" on="0"/>
        <pt x="1202" y="496" on="1"/>
        <pt x="1227" y="506" on="1"/>
        <pt x="1223" y="510" on="0"/>
        <pt x="1221" y="506" on="0"/>
      </contour>
      <contour>
        <pt x="1171" y="522" on="1"/>
        <pt x="1151" y="512" on="1"/>
        <pt x="1100" y="475" on="1"/>
        <pt x="1104" y="471" on="0"/>
        <pt x="1108" y="471" on="1"/>
        <pt x="1122" y="471" on="0"/>
        <pt x="1176" y="485" on="0"/>
        <pt x="1190" y="496" on="1"/>
        <pt x="1184" y="502" on="1"/>
        <pt x="1176" y="498" on="1"/>
        <pt x="1167" y="508" on="1"/>
        <pt x="1176" y="522" on="1"/>
      </contour>
      <contour>
        <pt x="444" y="528" on="1"/>
        <pt x="442" y="522" on="1"/>
        <pt x="436" y="516" on="0"/>
        <pt x="430" y="514" on="1"/>
        <pt x="430" y="512" on="0"/>
        <pt x="432" y="506" on="0"/>
        <pt x="432" y="504" on="1"/>
        <pt x="422" y="494" on="1"/>
        <pt x="471" y="469" on="1"/>
        <pt x="467" y="477" on="1"/>
        <pt x="467" y="487" on="0"/>
        <pt x="471" y="485" on="0"/>
        <pt x="475" y="489" on="1"/>
        <pt x="475" y="512" on="1"/>
        <pt x="469" y="512" on="1"/>
        <pt x="469" y="502" on="0"/>
        <pt x="459" y="502" on="1"/>
        <pt x="459" y="487" on="1"/>
        <pt x="451" y="483" on="1"/>
        <pt x="440" y="487" on="0"/>
        <pt x="440" y="492" on="1"/>
        <pt x="442" y="492" on="0"/>
        <pt x="442" y="494" on="1"/>
        <pt x="442" y="496" on="0"/>
        <pt x="444" y="500" on="1"/>
        <pt x="449" y="504" on="1"/>
        <pt x="449" y="512" on="1"/>
        <pt x="449" y="526" on="0"/>
        <pt x="451" y="526" on="1"/>
        <pt x="453" y="526" on="0"/>
        <pt x="453" y="524" on="1"/>
      </contour>
      <contour>
        <pt x="1329" y="532" on="1"/>
        <pt x="1313" y="522" on="1"/>
        <pt x="1303" y="520" on="0"/>
        <pt x="1280" y="506" on="0"/>
        <pt x="1237" y="487" on="0"/>
        <pt x="1165" y="467" on="0"/>
        <pt x="1108" y="455" on="1"/>
        <pt x="1106" y="457" on="0"/>
        <pt x="1100" y="457" on="1"/>
        <pt x="1094" y="453" on="0"/>
        <pt x="1094" y="451" on="1"/>
        <pt x="1094" y="422" on="1"/>
        <pt x="1094" y="403" on="0"/>
        <pt x="1110" y="397" on="0"/>
        <pt x="1122" y="397" on="1"/>
        <pt x="1147" y="397" on="0"/>
        <pt x="1214" y="410" on="0"/>
        <pt x="1284" y="432" on="0"/>
        <pt x="1346" y="465" on="0"/>
        <pt x="1366" y="485" on="1"/>
        <pt x="1366" y="492" on="1"/>
        <pt x="1350" y="518" on="0"/>
      </contour>
      <contour>
        <pt x="420" y="541" on="1"/>
        <pt x="416" y="543" on="1"/>
        <pt x="414" y="532" on="1"/>
        <pt x="403" y="526" on="1"/>
        <pt x="399" y="512" on="0"/>
        <pt x="397" y="510" on="1"/>
        <pt x="406" y="502" on="1"/>
        <pt x="406" y="496" on="0"/>
        <pt x="408" y="496" on="1"/>
        <pt x="408" y="498" on="0"/>
        <pt x="410" y="500" on="1"/>
        <pt x="424" y="539" on="1"/>
        <pt x="424" y="541" on="0"/>
      </contour>
      <contour>
        <pt x="328" y="543" on="1"/>
        <pt x="297" y="520" on="1"/>
        <pt x="291" y="510" on="1"/>
        <pt x="287" y="506" on="0"/>
        <pt x="287" y="504" on="1"/>
        <pt x="328" y="469" on="1"/>
        <pt x="344" y="465" on="0"/>
        <pt x="391" y="438" on="0"/>
        <pt x="453" y="410" on="0"/>
        <pt x="530" y="383" on="0"/>
        <pt x="578" y="379" on="1"/>
        <pt x="582" y="397" on="1"/>
        <pt x="582" y="399" on="0"/>
        <pt x="584" y="401" on="1"/>
        <pt x="584" y="412" on="0"/>
        <pt x="575" y="420" on="1"/>
        <pt x="535" y="426" on="1"/>
        <pt x="522" y="434" on="1"/>
        <pt x="481" y="440" on="0"/>
        <pt x="430" y="475" on="0"/>
        <pt x="410" y="479" on="1"/>
        <pt x="389" y="492" on="0"/>
        <pt x="348" y="512" on="0"/>
        <pt x="334" y="530" on="1"/>
        <pt x="332" y="541" on="1"/>
        <pt x="330" y="543" on="0"/>
      </contour>
      <contour>
        <pt x="377" y="545" on="1"/>
        <pt x="383" y="545" on="1"/>
        <pt x="385" y="545" on="0"/>
        <pt x="385" y="537" on="1"/>
        <pt x="385" y="532" on="0"/>
        <pt x="377" y="532" on="1"/>
        <pt x="371" y="532" on="0"/>
        <pt x="371" y="539" on="1"/>
        <pt x="375" y="545" on="1"/>
      </contour>
      <contour>
        <pt x="1270" y="547" on="1"/>
        <pt x="1235" y="545" on="1"/>
        <pt x="1231" y="532" on="0"/>
        <pt x="1227" y="532" on="1"/>
        <pt x="1227" y="537" on="1"/>
        <pt x="1227" y="532" on="0"/>
        <pt x="1229" y="528" on="0"/>
        <pt x="1229" y="526" on="1"/>
        <pt x="1229" y="524" on="0"/>
        <pt x="1227" y="524" on="1"/>
        <pt x="1235" y="535" on="1"/>
        <pt x="1235" y="537" on="0"/>
        <pt x="1237" y="537" on="1"/>
        <pt x="1243" y="537" on="1"/>
        <pt x="1245" y="535" on="0"/>
        <pt x="1245" y="528" on="1"/>
        <pt x="1245" y="522" on="0"/>
        <pt x="1235" y="514" on="0"/>
        <pt x="1235" y="510" on="1"/>
        <pt x="1235" y="512" on="1"/>
        <pt x="1237" y="512" on="0"/>
        <pt x="1241" y="510" on="0"/>
        <pt x="1245" y="510" on="1"/>
        <pt x="1262" y="518" on="0"/>
        <pt x="1303" y="535" on="0"/>
        <pt x="1315" y="547" on="1"/>
      </contour>
      <contour>
        <pt x="358" y="555" on="1"/>
        <pt x="348" y="551" on="0"/>
        <pt x="346" y="549" on="0"/>
        <pt x="346" y="545" on="1"/>
        <pt x="346" y="541" on="0"/>
        <pt x="350" y="537" on="1"/>
        <pt x="373" y="520" on="1"/>
        <pt x="377" y="520" on="0"/>
        <pt x="379" y="514" on="0"/>
        <pt x="383" y="514" on="1"/>
        <pt x="385" y="514" on="1"/>
        <pt x="385" y="516" on="0"/>
        <pt x="383" y="516" on="0"/>
        <pt x="383" y="518" on="1"/>
        <pt x="383" y="526" on="0"/>
        <pt x="389" y="537" on="1"/>
        <pt x="395" y="549" on="1"/>
        <pt x="397" y="549" on="0"/>
        <pt x="399" y="547" on="1"/>
      </contour>
      <contour>
        <pt x="1071" y="643" on="1"/>
        <pt x="1014" y="338" on="1"/>
        <pt x="1047" y="338" on="1"/>
        <pt x="1057" y="344" on="1"/>
        <pt x="1085" y="348" on="1"/>
        <pt x="1085" y="360" on="0"/>
        <pt x="1067" y="379" on="0"/>
        <pt x="1067" y="406" on="1"/>
        <pt x="1067" y="438" on="0"/>
        <pt x="1077" y="475" on="0"/>
        <pt x="1092" y="496" on="0"/>
        <pt x="1114" y="510" on="0"/>
        <pt x="1126" y="520" on="1"/>
        <pt x="1114" y="553" on="1"/>
      </contour>
      <contour>
        <pt x="575" y="670" on="1"/>
        <pt x="571" y="670" on="1"/>
        <pt x="559" y="657" on="0"/>
        <pt x="537" y="616" on="0"/>
        <pt x="518" y="573" on="0"/>
        <pt x="508" y="532" on="0"/>
        <pt x="508" y="522" on="1"/>
        <pt x="508" y="510" on="0"/>
        <pt x="539" y="483" on="0"/>
        <pt x="575" y="449" on="0"/>
        <pt x="606" y="403" on="0"/>
        <pt x="606" y="375" on="1"/>
        <pt x="606" y="346" on="0"/>
        <pt x="598" y="328" on="1"/>
        <pt x="600" y="319" on="0"/>
        <pt x="608" y="319" on="1"/>
        <pt x="653" y="317" on="1"/>
        <pt x="637" y="365" on="0"/>
        <pt x="625" y="467" on="0"/>
        <pt x="614" y="492" on="1"/>
        <pt x="598" y="524" on="0"/>
        <pt x="582" y="612" on="0"/>
      </contour>
      <contour>
        <pt x="999" y="1133" on="1"/>
        <pt x="987" y="1120" on="0"/>
        <pt x="891" y="1092" on="0"/>
        <pt x="844" y="1081" on="1"/>
        <pt x="827" y="1085" on="0"/>
        <pt x="799" y="1085" on="0"/>
        <pt x="782" y="1092" on="1"/>
        <pt x="752" y="1094" on="0"/>
        <pt x="694" y="1118" on="0"/>
        <pt x="672" y="1126" on="1"/>
        <pt x="672" y="1112" on="1"/>
        <pt x="672" y="1090" on="0"/>
        <pt x="653" y="1042" on="0"/>
        <pt x="647" y="1022" on="1"/>
        <pt x="625" y="963" on="0"/>
        <pt x="610" y="850" on="0"/>
        <pt x="610" y="791" on="1"/>
        <pt x="610" y="713" on="0"/>
        <pt x="631" y="559" on="0"/>
        <pt x="645" y="481" on="1"/>
        <pt x="670" y="395" on="0"/>
        <pt x="684" y="236" on="0"/>
        <pt x="696" y="154" on="1"/>
        <pt x="694" y="147" on="0"/>
        <pt x="682" y="139" on="0"/>
        <pt x="680" y="135" on="1"/>
        <pt x="678" y="119" on="1"/>
        <pt x="678" y="117" on="0"/>
        <pt x="682" y="117" on="1"/>
        <pt x="684" y="119" on="1"/>
        <pt x="686" y="121" on="0"/>
        <pt x="688" y="121" on="1"/>
        <pt x="690" y="119" on="0"/>
        <pt x="692" y="115" on="0"/>
        <pt x="694" y="113" on="1"/>
        <pt x="690" y="98" on="1"/>
        <pt x="696" y="98" on="1"/>
        <pt x="711" y="152" on="1"/>
        <pt x="719" y="156" on="1"/>
        <pt x="723" y="152" on="0"/>
        <pt x="727" y="154" on="0"/>
        <pt x="727" y="147" on="1"/>
        <pt x="727" y="137" on="0"/>
        <pt x="719" y="115" on="0"/>
        <pt x="719" y="106" on="1"/>
        <pt x="719" y="92" on="0"/>
        <pt x="723" y="88" on="1"/>
        <pt x="723" y="100" on="0"/>
        <pt x="727" y="100" on="1"/>
        <pt x="735" y="96" on="0"/>
        <pt x="737" y="84" on="0"/>
        <pt x="739" y="84" on="1"/>
        <pt x="745" y="84" on="0"/>
        <pt x="750" y="88" on="1"/>
        <pt x="748" y="98" on="0"/>
        <pt x="735" y="119" on="0"/>
        <pt x="735" y="129" on="1"/>
        <pt x="735" y="131" on="0"/>
        <pt x="737" y="141" on="0"/>
        <pt x="741" y="141" on="1"/>
        <pt x="745" y="141" on="0"/>
        <pt x="762" y="98" on="0"/>
        <pt x="772" y="94" on="1"/>
        <pt x="774" y="94" on="0"/>
        <pt x="776" y="96" on="0"/>
        <pt x="778" y="96" on="1"/>
        <pt x="778" y="94" on="1"/>
        <pt x="772" y="121" on="1"/>
        <pt x="774" y="123" on="0"/>
        <pt x="778" y="123" on="1"/>
        <pt x="778" y="121" on="0"/>
        <pt x="788" y="111" on="1"/>
        <pt x="791" y="111" on="0"/>
        <pt x="791" y="106" on="0"/>
        <pt x="793" y="106" on="1"/>
        <pt x="791" y="111" on="1"/>
        <pt x="791" y="113" on="0"/>
        <pt x="797" y="125" on="0"/>
        <pt x="797" y="135" on="1"/>
        <pt x="797" y="143" on="0"/>
        <pt x="786" y="154" on="1"/>
        <pt x="784" y="154" on="1"/>
        <pt x="782" y="154" on="0"/>
        <pt x="780" y="156" on="1"/>
        <pt x="768" y="166" on="1"/>
        <pt x="764" y="174" on="0"/>
        <pt x="764" y="190" on="1"/>
        <pt x="764" y="248" on="0"/>
        <pt x="791" y="379" on="0"/>
        <pt x="791" y="451" on="1"/>
        <pt x="791" y="510" on="0"/>
        <pt x="780" y="625" on="0"/>
        <pt x="776" y="678" on="1"/>
        <pt x="776" y="680" on="0"/>
        <pt x="780" y="688" on="0"/>
        <pt x="784" y="688" on="1"/>
        <pt x="793" y="688" on="0"/>
        <pt x="809" y="633" on="0"/>
        <pt x="819" y="559" on="0"/>
        <pt x="825" y="485" on="0"/>
        <pt x="825" y="469" on="1"/>
        <pt x="825" y="422" on="0"/>
        <pt x="811" y="328" on="0"/>
        <pt x="801" y="281" on="1"/>
        <pt x="817" y="276" on="0"/>
        <pt x="821" y="276" on="1"/>
        <pt x="838" y="276" on="0"/>
        <pt x="854" y="287" on="1"/>
        <pt x="856" y="317" on="1"/>
        <pt x="858" y="338" on="0"/>
        <pt x="860" y="375" on="0"/>
        <pt x="860" y="393" on="1"/>
        <pt x="860" y="422" on="0"/>
        <pt x="858" y="481" on="0"/>
        <pt x="858" y="510" on="1"/>
        <pt x="858" y="528" on="0"/>
        <pt x="866" y="588" on="0"/>
        <pt x="879" y="647" on="0"/>
        <pt x="891" y="690" on="0"/>
        <pt x="897" y="690" on="1"/>
        <pt x="901" y="686" on="0"/>
        <pt x="901" y="678" on="1"/>
        <pt x="901" y="666" on="0"/>
        <pt x="895" y="647" on="1"/>
        <pt x="889" y="602" on="0"/>
        <pt x="885" y="514" on="0"/>
        <pt x="885" y="467" on="1"/>
        <pt x="885" y="426" on="0"/>
        <pt x="887" y="340" on="0"/>
        <pt x="887" y="299" on="1"/>
        <pt x="887" y="250" on="0"/>
        <pt x="872" y="201" on="0"/>
        <pt x="868" y="170" on="1"/>
        <pt x="877" y="150" on="0"/>
        <pt x="870" y="119" on="0"/>
        <pt x="887" y="102" on="1"/>
        <pt x="891" y="102" on="1"/>
        <pt x="893" y="127" on="1"/>
        <pt x="901" y="131" on="1"/>
        <pt x="909" y="117" on="1"/>
        <pt x="913" y="117" on="1"/>
        <pt x="918" y="121" on="0"/>
        <pt x="918" y="129" on="1"/>
        <pt x="918" y="137" on="0"/>
        <pt x="907" y="164" on="1"/>
        <pt x="907" y="166" on="0"/>
        <pt x="911" y="170" on="1"/>
        <pt x="922" y="170" on="0"/>
        <pt x="934" y="137" on="0"/>
        <pt x="934" y="129" on="1"/>
        <pt x="934" y="119" on="0"/>
        <pt x="922" y="102" on="0"/>
        <pt x="922" y="96" on="1"/>
        <pt x="938" y="98" on="1"/>
        <pt x="942" y="102" on="0"/>
        <pt x="942" y="106" on="1"/>
        <pt x="942" y="111" on="1"/>
        <pt x="940" y="109" on="1"/>
        <pt x="948" y="113" on="1"/>
        <pt x="950" y="111" on="0"/>
        <pt x="956" y="111" on="1"/>
        <pt x="967" y="121" on="0"/>
        <pt x="967" y="133" on="1"/>
        <pt x="967" y="154" on="0"/>
        <pt x="946" y="158" on="0"/>
        <pt x="946" y="168" on="1"/>
        <pt x="946" y="174" on="0"/>
        <pt x="950" y="174" on="1"/>
        <pt x="958" y="170" on="0"/>
        <pt x="967" y="166" on="0"/>
        <pt x="969" y="164" on="1"/>
        <pt x="983" y="127" on="1"/>
        <pt x="991" y="125" on="1"/>
        <pt x="995" y="137" on="0"/>
        <pt x="995" y="137" on="1"/>
        <pt x="995" y="147" on="0"/>
        <pt x="985" y="164" on="1"/>
        <pt x="958" y="174" on="1"/>
        <pt x="952" y="193" on="0"/>
        <pt x="952" y="211" on="1"/>
        <pt x="952" y="240" on="0"/>
        <pt x="969" y="297" on="0"/>
        <pt x="979" y="326" on="1"/>
        <pt x="1040" y="543" on="0"/>
        <pt x="1040" y="752" on="1"/>
        <pt x="1040" y="829" on="0"/>
        <pt x="1024" y="983" on="0"/>
        <pt x="1008" y="1055" on="1"/>
        <pt x="999" y="1071" on="0"/>
      </contour>
      <contour>
        <pt x="831" y="1174" on="1"/>
        <pt x="815" y="1167" on="0"/>
        <pt x="811" y="1163" on="1"/>
        <pt x="842" y="1167" on="1"/>
        <pt x="834" y="1174" on="1"/>
      </contour>
      <contour>
        <pt x="666" y="1176" on="1"/>
        <pt x="637" y="1174" on="1"/>
        <pt x="635" y="1169" on="0"/>
        <pt x="635" y="1165" on="1"/>
        <pt x="635" y="1161" on="0"/>
        <pt x="688" y="1141" on="0"/>
        <pt x="758" y="1122" on="0"/>
        <pt x="827" y="1108" on="0"/>
        <pt x="844" y="1108" on="1"/>
        <pt x="856" y="1108" on="1"/>
        <pt x="897" y="1108" on="0"/>
        <pt x="975" y="1143" on="0"/>
        <pt x="993" y="1155" on="1"/>
        <pt x="1020" y="1171" on="1"/>
        <pt x="1016" y="1174" on="0"/>
        <pt x="1010" y="1171" on="0"/>
        <pt x="1006" y="1176" on="1"/>
        <pt x="979" y="1171" on="0"/>
        <pt x="932" y="1149" on="0"/>
        <pt x="907" y="1149" on="1"/>
        <pt x="895" y="1149" on="0"/>
        <pt x="877" y="1157" on="0"/>
        <pt x="872" y="1157" on="1"/>
        <pt x="862" y="1157" on="0"/>
        <pt x="836" y="1141" on="0"/>
        <pt x="819" y="1141" on="1"/>
        <pt x="799" y="1141" on="0"/>
        <pt x="784" y="1153" on="1"/>
        <pt x="772" y="1149" on="0"/>
        <pt x="756" y="1149" on="1"/>
        <pt x="731" y="1149" on="0"/>
        <pt x="686" y="1165" on="0"/>
      </contour>
      <contour>
        <pt x="1178" y="1198" on="1"/>
        <pt x="1243" y="1188" on="1"/>
        <pt x="1174" y="1194" on="1"/>
        <pt x="1171" y="1196" on="0"/>
        <pt x="1171" y="1200" on="1"/>
        <pt x="1171" y="1202" on="0"/>
        <pt x="1169" y="1202" on="1"/>
        <pt x="1169" y="1200" on="0"/>
        <pt x="1171" y="1200" on="1"/>
        <pt x="1174" y="1200" on="0"/>
        <pt x="1174" y="1198" on="0"/>
      </contour>
      <contour>
        <pt x="719" y="1214" on="1"/>
        <pt x="705" y="1210" on="0"/>
        <pt x="662" y="1206" on="0"/>
        <pt x="621" y="1202" on="0"/>
        <pt x="592" y="1198" on="0"/>
        <pt x="590" y="1192" on="1"/>
        <pt x="604" y="1180" on="1"/>
        <pt x="612" y="1178" on="1"/>
        <pt x="737" y="1212" on="1"/>
      </contour>
      <contour>
        <pt x="586" y="1239" on="1"/>
        <pt x="598" y="1237" on="1"/>
        <pt x="598" y="1233" on="1"/>
        <pt x="582" y="1237" on="1"/>
      </contour>
      <contour>
        <pt x="829" y="1264" on="1"/>
        <pt x="799" y="1257" on="1"/>
        <pt x="799" y="1255" on="0"/>
        <pt x="801" y="1255" on="1"/>
        <pt x="827" y="1247" on="1"/>
        <pt x="829" y="1247" on="0"/>
        <pt x="829" y="1249" on="0"/>
        <pt x="831" y="1249" on="1"/>
        <pt x="834" y="1249" on="0"/>
        <pt x="834" y="1247" on="0"/>
        <pt x="836" y="1247" on="1"/>
        <pt x="844" y="1229" on="1"/>
        <pt x="848" y="1245" on="0"/>
        <pt x="854" y="1251" on="0"/>
        <pt x="862" y="1251" on="1"/>
        <pt x="866" y="1251" on="1"/>
        <pt x="866" y="1253" on="0"/>
        <pt x="868" y="1253" on="0"/>
        <pt x="868" y="1255" on="1"/>
        <pt x="868" y="1257" on="1"/>
      </contour>
      <contour>
        <pt x="700" y="1354" on="1"/>
        <pt x="727" y="1356" on="0"/>
        <pt x="788" y="1317" on="0"/>
        <pt x="788" y="1286" on="1"/>
        <pt x="788" y="1272" on="0"/>
        <pt x="782" y="1272" on="1"/>
        <pt x="778" y="1272" on="0"/>
        <pt x="774" y="1282" on="0"/>
        <pt x="768" y="1282" on="1"/>
        <pt x="758" y="1278" on="0"/>
        <pt x="745" y="1272" on="0"/>
        <pt x="735" y="1272" on="1"/>
        <pt x="702" y="1272" on="0"/>
        <pt x="676" y="1298" on="1"/>
        <pt x="655" y="1333" on="1"/>
        <pt x="639" y="1339" on="1"/>
        <pt x="637" y="1339" on="0"/>
        <pt x="637" y="1343" on="1"/>
        <pt x="637" y="1346" on="1"/>
        <pt x="637" y="1348" on="0"/>
        <pt x="639" y="1350" on="1"/>
      </contour>
      <contour>
        <pt x="768" y="1470" on="1"/>
        <pt x="741" y="1380" on="1"/>
        <pt x="729" y="1380" on="1"/>
        <pt x="727" y="1380" on="0"/>
        <pt x="727" y="1382" on="1"/>
        <pt x="715" y="1382" on="1"/>
        <pt x="713" y="1382" on="0"/>
        <pt x="711" y="1384" on="1"/>
        <pt x="698" y="1464" on="1"/>
        <pt x="702" y="1458" on="0"/>
        <pt x="711" y="1438" on="0"/>
        <pt x="717" y="1415" on="0"/>
        <pt x="723" y="1399" on="0"/>
        <pt x="723" y="1399" on="1"/>
        <pt x="725" y="1399" on="0"/>
        <pt x="727" y="1438" on="0"/>
        <pt x="731" y="1450" on="1"/>
        <pt x="737" y="1407" on="1"/>
        <pt x="766" y="1470" on="1"/>
      </contour>
      <contour>
        <pt x="1018" y="1366" on="1"/>
        <pt x="1026" y="1364" on="1"/>
        <pt x="1026" y="1356" on="1"/>
        <pt x="1026" y="1352" on="0"/>
        <pt x="1018" y="1350" on="1"/>
        <pt x="983" y="1276" on="0"/>
        <pt x="944" y="1276" on="1"/>
        <pt x="934" y="1276" on="0"/>
        <pt x="915" y="1282" on="0"/>
        <pt x="905" y="1284" on="1"/>
        <pt x="901" y="1284" on="0"/>
        <pt x="901" y="1270" on="0"/>
        <pt x="897" y="1270" on="1"/>
        <pt x="885" y="1270" on="0"/>
        <pt x="885" y="1286" on="1"/>
        <pt x="885" y="1309" on="0"/>
        <pt x="930" y="1352" on="0"/>
        <pt x="963" y="1362" on="1"/>
        <pt x="969" y="1362" on="0"/>
        <pt x="983" y="1360" on="0"/>
        <pt x="989" y="1360" on="1"/>
        <pt x="1001" y="1360" on="0"/>
      </contour>
      <contour>
        <pt x="989" y="1436" on="1"/>
        <pt x="975" y="1393" on="1"/>
        <pt x="971" y="1389" on="0"/>
        <pt x="967" y="1393" on="0"/>
        <pt x="967" y="1389" on="1"/>
        <pt x="987" y="1436" on="1"/>
      </contour>
      <contour>
        <pt x="952" y="1444" on="1"/>
        <pt x="952" y="1393" on="1"/>
        <pt x="948" y="1389" on="0"/>
        <pt x="942" y="1393" on="0"/>
        <pt x="942" y="1389" on="1"/>
        <pt x="942" y="1386" on="1"/>
        <pt x="942" y="1386" on="0"/>
        <pt x="946" y="1389" on="1"/>
        <pt x="946" y="1386" on="1"/>
        <pt x="946" y="1386" on="0"/>
        <pt x="942" y="1395" on="1"/>
        <pt x="950" y="1444" on="1"/>
      </contour>
      <contour>
        <pt x="924" y="1448" on="1"/>
        <pt x="936" y="1386" on="1"/>
        <pt x="936" y="1382" on="0"/>
        <pt x="930" y="1382" on="1"/>
        <pt x="922" y="1399" on="0"/>
        <pt x="922" y="1432" on="0"/>
        <pt x="922" y="1448" on="1"/>
      </contour>
      <contour>
        <pt x="682" y="1333" on="1"/>
        <pt x="680" y="1331" on="1"/>
        <pt x="680" y="1319" on="0"/>
        <pt x="698" y="1300" on="1"/>
        <pt x="719" y="1292" on="1"/>
        <pt x="719" y="1296" on="0"/>
        <pt x="717" y="1300" on="0"/>
        <pt x="717" y="1305" on="1"/>
        <pt x="717" y="1321" on="0"/>
        <pt x="725" y="1329" on="1"/>
      </contour>
      <contour>
        <pt x="1366" y="1571" on="1"/>
        <pt x="1337" y="1561" on="0"/>
        <pt x="1317" y="1530" on="0"/>
        <pt x="1317" y="1505" on="1"/>
        <pt x="1317" y="1491" on="0"/>
        <pt x="1323" y="1473" on="1"/>
        <pt x="1376" y="1370" on="0"/>
        <pt x="1376" y="1262" on="1"/>
        <pt x="1376" y="1194" on="0"/>
        <pt x="1335" y="1063" on="0"/>
        <pt x="1272" y="942" on="0"/>
        <pt x="1196" y="831" on="0"/>
        <pt x="1163" y="786" on="1"/>
        <pt x="1147" y="754" on="0"/>
        <pt x="1106" y="694" on="0"/>
        <pt x="1098" y="653" on="1"/>
        <pt x="1100" y="647" on="0"/>
        <pt x="1112" y="612" on="0"/>
        <pt x="1128" y="575" on="0"/>
        <pt x="1143" y="547" on="0"/>
        <pt x="1147" y="547" on="1"/>
        <pt x="1149" y="549" on="1"/>
        <pt x="1155" y="592" on="0"/>
        <pt x="1196" y="657" on="0"/>
        <pt x="1212" y="696" on="1"/>
        <pt x="1237" y="739" on="0"/>
        <pt x="1294" y="840" on="0"/>
        <pt x="1331" y="895" on="1"/>
        <pt x="1389" y="981" on="0"/>
        <pt x="1470" y="1180" on="0"/>
        <pt x="1470" y="1315" on="1"/>
        <pt x="1470" y="1341" on="0"/>
        <pt x="1464" y="1405" on="0"/>
        <pt x="1452" y="1468" on="0"/>
        <pt x="1430" y="1526" on="0"/>
        <pt x="1411" y="1546" on="1"/>
        <pt x="1403" y="1554" on="1"/>
        <pt x="1401" y="1556" on="0"/>
        <pt x="1401" y="1559" on="1"/>
        <pt x="1401" y="1556" on="0"/>
        <pt x="1403" y="1554" on="1"/>
        <pt x="1386" y="1571" on="0"/>
        <pt x="1370" y="1571" on="1"/>
      </contour>
      <contour>
        <pt x="739" y="1325" on="1"/>
        <pt x="737" y="1325" on="1"/>
        <pt x="739" y="1323" on="0"/>
        <pt x="739" y="1315" on="1"/>
        <pt x="739" y="1307" on="0"/>
        <pt x="731" y="1292" on="0"/>
        <pt x="731" y="1286" on="1"/>
        <pt x="735" y="1286" on="0"/>
        <pt x="737" y="1284" on="0"/>
        <pt x="741" y="1284" on="1"/>
        <pt x="752" y="1284" on="0"/>
        <pt x="766" y="1292" on="1"/>
        <pt x="764" y="1296" on="0"/>
        <pt x="750" y="1311" on="0"/>
      </contour>
      <contour>
        <pt x="938" y="1331" on="1"/>
        <pt x="922" y="1323" on="0"/>
        <pt x="913" y="1298" on="0"/>
        <pt x="913" y="1296" on="1"/>
        <pt x="932" y="1288" on="1"/>
        <pt x="936" y="1288" on="0"/>
        <pt x="938" y="1290" on="0"/>
        <pt x="940" y="1290" on="1"/>
        <pt x="944" y="1290" on="1"/>
        <pt x="936" y="1305" on="0"/>
        <pt x="936" y="1319" on="1"/>
        <pt x="936" y="1329" on="0"/>
      </contour>
      <contour>
        <pt x="967" y="1346" on="1"/>
        <pt x="963" y="1341" on="0"/>
        <pt x="954" y="1341" on="0"/>
        <pt x="952" y="1339" on="1"/>
        <pt x="948" y="1337" on="1"/>
        <pt x="948" y="1333" on="0"/>
        <pt x="954" y="1331" on="1"/>
        <pt x="958" y="1292" on="1"/>
        <pt x="977" y="1305" on="0"/>
        <pt x="993" y="1335" on="0"/>
        <pt x="995" y="1346" on="1"/>
      </contour>
      <contour>
        <pt x="991" y="1196" on="1"/>
        <pt x="1036" y="1180" on="1"/>
        <pt x="1049" y="1182" on="0"/>
        <pt x="1049" y="1188" on="1"/>
      </contour>
      <contour>
        <pt x="1030" y="1208" on="1"/>
        <pt x="1069" y="1196" on="1"/>
        <pt x="1071" y="1198" on="1"/>
        <pt x="1073" y="1198" on="0"/>
        <pt x="1073" y="1200" on="0"/>
        <pt x="1075" y="1200" on="1"/>
        <pt x="1075" y="1204" on="0"/>
        <pt x="1073" y="1206" on="1"/>
      </contour>
    </TTGlyph>
    <TTGlyph name="A" xMin="46" yMin="-25" xMax="1616" yMax="1459">
      <contour>
        <pt x="1101" y="1201" on="1"/>
        <pt x="1078" y="1201" on="0"/>
        <pt x="1078" y="1223" on="1"/>
        <pt x="1078" y="1236" on="0"/>
        <pt x="1093" y="1244" on="1"/>
        <pt x="1511" y="1445" on="1"/>
        <pt x="1537" y="1455" on="0"/>
        <pt x="1552" y="1419" on="0"/>
        <pt x="1530" y="1404" on="1"/>
        <pt x="1461" y="1350" on="0"/>
        <pt x="1421" y="1166" on="0"/>
        <pt x="1421" y="1041" on="1"/>
        <pt x="1421" y="349" on="1"/>
        <pt x="1421" y="138" on="0"/>
        <pt x="1580" y="214" on="1"/>
        <pt x="1607" y="229" on="0"/>
        <pt x="1625" y="192" on="0"/>
        <pt x="1608" y="179" on="1"/>
        <pt x="1399" y="-11" on="1"/>
        <pt x="1379" y="-25" on="0"/>
        <pt x="1353" y="-18" on="1"/>
        <pt x="1203" y="25" on="0"/>
        <pt x="1177" y="205" on="1"/>
        <pt x="1175" y="214" on="0"/>
        <pt x="1166" y="218" on="1"/>
        <pt x="1157" y="221" on="0"/>
        <pt x="1150" y="214" on="1"/>
        <pt x="1126" y="190" on="0"/>
        <pt x="1073" y="130" on="0"/>
        <pt x="862" y="-44" on="0"/>
        <pt x="693" y="-5" on="0"/>
        <pt x="642" y="37" on="1"/>
        <pt x="562" y="102" on="0"/>
        <pt x="428" y="226" on="0"/>
        <pt x="329" y="201" on="1"/>
        <pt x="319" y="198" on="0"/>
        <pt x="275" y="182" on="0"/>
        <pt x="257" y="220" on="0"/>
        <pt x="296" y="243" on="1"/>
        <pt x="374" y="295" on="0"/>
        <pt x="524" y="408" on="0"/>
        <pt x="589" y="477" on="1"/>
        <pt x="677" y="570" on="0"/>
        <pt x="782" y="826" on="0"/>
        <pt x="756" y="975" on="1"/>
        <pt x="731" y="1118" on="0"/>
        <pt x="497" y="1324" on="0"/>
        <pt x="335" y="1300" on="1"/>
        <pt x="230" y="1284" on="0"/>
        <pt x="132" y="1143" on="0"/>
        <pt x="125" y="1079" on="1"/>
        <pt x="114" y="989" on="0"/>
        <pt x="218" y="888" on="0"/>
        <pt x="287" y="878" on="1"/>
        <pt x="448" y="849" on="0"/>
        <pt x="558" y="632" on="0"/>
        <pt x="422" y="510" on="1"/>
        <pt x="404" y="495" on="0"/>
        <pt x="376" y="516" on="0"/>
        <pt x="387" y="536" on="1"/>
        <pt x="430" y="625" on="0"/>
        <pt x="321" y="656" on="1"/>
        <pt x="204" y="689" on="0"/>
        <pt x="46" y="851" on="0"/>
        <pt x="46" y="989" on="1"/>
        <pt x="46" y="1181" on="0"/>
        <pt x="348" y="1458" on="0"/>
        <pt x="542" y="1459" on="1"/>
        <pt x="768" y="1459" on="0"/>
        <pt x="1005" y="1189" on="0"/>
        <pt x="1007" y="1018" on="1"/>
        <pt x="1009" y="819" on="0"/>
        <pt x="734" y="517" on="0"/>
        <pt x="605" y="415" on="1"/>
        <pt x="597" y="410" on="0"/>
        <pt x="599" y="400" on="1"/>
        <pt x="600" y="391" on="0"/>
        <pt x="609" y="388" on="1"/>
        <pt x="678" y="359" on="0"/>
        <pt x="788" y="278" on="0"/>
        <pt x="826" y="239" on="1"/>
        <pt x="888" y="174" on="0"/>
        <pt x="999" y="155" on="0"/>
        <pt x="1086" y="218" on="1"/>
        <pt x="1108" y="234" on="0"/>
        <pt x="1146" y="275" on="0"/>
        <pt x="1165" y="299" on="1"/>
        <pt x="1169" y="304" on="0"/>
        <pt x="1169" y="310" on="1"/>
        <pt x="1165" y="502" on="0"/>
        <pt x="1167" y="889" on="0"/>
        <pt x="1167" y="1083" on="1"/>
        <pt x="1167" y="1121" on="0"/>
        <pt x="1149" y="1201" on="0"/>
      </contour>
    </TTGlyph>
    <TTGlyph name="AE" xMin="46" yMin="-25" xMax="2090" yMax="1466">
      <contour>
        <pt x="1101" y="1094" on="1"/>
        <pt x="1078" y="1094" on="0"/>
        <pt x="1078" y="1116" on="1"/>
        <pt x="1078" y="1129" on="0"/>
        <pt x="1093" y="1137" on="1"/>
        <pt x="1566" y="1387" on="0"/>
        <pt x="1639" y="1463" on="1"/>
        <pt x="1672" y="1488" on="0"/>
        <pt x="1757" y="1443" on="0"/>
        <pt x="1793" y="1425" on="1"/>
        <pt x="1826" y="1406" on="0"/>
        <pt x="1926" y="1354" on="0"/>
        <pt x="1976" y="1377" on="1"/>
        <pt x="1999" y="1392" on="0"/>
        <pt x="2023" y="1367" on="0"/>
        <pt x="2008" y="1350" on="1"/>
        <pt x="1957" y="1300" on="0"/>
        <pt x="1869" y="1221" on="0"/>
        <pt x="1827" y="1183" on="1"/>
        <pt x="1817" y="1175" on="0"/>
        <pt x="1790" y="1176" on="0"/>
        <pt x="1768" y="1188" on="1"/>
        <pt x="1595" y="1272" on="0"/>
        <pt x="1529" y="1272" on="1"/>
        <pt x="1514" y="1271" on="0"/>
        <pt x="1456" y="1219" on="0"/>
        <pt x="1441" y="1151" on="1"/>
        <pt x="1421" y="1059" on="0"/>
        <pt x="1421" y="934" on="1"/>
        <pt x="1421" y="837" on="1"/>
        <pt x="1474" y="892" on="0"/>
        <pt x="1499" y="921" on="1"/>
        <pt x="1555" y="987" on="0"/>
        <pt x="1661" y="973" on="0"/>
        <pt x="1713" y="934" on="1"/>
        <pt x="1803" y="863" on="0"/>
        <pt x="1852" y="894" on="1"/>
        <pt x="1878" y="911" on="0"/>
        <pt x="1909" y="882" on="0"/>
        <pt x="1891" y="855" on="1"/>
        <pt x="1866" y="821" on="0"/>
        <pt x="1815" y="753" on="0"/>
        <pt x="1781" y="724" on="1"/>
        <pt x="1711" y="663" on="0"/>
        <pt x="1628" y="735" on="1"/>
        <pt x="1507" y="852" on="0"/>
        <pt x="1471" y="816" on="1"/>
        <pt x="1441" y="790" on="0"/>
        <pt x="1421" y="772" on="1"/>
        <pt x="1421" y="392" on="1"/>
        <pt x="1549" y="345" on="0"/>
        <pt x="1720" y="154" on="0"/>
        <pt x="1981" y="158" on="0"/>
        <pt x="2050" y="259" on="1"/>
        <pt x="2066" y="282" on="0"/>
        <pt x="2105" y="261" on="0"/>
        <pt x="2090" y="237" on="1"/>
        <pt x="2041" y="167" on="0"/>
        <pt x="1902" y="27" on="0"/>
        <pt x="1717" y="-39" on="0"/>
        <pt x="1526" y="-3" on="0"/>
        <pt x="1394" y="111" on="1"/>
        <pt x="1338" y="168" on="0"/>
        <pt x="1264" y="194" on="1"/>
        <pt x="1199" y="217" on="0"/>
        <pt x="1115" y="178" on="0"/>
        <pt x="1099" y="160" on="1"/>
        <pt x="1073" y="130" on="0"/>
        <pt x="862" y="-44" on="0"/>
        <pt x="693" y="-5" on="0"/>
        <pt x="642" y="37" on="1"/>
        <pt x="562" y="102" on="0"/>
        <pt x="428" y="226" on="0"/>
        <pt x="329" y="201" on="1"/>
        <pt x="319" y="198" on="0"/>
        <pt x="275" y="182" on="0"/>
        <pt x="257" y="220" on="0"/>
        <pt x="296" y="243" on="1"/>
        <pt x="374" y="295" on="0"/>
        <pt x="524" y="408" on="0"/>
        <pt x="589" y="477" on="1"/>
        <pt x="677" y="570" on="0"/>
        <pt x="782" y="826" on="0"/>
        <pt x="756" y="975" on="1"/>
        <pt x="731" y="1118" on="0"/>
        <pt x="497" y="1324" on="0"/>
        <pt x="335" y="1300" on="1"/>
        <pt x="230" y="1284" on="0"/>
        <pt x="132" y="1143" on="0"/>
        <pt x="125" y="1079" on="1"/>
        <pt x="114" y="989" on="0"/>
        <pt x="218" y="888" on="0"/>
        <pt x="287" y="878" on="1"/>
        <pt x="448" y="849" on="0"/>
        <pt x="558" y="632" on="0"/>
        <pt x="422" y="510" on="1"/>
        <pt x="404" y="495" on="0"/>
        <pt x="376" y="516" on="0"/>
        <pt x="387" y="536" on="1"/>
        <pt x="430" y="625" on="0"/>
        <pt x="321" y="656" on="1"/>
        <pt x="204" y="689" on="0"/>
        <pt x="46" y="851" on="0"/>
        <pt x="46" y="989" on="1"/>
        <pt x="46" y="1181" on="0"/>
        <pt x="348" y="1458" on="0"/>
        <pt x="542" y="1459" on="1"/>
        <pt x="768" y="1459" on="0"/>
        <pt x="1005" y="1189" on="0"/>
        <pt x="1007" y="1018" on="1"/>
        <pt x="1009" y="819" on="0"/>
        <pt x="734" y="517" on="0"/>
        <pt x="605" y="415" on="1"/>
        <pt x="597" y="410" on="0"/>
        <pt x="599" y="400" on="1"/>
        <pt x="600" y="391" on="0"/>
        <pt x="609" y="388" on="1"/>
        <pt x="678" y="359" on="0"/>
        <pt x="788" y="278" on="0"/>
        <pt x="826" y="239" on="1"/>
        <pt x="888" y="174" on="0"/>
        <pt x="999" y="155" on="0"/>
        <pt x="1086" y="218" on="1"/>
        <pt x="1108" y="234" on="0"/>
        <pt x="1146" y="275" on="0"/>
        <pt x="1165" y="299" on="1"/>
        <pt x="1169" y="304" on="0"/>
        <pt x="1169" y="310" on="1"/>
        <pt x="1165" y="502" on="0"/>
        <pt x="1167" y="889" on="0"/>
        <pt x="1167" y="976" on="1"/>
        <pt x="1167" y="1014" on="0"/>
        <pt x="1149" y="1094" on="0"/>
      </contour>
    </TTGlyph>
    <TTGlyph name="Aacute" xMin="46" yMin="-25" xMax="1616" yMax="1794">
      <component glyphName="A" x="0" y="0" flags="0x1204"/>
      <component glyphName="acute" x="610" y="361" flags="0x1004"/>
    </TTGlyph>
    <TTGlyph name="Acircumflex" xMin="46" yMin="-25" xMax="1616" yMax="1802">
      <component glyphName="A" x="0" y="0" flags="0x1204"/>
      <component glyphName="circumflex" x="663" y="356" flags="0x1004"/>
    </TTGlyph>
    <TTGlyph name="Adieresis" xMin="46" yMin="-7" xMax="1616" yMax="1815">
      <contour>
        <pt x="853" y="1815" on="1"/>
        <pt x="964" y="1815" on="0"/>
        <pt x="954" y="1708" on="1"/>
        <pt x="948" y="1654" on="0"/>
        <pt x="825" y="1545" on="0"/>
        <pt x="789" y="1546" on="1"/>
        <pt x="753" y="1546" on="0"/>
        <pt x="715" y="1660" on="0"/>
        <pt x="719" y="1708" on="1"/>
        <pt x="722" y="1754" on="0"/>
        <pt x="805" y="1815" on="0"/>
      </contour>
      <contour>
        <pt x="1283" y="1815" on="1"/>
        <pt x="1394" y="1815" on="0"/>
        <pt x="1384" y="1708" on="1"/>
        <pt x="1378" y="1654" on="0"/>
        <pt x="1255" y="1545" on="0"/>
        <pt x="1219" y="1546" on="1"/>
        <pt x="1183" y="1546" on="0"/>
        <pt x="1145" y="1660" on="0"/>
        <pt x="1149" y="1708" on="1"/>
        <pt x="1152" y="1754" on="0"/>
        <pt x="1235" y="1815" on="0"/>
      </contour>
      <contour>
        <pt x="1101" y="1219" on="1"/>
        <pt x="1078" y="1219" on="0"/>
        <pt x="1078" y="1241" on="1"/>
        <pt x="1078" y="1254" on="0"/>
        <pt x="1093" y="1262" on="1"/>
        <pt x="1511" y="1463" on="1"/>
        <pt x="1537" y="1473" on="0"/>
        <pt x="1552" y="1437" on="0"/>
        <pt x="1530" y="1422" on="1"/>
        <pt x="1461" y="1368" on="0"/>
        <pt x="1421" y="1184" on="0"/>
        <pt x="1421" y="1059" on="1"/>
        <pt x="1421" y="367" on="1"/>
        <pt x="1421" y="156" on="0"/>
        <pt x="1580" y="232" on="1"/>
        <pt x="1607" y="247" on="0"/>
        <pt x="1625" y="210" on="0"/>
        <pt x="1608" y="197" on="1"/>
        <pt x="1399" y="7" on="1"/>
        <pt x="1379" y="-7" on="0"/>
        <pt x="1353" y="0" on="1"/>
        <pt x="1203" y="43" on="0"/>
        <pt x="1177" y="223" on="1"/>
        <pt x="1175" y="232" on="0"/>
        <pt x="1166" y="236" on="1"/>
        <pt x="1157" y="239" on="0"/>
        <pt x="1150" y="232" on="1"/>
        <pt x="1126" y="208" on="0"/>
        <pt x="1073" y="148" on="0"/>
        <pt x="862" y="-26" on="0"/>
        <pt x="693" y="13" on="0"/>
        <pt x="642" y="55" on="1"/>
        <pt x="562" y="120" on="0"/>
        <pt x="428" y="244" on="0"/>
        <pt x="329" y="219" on="1"/>
        <pt x="319" y="216" on="0"/>
        <pt x="275" y="200" on="0"/>
        <pt x="257" y="238" on="0"/>
        <pt x="296" y="261" on="1"/>
        <pt x="374" y="313" on="0"/>
        <pt x="524" y="426" on="0"/>
        <pt x="589" y="495" on="1"/>
        <pt x="677" y="588" on="0"/>
        <pt x="782" y="844" on="0"/>
        <pt x="756" y="993" on="1"/>
        <pt x="731" y="1136" on="0"/>
        <pt x="497" y="1342" on="0"/>
        <pt x="335" y="1318" on="1"/>
        <pt x="230" y="1302" on="0"/>
        <pt x="132" y="1161" on="0"/>
        <pt x="125" y="1097" on="1"/>
        <pt x="114" y="1007" on="0"/>
        <pt x="218" y="906" on="0"/>
        <pt x="287" y="896" on="1"/>
        <pt x="448" y="867" on="0"/>
        <pt x="558" y="650" on="0"/>
        <pt x="422" y="528" on="1"/>
        <pt x="404" y="513" on="0"/>
        <pt x="376" y="534" on="0"/>
        <pt x="387" y="554" on="1"/>
        <pt x="430" y="643" on="0"/>
        <pt x="321" y="674" on="1"/>
        <pt x="204" y="707" on="0"/>
        <pt x="46" y="869" on="0"/>
        <pt x="46" y="1007" on="1"/>
        <pt x="46" y="1199" on="0"/>
        <pt x="348" y="1476" on="0"/>
        <pt x="542" y="1477" on="1"/>
        <pt x="768" y="1477" on="0"/>
        <pt x="1005" y="1207" on="0"/>
        <pt x="1007" y="1036" on="1"/>
        <pt x="1009" y="837" on="0"/>
        <pt x="734" y="535" on="0"/>
        <pt x="605" y="433" on="1"/>
        <pt x="597" y="428" on="0"/>
        <pt x="599" y="418" on="1"/>
        <pt x="600" y="409" on="0"/>
        <pt x="609" y="406" on="1"/>
        <pt x="678" y="377" on="0"/>
        <pt x="788" y="296" on="0"/>
        <pt x="826" y="257" on="1"/>
        <pt x="888" y="192" on="0"/>
        <pt x="999" y="173" on="0"/>
        <pt x="1086" y="236" on="1"/>
        <pt x="1108" y="252" on="0"/>
        <pt x="1146" y="293" on="0"/>
        <pt x="1165" y="317" on="1"/>
        <pt x="1169" y="322" on="0"/>
        <pt x="1169" y="328" on="1"/>
        <pt x="1165" y="520" on="0"/>
        <pt x="1167" y="907" on="0"/>
        <pt x="1167" y="1101" on="1"/>
        <pt x="1167" y="1139" on="0"/>
        <pt x="1149" y="1219" on="0"/>
      </contour>
    </TTGlyph>
    <TTGlyph name="Agrave" xMin="46" yMin="-25" xMax="1616" yMax="1798">
      <component glyphName="A" x="0" y="0" flags="0x1204"/>
      <component glyphName="grave" x="444" y="364" flags="0x1004"/>
    </TTGlyph>
    <TTGlyph name="Aring" xMin="46" yMin="-25" xMax="1616" yMax="1804">
      <contour>
        <pt x="1052" y="1804" on="1"/>
        <pt x="1150" y="1804" on="0"/>
        <pt x="1289" y="1672" on="0"/>
        <pt x="1289" y="1579" on="1"/>
        <pt x="1289" y="1485" on="0"/>
        <pt x="1150" y="1353" on="0"/>
        <pt x="1052" y="1353" on="1"/>
        <pt x="954" y="1353" on="0"/>
        <pt x="816" y="1485" on="0"/>
        <pt x="816" y="1579" on="1"/>
        <pt x="816" y="1672" on="0"/>
        <pt x="954" y="1804" on="0"/>
      </contour>
      <contour>
        <pt x="1052" y="1737" on="1"/>
        <pt x="1000" y="1737" on="0"/>
        <pt x="980" y="1642" on="0"/>
        <pt x="980" y="1576" on="1"/>
        <pt x="980" y="1509" on="0"/>
        <pt x="1000" y="1415" on="0"/>
        <pt x="1052" y="1415" on="1"/>
        <pt x="1104" y="1415" on="0"/>
        <pt x="1125" y="1509" on="0"/>
        <pt x="1125" y="1576" on="1"/>
        <pt x="1125" y="1642" on="0"/>
        <pt x="1104" y="1737" on="0"/>
      </contour>
      <contour>
        <pt x="1101" y="1201" on="1"/>
        <pt x="1078" y="1201" on="0"/>
        <pt x="1078" y="1223" on="1"/>
        <pt x="1078" y="1236" on="0"/>
        <pt x="1093" y="1244" on="1"/>
        <pt x="1511" y="1445" on="1"/>
        <pt x="1537" y="1455" on="0"/>
        <pt x="1552" y="1419" on="0"/>
        <pt x="1530" y="1404" on="1"/>
        <pt x="1461" y="1350" on="0"/>
        <pt x="1421" y="1166" on="0"/>
        <pt x="1421" y="1041" on="1"/>
        <pt x="1421" y="349" on="1"/>
        <pt x="1421" y="138" on="0"/>
        <pt x="1580" y="214" on="1"/>
        <pt x="1607" y="229" on="0"/>
        <pt x="1625" y="192" on="0"/>
        <pt x="1608" y="179" on="1"/>
        <pt x="1399" y="-11" on="1"/>
        <pt x="1379" y="-25" on="0"/>
        <pt x="1353" y="-18" on="1"/>
        <pt x="1203" y="25" on="0"/>
        <pt x="1177" y="205" on="1"/>
        <pt x="1175" y="214" on="0"/>
        <pt x="1166" y="218" on="1"/>
        <pt x="1157" y="221" on="0"/>
        <pt x="1150" y="214" on="1"/>
        <pt x="1126" y="190" on="0"/>
        <pt x="1073" y="130" on="0"/>
        <pt x="862" y="-44" on="0"/>
        <pt x="693" y="-5" on="0"/>
        <pt x="642" y="37" on="1"/>
        <pt x="562" y="102" on="0"/>
        <pt x="428" y="226" on="0"/>
        <pt x="329" y="201" on="1"/>
        <pt x="319" y="198" on="0"/>
        <pt x="275" y="182" on="0"/>
        <pt x="257" y="220" on="0"/>
        <pt x="296" y="243" on="1"/>
        <pt x="374" y="295" on="0"/>
        <pt x="524" y="408" on="0"/>
        <pt x="589" y="477" on="1"/>
        <pt x="677" y="570" on="0"/>
        <pt x="782" y="826" on="0"/>
        <pt x="756" y="975" on="1"/>
        <pt x="731" y="1118" on="0"/>
        <pt x="497" y="1324" on="0"/>
        <pt x="335" y="1300" on="1"/>
        <pt x="230" y="1284" on="0"/>
        <pt x="132" y="1143" on="0"/>
        <pt x="125" y="1079" on="1"/>
        <pt x="114" y="989" on="0"/>
        <pt x="218" y="888" on="0"/>
        <pt x="287" y="878" on="1"/>
        <pt x="448" y="849" on="0"/>
        <pt x="558" y="632" on="0"/>
        <pt x="422" y="510" on="1"/>
        <pt x="404" y="495" on="0"/>
        <pt x="376" y="516" on="0"/>
        <pt x="387" y="536" on="1"/>
        <pt x="430" y="625" on="0"/>
        <pt x="321" y="656" on="1"/>
        <pt x="204" y="689" on="0"/>
        <pt x="46" y="851" on="0"/>
        <pt x="46" y="989" on="1"/>
        <pt x="46" y="1181" on="0"/>
        <pt x="348" y="1458" on="0"/>
        <pt x="542" y="1459" on="1"/>
        <pt x="768" y="1459" on="0"/>
        <pt x="1005" y="1189" on="0"/>
        <pt x="1007" y="1018" on="1"/>
        <pt x="1009" y="819" on="0"/>
        <pt x="734" y="517" on="0"/>
        <pt x="605" y="415" on="1"/>
        <pt x="597" y="410" on="0"/>
        <pt x="599" y="400" on="1"/>
        <pt x="600" y="391" on="0"/>
        <pt x="609" y="388" on="1"/>
        <pt x="678" y="359" on="0"/>
        <pt x="788" y="278" on="0"/>
        <pt x="826" y="239" on="1"/>
        <pt x="888" y="174" on="0"/>
        <pt x="999" y="155" on="0"/>
        <pt x="1086" y="218" on="1"/>
        <pt x="1108" y="234" on="0"/>
        <pt x="1146" y="275" on="0"/>
        <pt x="1165" y="299" on="1"/>
        <pt x="1169" y="304" on="0"/>
        <pt x="1169" y="310" on="1"/>
        <pt x="1165" y="502" on="0"/>
        <pt x="1167" y="889" on="0"/>
        <pt x="1167" y="1083" on="1"/>
        <pt x="1167" y="1121" on="0"/>
        <pt x="1149" y="1201" on="0"/>
      </contour>
    </TTGlyph>
    <TTGlyph name="Atilde" xMin="46" yMin="-25" xMax="1616" yMax="1644">
      <component glyphName="A" x="0" y="0" flags="0x1204"/>
      <component glyphName="tilde" x="634" y="262" flags="0x1004"/>
    </TTGlyph>
    <TTGlyph name="B" xMin="31" yMin="-20" xMax="1777" yMax="1482">
      <contour>
        <pt x="387" y="286" on="1"/>
        <pt x="378" y="281" on="0"/>
        <pt x="359" y="272" on="0"/>
        <pt x="352" y="269" on="1"/>
        <pt x="346" y="266" on="0"/>
        <pt x="342" y="266" on="1"/>
        <pt x="320" y="266" on="0"/>
        <pt x="320" y="289" on="1"/>
        <pt x="320" y="301" on="0"/>
        <pt x="331" y="308" on="1"/>
        <pt x="489" y="395" on="0"/>
        <pt x="814" y="643" on="0"/>
        <pt x="813" y="857" on="1"/>
        <pt x="812" y="991" on="0"/>
        <pt x="634" y="1275" on="0"/>
        <pt x="453" y="1275" on="1"/>
        <pt x="330" y="1275" on="0"/>
        <pt x="120" y="1102" on="0"/>
        <pt x="120" y="995" on="1"/>
        <pt x="120" y="884" on="0"/>
        <pt x="248" y="718" on="0"/>
        <pt x="389" y="697" on="1"/>
        <pt x="502" y="694" on="0"/>
        <pt x="571" y="744" on="1"/>
        <pt x="580" y="751" on="0"/>
        <pt x="605" y="780" on="0"/>
        <pt x="617" y="780" on="1"/>
        <pt x="632" y="780" on="0"/>
        <pt x="640" y="754" on="0"/>
        <pt x="631" y="745" on="1"/>
        <pt x="608" y="720" on="0"/>
        <pt x="566" y="694" on="1"/>
        <pt x="500" y="652" on="0"/>
        <pt x="415" y="652" on="1"/>
        <pt x="188" y="649" on="0"/>
        <pt x="14" y="878" on="0"/>
        <pt x="48" y="1238" on="0"/>
        <pt x="343" y="1490" on="0"/>
        <pt x="536" y="1482" on="1"/>
        <pt x="701" y="1475" on="0"/>
        <pt x="899" y="1347" on="0"/>
        <pt x="951" y="1250" on="1"/>
        <pt x="956" y="1239" on="0"/>
        <pt x="967" y="1241" on="1"/>
        <pt x="979" y="1241" on="0"/>
        <pt x="981" y="1253" on="1"/>
        <pt x="1009" y="1354" on="0"/>
        <pt x="1164" y="1478" on="0"/>
        <pt x="1284" y="1478" on="1"/>
        <pt x="1399" y="1478" on="0"/>
        <pt x="1571" y="1331" on="0"/>
        <pt x="1610" y="1166" on="1"/>
        <pt x="1639" y="1057" on="0"/>
        <pt x="1691" y="1059" on="1"/>
        <pt x="1712" y="1059" on="0"/>
        <pt x="1719" y="1026" on="0"/>
        <pt x="1699" y="1016" on="1"/>
        <pt x="1473" y="911" on="1"/>
        <pt x="1462" y="905" on="0"/>
        <pt x="1464" y="894" on="1"/>
        <pt x="1465" y="883" on="0"/>
        <pt x="1477" y="880" on="1"/>
        <pt x="1596" y="853" on="0"/>
        <pt x="1777" y="648" on="0"/>
        <pt x="1777" y="501" on="1"/>
        <pt x="1773" y="270" on="0"/>
        <pt x="1473" y="93" on="1"/>
        <pt x="1308" y="-3" on="0"/>
        <pt x="1002" y="-37" on="0"/>
        <pt x="867" y="10" on="1"/>
        <pt x="713" y="64" on="0"/>
        <pt x="494" y="319" on="0"/>
      </contour>
      <contour>
        <pt x="1049" y="758" on="1"/>
        <pt x="1439" y="942" on="1"/>
        <pt x="1448" y="949" on="0"/>
        <pt x="1448" y="956" on="1"/>
        <pt x="1448" y="966" on="0"/>
        <pt x="1440" y="971" on="1"/>
        <pt x="1372" y="1011" on="0"/>
        <pt x="1338" y="1144" on="1"/>
        <pt x="1311" y="1242" on="0"/>
        <pt x="1229" y="1364" on="0"/>
        <pt x="1150" y="1356" on="1"/>
        <pt x="1044" y="1332" on="0"/>
        <pt x="1007" y="1152" on="0"/>
        <pt x="1020" y="1037" on="1"/>
        <pt x="1042" y="852" on="0"/>
        <pt x="790" y="553" on="0"/>
        <pt x="649" y="449" on="1"/>
        <pt x="739" y="450" on="0"/>
        <pt x="836" y="357" on="1"/>
        <pt x="904" y="290" on="0"/>
        <pt x="1051" y="176" on="0"/>
        <pt x="1133" y="138" on="1"/>
        <pt x="1236" y="89" on="0"/>
        <pt x="1442" y="112" on="0"/>
        <pt x="1516" y="208" on="1"/>
        <pt x="1570" y="278" on="0"/>
        <pt x="1573" y="465" on="0"/>
        <pt x="1430" y="655" on="0"/>
        <pt x="1217" y="725" on="0"/>
        <pt x="1058" y="715" on="1"/>
        <pt x="1036" y="714" on="0"/>
        <pt x="1029" y="749" on="0"/>
      </contour>
    </TTGlyph>
    <TTGlyph name="C" xMin="72" yMin="-26" xMax="1356" yMax="1486">
      <contour>
        <pt x="764" y="241" on="1"/>
        <pt x="739" y="230" on="0"/>
        <pt x="717" y="260" on="0"/>
        <pt x="737" y="276" on="1"/>
        <pt x="853" y="362" on="0"/>
        <pt x="856" y="423" on="1"/>
        <pt x="859" y="464" on="0"/>
        <pt x="778" y="576" on="0"/>
        <pt x="676" y="669" on="1"/>
        <pt x="469" y="857" on="0"/>
        <pt x="471" y="981" on="1"/>
        <pt x="471" y="1095" on="0"/>
        <pt x="643" y="1202" on="1"/>
        <pt x="649" y="1205" on="0"/>
        <pt x="735" y="1256" on="0"/>
        <pt x="754" y="1270" on="1"/>
        <pt x="763" y="1278" on="0"/>
        <pt x="761" y="1288" on="1"/>
        <pt x="730" y="1425" on="0"/>
        <pt x="589" y="1425" on="1"/>
        <pt x="446" y="1425" on="0"/>
        <pt x="304" y="1070" on="0"/>
        <pt x="325" y="860" on="1"/>
        <pt x="361" y="494" on="0"/>
        <pt x="761" y="127" on="0"/>
        <pt x="1018" y="127" on="1"/>
        <pt x="1160" y="127" on="0"/>
        <pt x="1316" y="203" on="1"/>
        <pt x="1339" y="214" on="0"/>
        <pt x="1361" y="181" on="0"/>
        <pt x="1340" y="163" on="1"/>
        <pt x="1101" y="-26" on="0"/>
        <pt x="794" y="-26" on="1"/>
        <pt x="487" y="-26" on="0"/>
        <pt x="87" y="457" on="0"/>
        <pt x="72" y="688" on="1"/>
        <pt x="51" y="1022" on="0"/>
        <pt x="347" y="1486" on="0"/>
        <pt x="573" y="1486" on="1"/>
        <pt x="665" y="1486" on="0"/>
        <pt x="776" y="1393" on="0"/>
        <pt x="797" y="1328" on="1"/>
        <pt x="804" y="1308" on="0"/>
        <pt x="822" y="1319" on="1"/>
        <pt x="910" y="1384" on="0"/>
        <pt x="985" y="1462" on="1"/>
        <pt x="1018" y="1487" on="0"/>
        <pt x="1103" y="1442" on="0"/>
        <pt x="1139" y="1424" on="1"/>
        <pt x="1172" y="1405" on="0"/>
        <pt x="1268" y="1353" on="0"/>
        <pt x="1322" y="1376" on="1"/>
        <pt x="1344" y="1387" on="0"/>
        <pt x="1367" y="1364" on="0"/>
        <pt x="1354" y="1349" on="1"/>
        <pt x="1303" y="1299" on="0"/>
        <pt x="1215" y="1220" on="0"/>
        <pt x="1173" y="1182" on="1"/>
        <pt x="1163" y="1172" on="0"/>
        <pt x="1160" y="1171" on="1"/>
        <pt x="1156" y="1169" on="0"/>
        <pt x="1150" y="1169" on="1"/>
        <pt x="1142" y="1169" on="0"/>
        <pt x="1121" y="1183" on="0"/>
        <pt x="1114" y="1187" on="1"/>
        <pt x="941" y="1271" on="0"/>
        <pt x="875" y="1271" on="1"/>
        <pt x="827" y="1269" on="0"/>
        <pt x="778" y="1230" on="1"/>
        <pt x="696" y="1166" on="0"/>
        <pt x="695" y="1104" on="1"/>
        <pt x="692" y="1026" on="0"/>
        <pt x="818" y="917" on="1"/>
        <pt x="1080" y="690" on="0"/>
        <pt x="1094" y="555" on="1"/>
        <pt x="1104" y="427" on="0"/>
      </contour>
    </TTGlyph>
    <TTGlyph name="Ccedilla" xMin="72" yMin="-439" xMax="1356" yMax="1486">
      <component glyphName="C" x="0" y="0" flags="0x1204"/>
      <component glyphName="cedilla" x="144" y="0" flags="0x1004"/>
    </TTGlyph>
    <TTGlyph name="D" xMin="47" yMin="-4" xMax="1593" yMax="1486">
      <contour>
        <pt x="214" y="105" on="1"/>
        <pt x="188" y="88" on="0"/>
        <pt x="160" y="124" on="0"/>
        <pt x="183" y="144" on="1"/>
        <pt x="355" y="303" on="0"/>
        <pt x="627" y="391" on="0"/>
        <pt x="849" y="250" on="1"/>
        <pt x="1046" y="124" on="0"/>
        <pt x="1350" y="159" on="0"/>
        <pt x="1420" y="322" on="1"/>
        <pt x="1540" y="605" on="0"/>
        <pt x="1159" y="1161" on="0"/>
        <pt x="842" y="1236" on="1"/>
        <pt x="622" y="1288" on="0"/>
        <pt x="182" y="1108" on="0"/>
        <pt x="143" y="930" on="1"/>
        <pt x="95" y="716" on="0"/>
        <pt x="374" y="522" on="0"/>
        <pt x="522" y="559" on="1"/>
        <pt x="541" y="564" on="0"/>
        <pt x="560" y="573" on="1"/>
        <pt x="587" y="585" on="0"/>
        <pt x="610" y="545" on="0"/>
        <pt x="582" y="530" on="1"/>
        <pt x="544" y="514" on="0"/>
        <pt x="533" y="511" on="1"/>
        <pt x="391" y="466" on="0"/>
        <pt x="47" y="654" on="0"/>
        <pt x="47" y="927" on="1"/>
        <pt x="47" y="1078" on="0"/>
        <pt x="237" y="1325" on="0"/>
        <pt x="533" y="1474" on="0"/>
        <pt x="888" y="1497" on="0"/>
        <pt x="1059" y="1444" on="1"/>
        <pt x="1244" y="1374" on="0"/>
        <pt x="1495" y="1110" on="0"/>
        <pt x="1609" y="788" on="0"/>
        <pt x="1576" y="444" on="0"/>
        <pt x="1478" y="296" on="1"/>
        <pt x="1328" y="71" on="0"/>
        <pt x="898" y="-78" on="0"/>
        <pt x="566" y="100" on="1"/>
        <pt x="482" y="145" on="0"/>
        <pt x="307" y="181" on="0"/>
      </contour>
      <contour>
        <pt x="788" y="339" on="1"/>
        <pt x="760" y="325" on="0"/>
        <pt x="738" y="362" on="0"/>
        <pt x="760" y="378" on="1"/>
        <pt x="875" y="456" on="0"/>
        <pt x="728" y="624" on="0"/>
        <pt x="666" y="678" on="1"/>
        <pt x="461" y="853" on="0"/>
        <pt x="603" y="1111" on="0"/>
        <pt x="760" y="1198" on="1"/>
        <pt x="788" y="1212" on="0"/>
        <pt x="811" y="1173" on="0"/>
        <pt x="786" y="1157" on="1"/>
        <pt x="637" y="1064" on="0"/>
        <pt x="846" y="889" on="1"/>
        <pt x="1035" y="731" on="0"/>
        <pt x="991" y="451" on="0"/>
      </contour>
    </TTGlyph>
    <TTGlyph name="E" xMin="73" yMin="-25" xMax="1386" yMax="1487">
      <contour>
        <pt x="817" y="1256" on="1"/>
        <pt x="798" y="1246" on="0"/>
        <pt x="779" y="1231" on="1"/>
        <pt x="697" y="1167" on="0"/>
        <pt x="696" y="1105" on="1"/>
        <pt x="693" y="1027" on="0"/>
        <pt x="819" y="918" on="1"/>
        <pt x="871" y="872" on="0"/>
        <pt x="903" y="842" on="1"/>
        <pt x="910" y="836" on="0"/>
        <pt x="922" y="838" on="0"/>
        <pt x="927" y="844" on="1"/>
        <pt x="951" y="874" on="0"/>
        <pt x="991" y="921" on="1"/>
        <pt x="1047" y="987" on="0"/>
        <pt x="1153" y="973" on="0"/>
        <pt x="1205" y="934" on="1"/>
        <pt x="1295" y="863" on="0"/>
        <pt x="1344" y="894" on="1"/>
        <pt x="1370" y="911" on="0"/>
        <pt x="1401" y="882" on="0"/>
        <pt x="1383" y="855" on="1"/>
        <pt x="1358" y="821" on="0"/>
        <pt x="1307" y="753" on="0"/>
        <pt x="1273" y="724" on="1"/>
        <pt x="1203" y="663" on="0"/>
        <pt x="1120" y="735" on="1"/>
        <pt x="1030" y="808" on="0"/>
        <pt x="982" y="798" on="1"/>
        <pt x="973" y="796" on="0"/>
        <pt x="970" y="787" on="1"/>
        <pt x="967" y="778" on="0"/>
        <pt x="974" y="771" on="1"/>
        <pt x="1086" y="648" on="0"/>
        <pt x="1095" y="556" on="1"/>
        <pt x="1105" y="428" on="0"/>
        <pt x="765" y="242" on="1"/>
        <pt x="741" y="229" on="0"/>
        <pt x="718" y="259" on="0"/>
        <pt x="738" y="277" on="1"/>
        <pt x="854" y="363" on="0"/>
        <pt x="857" y="424" on="1"/>
        <pt x="860" y="465" on="0"/>
        <pt x="779" y="577" on="0"/>
        <pt x="677" y="670" on="1"/>
        <pt x="470" y="858" on="0"/>
        <pt x="472" y="982" on="1"/>
        <pt x="472" y="1096" on="0"/>
        <pt x="644" y="1203" on="1"/>
        <pt x="650" y="1206" on="0"/>
        <pt x="736" y="1257" on="0"/>
        <pt x="755" y="1271" on="1"/>
        <pt x="764" y="1279" on="0"/>
        <pt x="762" y="1289" on="1"/>
        <pt x="733" y="1426" on="0"/>
        <pt x="590" y="1426" on="1"/>
        <pt x="447" y="1426" on="0"/>
        <pt x="291" y="1070" on="0"/>
        <pt x="362" y="495" on="0"/>
        <pt x="762" y="128" on="0"/>
        <pt x="1019" y="128" on="1"/>
        <pt x="1161" y="128" on="0"/>
        <pt x="1317" y="204" on="1"/>
        <pt x="1342" y="215" on="0"/>
        <pt x="1363" y="183" on="0"/>
        <pt x="1341" y="164" on="1"/>
        <pt x="1102" y="-25" on="0"/>
        <pt x="795" y="-25" on="1"/>
        <pt x="488" y="-25" on="0"/>
        <pt x="88" y="458" on="0"/>
        <pt x="73" y="689" on="1"/>
        <pt x="52" y="1023" on="0"/>
        <pt x="348" y="1487" on="0"/>
        <pt x="574" y="1487" on="1"/>
        <pt x="666" y="1487" on="0"/>
        <pt x="777" y="1394" on="0"/>
        <pt x="798" y="1329" on="1"/>
        <pt x="801" y="1320" on="0"/>
        <pt x="808" y="1319" on="1"/>
        <pt x="813" y="1317" on="0"/>
        <pt x="819" y="1318" on="1"/>
        <pt x="823" y="1320" on="1"/>
        <pt x="911" y="1385" on="0"/>
        <pt x="986" y="1463" on="1"/>
        <pt x="1019" y="1488" on="0"/>
        <pt x="1104" y="1443" on="0"/>
        <pt x="1140" y="1425" on="1"/>
        <pt x="1173" y="1406" on="0"/>
        <pt x="1273" y="1354" on="0"/>
        <pt x="1323" y="1377" on="1"/>
        <pt x="1346" y="1392" on="0"/>
        <pt x="1370" y="1367" on="0"/>
        <pt x="1355" y="1350" on="1"/>
        <pt x="1304" y="1300" on="0"/>
        <pt x="1216" y="1221" on="0"/>
        <pt x="1174" y="1183" on="1"/>
        <pt x="1164" y="1175" on="0"/>
        <pt x="1137" y="1176" on="0"/>
        <pt x="1115" y="1188" on="1"/>
        <pt x="942" y="1272" on="0"/>
        <pt x="876" y="1272" on="1"/>
        <pt x="847" y="1271" on="0"/>
      </contour>
    </TTGlyph>
    <TTGlyph name="Eacute" xMin="73" yMin="-25" xMax="1386" yMax="1841">
      <component glyphName="E" x="0" y="0" flags="0x1204"/>
      <component glyphName="acute" x="382" y="408" flags="0x1004"/>
    </TTGlyph>
    <TTGlyph name="Ecircumflex" xMin="73" yMin="-25" xMax="1386" yMax="1862">
      <component glyphName="E" x="0" y="0" flags="0x1204"/>
      <component glyphName="circumflex" x="421" y="416" flags="0x1004"/>
    </TTGlyph>
    <TTGlyph name="Edieresis" xMin="73" yMin="-25" xMax="1386" yMax="1811">
      <component glyphName="E" x="0" y="0" flags="0x1204"/>
      <component glyphName="dieresis" x="328" y="360" flags="0x1004"/>
    </TTGlyph>
    <TTGlyph name="Egrave" xMin="73" yMin="-25" xMax="1386" yMax="1860">
      <component glyphName="E" x="0" y="0" flags="0x1204"/>
      <component glyphName="grave" x="255" y="426" flags="0x1004"/>
    </TTGlyph>
    <TTGlyph name="Eth" xMin="47" yMin="-4" xMax="1593" yMax="1486">
      <contour>
        <pt x="722" y="625" on="1"/>
        <pt x="693" y="654" on="0"/>
        <pt x="666" y="678" on="1"/>
        <pt x="461" y="853" on="0"/>
        <pt x="603" y="1111" on="0"/>
        <pt x="760" y="1198" on="1"/>
        <pt x="788" y="1212" on="0"/>
        <pt x="811" y="1173" on="0"/>
        <pt x="786" y="1157" on="1"/>
        <pt x="637" y="1064" on="0"/>
        <pt x="846" y="889" on="1"/>
        <pt x="952" y="783" on="0"/>
        <pt x="988" y="693" on="1"/>
        <pt x="1305" y="780" on="1"/>
        <pt x="1313" y="781" on="0"/>
        <pt x="1317" y="774" on="1"/>
        <pt x="1320" y="768" on="0"/>
        <pt x="1317" y="762" on="1"/>
        <pt x="1318" y="728" on="1"/>
        <pt x="1312" y="719" on="0"/>
        <pt x="1306" y="719" on="1"/>
        <pt x="1004" y="636" on="1"/>
        <pt x="1009" y="608" on="0"/>
        <pt x="1006" y="583" on="1"/>
        <pt x="991" y="451" on="0"/>
        <pt x="788" y="339" on="1"/>
        <pt x="760" y="325" on="0"/>
        <pt x="738" y="362" on="0"/>
        <pt x="760" y="378" on="1"/>
        <pt x="875" y="456" on="0"/>
        <pt x="801" y="540" on="1"/>
        <pt x="785" y="559" on="0"/>
        <pt x="769" y="576" on="1"/>
        <pt x="391" y="466" on="0"/>
        <pt x="47" y="654" on="0"/>
        <pt x="47" y="927" on="1"/>
        <pt x="47" y="1078" on="0"/>
        <pt x="237" y="1325" on="0"/>
        <pt x="533" y="1474" on="0"/>
        <pt x="888" y="1497" on="0"/>
        <pt x="1059" y="1444" on="1"/>
        <pt x="1244" y="1374" on="0"/>
        <pt x="1495" y="1110" on="0"/>
        <pt x="1609" y="788" on="0"/>
        <pt x="1576" y="444" on="0"/>
        <pt x="1478" y="296" on="1"/>
        <pt x="1328" y="71" on="0"/>
        <pt x="898" y="-78" on="0"/>
        <pt x="566" y="100" on="1"/>
        <pt x="482" y="145" on="0"/>
        <pt x="307" y="181" on="0"/>
        <pt x="214" y="105" on="1"/>
        <pt x="188" y="88" on="0"/>
        <pt x="160" y="124" on="0"/>
        <pt x="183" y="144" on="1"/>
        <pt x="355" y="303" on="0"/>
        <pt x="627" y="391" on="0"/>
        <pt x="849" y="250" on="1"/>
        <pt x="1046" y="124" on="0"/>
        <pt x="1350" y="159" on="0"/>
        <pt x="1420" y="322" on="1"/>
        <pt x="1540" y="605" on="0"/>
        <pt x="1159" y="1161" on="0"/>
        <pt x="842" y="1236" on="1"/>
        <pt x="622" y="1288" on="0"/>
        <pt x="182" y="1108" on="0"/>
        <pt x="143" y="930" on="1"/>
        <pt x="95" y="716" on="0"/>
        <pt x="374" y="522" on="0"/>
      </contour>
    </TTGlyph>
    <TTGlyph name="Euro" xMin="41" yMin="12" xMax="1147" yMax="1418">
      <contour>
        <pt x="737" y="1410" on="1"/>
        <pt x="848" y="1410" on="0"/>
        <pt x="952" y="1365" on="1"/>
        <pt x="976" y="1353" on="0"/>
        <pt x="1049" y="1354" on="0"/>
        <pt x="1071" y="1408" on="1"/>
        <pt x="1076" y="1418" on="0"/>
        <pt x="1085" y="1418" on="1"/>
        <pt x="1102" y="1415" on="0"/>
        <pt x="1113" y="1406" on="1"/>
        <pt x="1124" y="1398" on="0"/>
        <pt x="1118" y="1385" on="1"/>
        <pt x="1103" y="1349" on="0"/>
        <pt x="1051" y="1123" on="0"/>
        <pt x="1055" y="1020" on="1"/>
        <pt x="1055" y="1003" on="0"/>
        <pt x="1041" y="1002" on="1"/>
        <pt x="1029" y="1002" on="0"/>
        <pt x="996" y="1000" on="0"/>
        <pt x="984" y="1001" on="1"/>
        <pt x="971" y="1002" on="0"/>
        <pt x="971" y="1018" on="1"/>
        <pt x="975" y="1140" on="0"/>
        <pt x="888" y="1359" on="0"/>
        <pt x="737" y="1359" on="1"/>
        <pt x="603" y="1359" on="0"/>
        <pt x="417" y="1070" on="0"/>
        <pt x="390" y="866" on="1"/>
        <pt x="388" y="858" on="0"/>
        <pt x="394" y="853" on="1"/>
        <pt x="400" y="847" on="0"/>
        <pt x="407" y="847" on="1"/>
        <pt x="714" y="847" on="1"/>
        <pt x="722" y="847" on="0"/>
        <pt x="727" y="840" on="1"/>
        <pt x="733" y="833" on="0"/>
        <pt x="730" y="826" on="1"/>
        <pt x="722" y="799" on="1"/>
        <pt x="718" y="788" on="0"/>
        <pt x="706" y="788" on="1"/>
        <pt x="398" y="788" on="1"/>
        <pt x="382" y="788" on="0"/>
        <pt x="382" y="773" on="1"/>
        <pt x="380" y="731" on="0"/>
        <pt x="380" y="711" on="1"/>
        <pt x="380" y="663" on="0"/>
        <pt x="381" y="640" on="1"/>
        <pt x="381" y="623" on="0"/>
        <pt x="398" y="623" on="1"/>
        <pt x="645" y="623" on="1"/>
        <pt x="653" y="623" on="0"/>
        <pt x="659" y="616" on="1"/>
        <pt x="663" y="609" on="0"/>
        <pt x="661" y="602" on="1"/>
        <pt x="654" y="576" on="1"/>
        <pt x="648" y="564" on="0"/>
        <pt x="638" y="564" on="1"/>
        <pt x="402" y="564" on="1"/>
        <pt x="394" y="564" on="0"/>
        <pt x="389" y="559" on="1"/>
        <pt x="385" y="553" on="0"/>
        <pt x="385" y="547" on="1"/>
        <pt x="399" y="346" on="0"/>
        <pt x="547" y="65" on="0"/>
        <pt x="737" y="65" on="1"/>
        <pt x="820" y="65" on="0"/>
        <pt x="938" y="142" on="0"/>
        <pt x="920" y="236" on="1"/>
        <pt x="916" y="252" on="0"/>
        <pt x="916" y="272" on="1"/>
        <pt x="916" y="332" on="0"/>
        <pt x="984" y="418" on="0"/>
        <pt x="1032" y="418" on="1"/>
        <pt x="1080" y="418" on="0"/>
        <pt x="1147" y="332" on="0"/>
        <pt x="1147" y="272" on="1"/>
        <pt x="1147" y="124" on="0"/>
        <pt x="827" y="12" on="0"/>
        <pt x="737" y="12" on="1"/>
        <pt x="520" y="12" on="0"/>
        <pt x="191" y="319" on="0"/>
        <pt x="144" y="552" on="1"/>
        <pt x="140" y="564" on="0"/>
        <pt x="128" y="564" on="1"/>
        <pt x="56" y="564" on="1"/>
        <pt x="47" y="564" on="0"/>
        <pt x="44" y="571" on="1"/>
        <pt x="39" y="578" on="0"/>
        <pt x="41" y="586" on="1"/>
        <pt x="49" y="611" on="1"/>
        <pt x="52" y="623" on="0"/>
        <pt x="65" y="623" on="1"/>
        <pt x="115" y="623" on="1"/>
        <pt x="121" y="623" on="0"/>
        <pt x="127" y="629" on="1"/>
        <pt x="132" y="634" on="0"/>
        <pt x="132" y="641" on="1"/>
        <pt x="128" y="671" on="0"/>
        <pt x="128" y="711" on="1"/>
        <pt x="128" y="741" on="0"/>
        <pt x="131" y="770" on="1"/>
        <pt x="131" y="778" on="0"/>
        <pt x="126" y="783" on="1"/>
        <pt x="121" y="788" on="0"/>
        <pt x="114" y="788" on="1"/>
        <pt x="78" y="788" on="1"/>
        <pt x="69" y="788" on="0"/>
        <pt x="65" y="795" on="1"/>
        <pt x="60" y="801" on="0"/>
        <pt x="63" y="809" on="1"/>
        <pt x="70" y="835" on="1"/>
        <pt x="74" y="847" on="0"/>
        <pt x="86" y="847" on="1"/>
        <pt x="126" y="847" on="1"/>
        <pt x="140" y="847" on="0"/>
        <pt x="142" y="860" on="1"/>
        <pt x="187" y="1096" on="0"/>
        <pt x="518" y="1410" on="0"/>
      </contour>
    </TTGlyph>
    <TTGlyph name="F" xMin="67" yMin="-246" xMax="1502" yMax="1503">
      <contour>
        <pt x="1358" y="572" on="1"/>
        <pt x="1349" y="563" on="0"/>
        <pt x="1339" y="563" on="1"/>
        <pt x="1324" y="563" on="0"/>
        <pt x="1299" y="600" on="0"/>
        <pt x="1290" y="610" on="1"/>
        <pt x="1206" y="694" on="0"/>
        <pt x="1145" y="644" on="1"/>
        <pt x="1133" y="636" on="0"/>
        <pt x="1141" y="622" on="1"/>
        <pt x="1183" y="557" on="0"/>
        <pt x="1211" y="498" on="1"/>
        <pt x="1271" y="367" on="0"/>
        <pt x="1236" y="101" on="0"/>
        <pt x="1090" y="-111" on="0"/>
        <pt x="857" y="-246" on="0"/>
        <pt x="719" y="-246" on="1"/>
        <pt x="542" y="-246" on="0"/>
        <pt x="286" y="-79" on="0"/>
        <pt x="275" y="77" on="1"/>
        <pt x="293" y="159" on="1"/>
        <pt x="302" y="200" on="0"/>
        <pt x="315" y="240" on="1"/>
        <pt x="351" y="343" on="0"/>
        <pt x="306" y="379" on="1"/>
        <pt x="281" y="399" on="0"/>
        <pt x="249" y="399" on="1"/>
        <pt x="219" y="400" on="0"/>
        <pt x="219" y="447" on="0"/>
        <pt x="249" y="448" on="1"/>
        <pt x="274" y="448" on="0"/>
        <pt x="332" y="436" on="0"/>
        <pt x="357" y="432" on="1"/>
        <pt x="464" y="409" on="0"/>
        <pt x="582" y="282" on="0"/>
        <pt x="541" y="138" on="1"/>
        <pt x="502" y="5" on="0"/>
        <pt x="559" y="-179" on="0"/>
        <pt x="715" y="-188" on="1"/>
        <pt x="852" y="-194" on="0"/>
        <pt x="1004" y="-28" on="0"/>
        <pt x="1024" y="107" on="1"/>
        <pt x="1038" y="201" on="0"/>
        <pt x="928" y="433" on="0"/>
        <pt x="836" y="550" on="1"/>
        <pt x="627" y="814" on="0"/>
        <pt x="715" y="1037" on="0"/>
        <pt x="865" y="1170" on="1"/>
        <pt x="865" y="1171" on="1"/>
        <pt x="870" y="1176" on="0"/>
        <pt x="881" y="1176" on="1"/>
        <pt x="906" y="1176" on="0"/>
        <pt x="906" y="1152" on="1"/>
        <pt x="906" y="1142" on="0"/>
        <pt x="897" y="1133" on="1"/>
        <pt x="812" y="1043" on="0"/>
        <pt x="888" y="952" on="1"/>
        <pt x="942" y="886" on="0"/>
        <pt x="1047" y="757" on="0"/>
        <pt x="1092" y="694" on="1"/>
        <pt x="1105" y="678" on="0"/>
        <pt x="1119" y="693" on="1"/>
        <pt x="1161" y="746" on="0"/>
        <pt x="1247" y="851" on="0"/>
        <pt x="1291" y="905" on="1"/>
        <pt x="1309" y="927" on="0"/>
        <pt x="1330" y="910" on="1"/>
        <pt x="1366" y="880" on="0"/>
        <pt x="1435" y="819" on="0"/>
        <pt x="1471" y="789" on="1"/>
        <pt x="1480" y="782" on="0"/>
        <pt x="1502" y="762" on="0"/>
        <pt x="1502" y="751" on="1"/>
        <pt x="1502" y="742" on="0"/>
        <pt x="1475" y="713" on="0"/>
        <pt x="1464" y="701" on="1"/>
      </contour>
      <contour>
        <pt x="678" y="583" on="1"/>
        <pt x="479" y="494" on="0"/>
        <pt x="290" y="573" on="1"/>
        <pt x="99" y="653" on="0"/>
        <pt x="35" y="1113" on="0"/>
        <pt x="373" y="1503" on="0"/>
        <pt x="675" y="1503" on="1"/>
        <pt x="817" y="1503" on="0"/>
        <pt x="1105" y="1409" on="0"/>
        <pt x="1252" y="1331" on="1"/>
        <pt x="1349" y="1280" on="0"/>
        <pt x="1442" y="1312" on="1"/>
        <pt x="1462" y="1320" on="0"/>
        <pt x="1472" y="1323" on="1"/>
        <pt x="1494" y="1327" on="0"/>
        <pt x="1505" y="1295" on="0"/>
        <pt x="1481" y="1276" on="1"/>
        <pt x="1409" y="1224" on="0"/>
        <pt x="1263" y="1123" on="0"/>
        <pt x="1193" y="1069" on="1"/>
        <pt x="1168" y="1049" on="0"/>
        <pt x="1138" y="1068" on="1"/>
        <pt x="1048" y="1134" on="0"/>
        <pt x="731" y="1278" on="0"/>
        <pt x="569" y="1278" on="1"/>
        <pt x="379" y="1278" on="0"/>
        <pt x="138" y="1062" on="0"/>
        <pt x="149" y="727" on="0"/>
        <pt x="431" y="541" on="0"/>
        <pt x="651" y="627" on="1"/>
        <pt x="669" y="634" on="0"/>
        <pt x="693" y="627" on="0"/>
        <pt x="702" y="610" on="0"/>
        <pt x="693" y="589" on="0"/>
      </contour>
    </TTGlyph>
    <TTGlyph name="G" xMin="61" yMin="-38" xMax="1517" yMax="1465">
      <contour>
        <pt x="1145" y="1457" on="1"/>
        <pt x="1205" y="1373" on="0"/>
        <pt x="1357" y="1234" on="0"/>
        <pt x="1441" y="1171" on="1"/>
        <pt x="1449" y="1167" on="0"/>
        <pt x="1453" y="1163" on="1"/>
        <pt x="1463" y="1144" on="0"/>
        <pt x="1447" y="1133" on="1"/>
        <pt x="1207" y="966" on="1"/>
        <pt x="1176" y="941" on="0"/>
        <pt x="1216" y="937" on="1"/>
        <pt x="1357" y="932" on="0"/>
        <pt x="1525" y="626" on="0"/>
        <pt x="1517" y="505" on="1"/>
        <pt x="1501" y="289" on="0"/>
        <pt x="1122" y="-25" on="0"/>
        <pt x="870" y="-38" on="1"/>
        <pt x="546" y="-56" on="0"/>
        <pt x="70" y="377" on="0"/>
        <pt x="61" y="689" on="1"/>
        <pt x="53" y="1023" on="0"/>
        <pt x="398" y="1465" on="0"/>
        <pt x="624" y="1465" on="1"/>
        <pt x="803" y="1465" on="0"/>
        <pt x="875" y="1311" on="1"/>
        <pt x="883" y="1294" on="0"/>
        <pt x="900" y="1305" on="1"/>
        <pt x="1115" y="1463" on="1"/>
        <pt x="1132" y="1474" on="0"/>
      </contour>
      <contour>
        <pt x="992" y="800" on="1"/>
        <pt x="965" y="799" on="0"/>
        <pt x="933" y="792" on="1"/>
        <pt x="910" y="788" on="0"/>
        <pt x="898" y="819" on="0"/>
        <pt x="918" y="831" on="1"/>
        <pt x="1206" y="1031" on="1"/>
        <pt x="1223" y="1043" on="0"/>
        <pt x="1207" y="1057" on="1"/>
        <pt x="1055" y="1174" on="0"/>
        <pt x="962" y="1290" on="1"/>
        <pt x="953" y="1302" on="0"/>
        <pt x="940" y="1293" on="1"/>
        <pt x="826" y="1210" on="1"/>
        <pt x="718" y="1130" on="0"/>
        <pt x="733" y="934" on="0"/>
        <pt x="862" y="794" on="1"/>
        <pt x="1078" y="556" on="0"/>
        <pt x="913" y="310" on="0"/>
        <pt x="727" y="211" on="1"/>
        <pt x="704" y="200" on="0"/>
        <pt x="683" y="229" on="0"/>
        <pt x="702" y="246" on="1"/>
        <pt x="746" y="288" on="0"/>
        <pt x="846" y="404" on="0"/>
        <pt x="667" y="623" on="1"/>
        <pt x="540" y="778" on="0"/>
        <pt x="488" y="965" on="0"/>
        <pt x="559" y="1090" on="0"/>
        <pt x="715" y="1182" on="0"/>
        <pt x="797" y="1242" on="1"/>
        <pt x="836" y="1271" on="1"/>
        <pt x="846" y="1278" on="0"/>
        <pt x="842" y="1290" on="1"/>
        <pt x="798" y="1420" on="0"/>
        <pt x="638" y="1417" on="1"/>
        <pt x="495" y="1413" on="0"/>
        <pt x="314" y="1084" on="0"/>
        <pt x="320" y="874" on="1"/>
        <pt x="332" y="480" on="0"/>
        <pt x="672" y="31" on="0"/>
        <pt x="928" y="31" on="1"/>
        <pt x="1102" y="31" on="0"/>
        <pt x="1289" y="292" on="0"/>
        <pt x="1287" y="443" on="1"/>
        <pt x="1285" y="568" on="0"/>
        <pt x="1130" y="800" on="0"/>
      </contour>
    </TTGlyph>
    <TTGlyph name="H" xMin="37" yMin="-274" xMax="1452" yMax="1382">
      <contour>
        <pt x="37" y="160" on="1"/>
        <pt x="24" y="174" on="0"/>
        <pt x="39" y="191" on="1"/>
        <pt x="147" y="300" on="0"/>
        <pt x="314" y="374" on="0"/>
        <pt x="427" y="247" on="1"/>
        <pt x="496" y="172" on="0"/>
        <pt x="599" y="126" on="0"/>
        <pt x="649" y="175" on="1"/>
        <pt x="708" y="234" on="0"/>
        <pt x="591" y="412" on="0"/>
        <pt x="432" y="611" on="1"/>
        <pt x="251" y="838" on="0"/>
        <pt x="250" y="1119" on="0"/>
        <pt x="476" y="1307" on="1"/>
        <pt x="813" y="1586" on="0"/>
        <pt x="954" y="1382" on="1"/>
        <pt x="987" y="1334" on="0"/>
        <pt x="1080" y="1278" on="0"/>
        <pt x="1100" y="1291" on="1"/>
        <pt x="1122" y="1307" on="0"/>
        <pt x="1149" y="1278" on="0"/>
        <pt x="1128" y="1257" on="1"/>
        <pt x="1029" y="1167" on="0"/>
        <pt x="862" y="1118" on="0"/>
        <pt x="766" y="1234" on="1"/>
        <pt x="699" y="1315" on="0"/>
        <pt x="579" y="1340" on="0"/>
        <pt x="504" y="1272" on="1"/>
        <pt x="415" y="1192" on="0"/>
        <pt x="490" y="962" on="0"/>
        <pt x="646" y="779" on="1"/>
        <pt x="656" y="768" on="0"/>
        <pt x="668" y="776" on="1"/>
        <pt x="1091" y="1053" on="1"/>
        <pt x="1104" y="1061" on="0"/>
        <pt x="1117" y="1055" on="0"/>
        <pt x="1119" y="1046" on="1"/>
        <pt x="1122" y="1017" on="0"/>
        <pt x="1188" y="962" on="1"/>
        <pt x="1296" y="870" on="0"/>
        <pt x="1461" y="604" on="0"/>
        <pt x="1452" y="430" on="1"/>
        <pt x="1437" y="172" on="0"/>
        <pt x="999" y="-229" on="0"/>
        <pt x="728" y="-274" on="1"/>
        <pt x="697" y="-280" on="0"/>
        <pt x="691" y="-238" on="0"/>
        <pt x="718" y="-232" on="1"/>
        <pt x="1086" y="-142" on="0"/>
        <pt x="1283" y="455" on="0"/>
        <pt x="1054" y="715" on="1"/>
        <pt x="986" y="790" on="0"/>
        <pt x="846" y="823" on="0"/>
        <pt x="738" y="754" on="1"/>
        <pt x="706" y="735" on="1"/>
        <pt x="691" y="725" on="0"/>
        <pt x="702" y="711" on="1"/>
        <pt x="823" y="555" on="0"/>
        <pt x="855" y="306" on="0"/>
        <pt x="695" y="155" on="1"/>
        <pt x="533" y="2" on="0"/>
        <pt x="369" y="-42" on="0"/>
        <pt x="247" y="85" on="1"/>
        <pt x="216" y="116" on="0"/>
        <pt x="120" y="196" on="0"/>
        <pt x="69" y="159" on="1"/>
        <pt x="51" y="147" on="0"/>
      </contour>
    </TTGlyph>
    <TTGlyph name="I" xMin="49" yMin="-240" xMax="1311" yMax="1503">
      <contour>
        <pt x="775" y="682" on="1"/>
        <pt x="784" y="662" on="0"/>
        <pt x="762" y="650" on="1"/>
        <pt x="540" y="533" on="0"/>
        <pt x="136" y="750" on="0"/>
        <pt x="107" y="1170" on="0"/>
        <pt x="378" y="1497" on="0"/>
        <pt x="621" y="1503" on="1"/>
        <pt x="717" y="1505" on="0"/>
        <pt x="908" y="1424" on="0"/>
        <pt x="950" y="1388" on="1"/>
        <pt x="1052" y="1297" on="0"/>
        <pt x="1197" y="1190" on="0"/>
        <pt x="1274" y="1228" on="1"/>
        <pt x="1299" y="1242" on="0"/>
        <pt x="1323" y="1205" on="0"/>
        <pt x="1286" y="1181" on="1"/>
        <pt x="1067" y="1041" on="0"/>
        <pt x="1037" y="827" on="0"/>
        <pt x="1202" y="578" on="1"/>
        <pt x="1356" y="345" on="0"/>
        <pt x="1265" y="10" on="0"/>
        <pt x="1102" y="-108" on="1"/>
        <pt x="945" y="-221" on="0"/>
        <pt x="570" y="-258" on="0"/>
        <pt x="405" y="-111" on="1"/>
        <pt x="325" y="-39" on="0"/>
        <pt x="189" y="80" on="0"/>
        <pt x="90" y="17" on="1"/>
        <pt x="64" y="-2" on="0"/>
        <pt x="34" y="28" on="0"/>
        <pt x="52" y="47" on="1"/>
        <pt x="353" y="353" on="0"/>
        <pt x="640" y="36" on="1"/>
        <pt x="772" y="-108" on="0"/>
        <pt x="984" y="-142" on="0"/>
        <pt x="1062" y="-72" on="1"/>
        <pt x="1137" y="-1" on="0"/>
        <pt x="1109" y="211" on="0"/>
        <pt x="992" y="391" on="1"/>
        <pt x="828" y="639" on="0"/>
        <pt x="839" y="899" on="0"/>
        <pt x="1028" y="1052" on="1"/>
        <pt x="1040" y="1062" on="0"/>
        <pt x="1034" y="1082" on="0"/>
        <pt x="1018" y="1081" on="1"/>
        <pt x="895" y="1082" on="0"/>
        <pt x="676" y="1296" on="0"/>
        <pt x="517" y="1299" on="1"/>
        <pt x="370" y="1290" on="0"/>
        <pt x="214" y="1107" on="0"/>
        <pt x="246" y="759" on="0"/>
        <pt x="573" y="614" on="0"/>
        <pt x="741" y="688" on="1"/>
        <pt x="765" y="699" on="0"/>
      </contour>
    </TTGlyph>
    <TTGlyph name="Iacute" xMin="49" yMin="-240" xMax="1311" yMax="1904">
      <component glyphName="I" x="0" y="0" flags="0x1204"/>
      <component glyphName="acute" x="437" y="471" flags="0x1004"/>
    </TTGlyph>
    <TTGlyph name="Icircumflex" xMin="49" yMin="-240" xMax="1311" yMax="1902">
      <component glyphName="I" x="0" y="0" flags="0x1204"/>
      <component glyphName="circumflex" x="329" y="456" flags="0x1004"/>
    </TTGlyph>
    <TTGlyph name="Idieresis" xMin="49" yMin="-240" xMax="1311" yMax="1815">
      <component glyphName="I" x="0" y="0" flags="0x1204"/>
      <component glyphName="dieresis" x="189" y="364" flags="0x1004"/>
    </TTGlyph>
    <TTGlyph name="Igrave" xMin="49" yMin="-240" xMax="1311" yMax="1906">
      <component glyphName="I" x="0" y="0" flags="0x1204"/>
      <component glyphName="grave" x="303" y="472" flags="0x1004"/>
    </TTGlyph>
    <TTGlyph name="J" xMin="48" yMin="-496" xMax="1337" yMax="1503">
      <contour>
        <pt x="775" y="683" on="1"/>
        <pt x="783" y="663" on="0"/>
        <pt x="758" y="650" on="1"/>
        <pt x="536" y="533" on="0"/>
        <pt x="128" y="757" on="0"/>
        <pt x="104" y="1191" on="0"/>
        <pt x="374" y="1497" on="0"/>
        <pt x="617" y="1503" on="1"/>
        <pt x="713" y="1505" on="0"/>
        <pt x="904" y="1424" on="0"/>
        <pt x="946" y="1388" on="1"/>
        <pt x="1047" y="1297" on="0"/>
        <pt x="1192" y="1194" on="0"/>
        <pt x="1271" y="1228" on="1"/>
        <pt x="1298" y="1242" on="0"/>
        <pt x="1320" y="1206" on="0"/>
        <pt x="1295" y="1191" on="1"/>
        <pt x="1063" y="1041" on="0"/>
        <pt x="1084" y="772" on="0"/>
        <pt x="1235" y="515" on="1"/>
        <pt x="1408" y="217" on="0"/>
        <pt x="1266" y="-244" on="0"/>
        <pt x="1103" y="-364" on="1"/>
        <pt x="946" y="-477" on="0"/>
        <pt x="571" y="-514" on="0"/>
        <pt x="406" y="-368" on="1"/>
        <pt x="326" y="-296" on="0"/>
        <pt x="190" y="-175" on="0"/>
        <pt x="91" y="-238" on="1"/>
        <pt x="61" y="-255" on="0"/>
        <pt x="36" y="-226" on="0"/>
        <pt x="53" y="-209" on="1"/>
        <pt x="353" y="97" on="0"/>
        <pt x="641" y="-219" on="1"/>
        <pt x="773" y="-365" on="0"/>
        <pt x="985" y="-399" on="0"/>
        <pt x="1063" y="-328" on="1"/>
        <pt x="1138" y="-256" on="0"/>
        <pt x="1208" y="16" on="0"/>
        <pt x="837" y="666" on="0"/>
        <pt x="861" y="914" on="0"/>
        <pt x="1026" y="1052" on="1"/>
        <pt x="1036" y="1060" on="0"/>
        <pt x="1030" y="1082" on="0"/>
        <pt x="1016" y="1081" on="1"/>
        <pt x="892" y="1081" on="0"/>
        <pt x="767" y="1196" on="1"/>
        <pt x="714" y="1244" on="0"/>
        <pt x="585" y="1303" on="0"/>
        <pt x="513" y="1299" on="1"/>
        <pt x="366" y="1290" on="0"/>
        <pt x="189" y="1101" on="0"/>
        <pt x="230" y="753" on="0"/>
        <pt x="554" y="607" on="0"/>
        <pt x="737" y="688" on="1"/>
        <pt x="765" y="700" on="0"/>
      </contour>
    </TTGlyph>
    <TTGlyph name="K" xMin="40" yMin="-34" xMax="1610" yMax="1455">
      <contour>
        <pt x="1163" y="725" on="1"/>
        <pt x="1172" y="730" on="0"/>
        <pt x="1173" y="749" on="0"/>
        <pt x="1162" y="754" on="1"/>
        <pt x="1097" y="787" on="0"/>
        <pt x="1046" y="923" on="1"/>
        <pt x="1005" y="1030" on="0"/>
        <pt x="835" y="1099" on="0"/>
        <pt x="755" y="1045" on="1"/>
        <pt x="674" y="991" on="0"/>
        <pt x="670" y="762" on="0"/>
        <pt x="734" y="677" on="1"/>
        <pt x="869" y="489" on="0"/>
        <pt x="821" y="250" on="0"/>
        <pt x="695" y="136" on="1"/>
        <pt x="543" y="-4" on="0"/>
        <pt x="334" y="-47" on="0"/>
        <pt x="232" y="88" on="1"/>
        <pt x="145" y="204" on="0"/>
        <pt x="79" y="153" on="1"/>
        <pt x="54" y="135" on="0"/>
        <pt x="27" y="163" on="0"/>
        <pt x="47" y="184" on="1"/>
        <pt x="56" y="193" on="0"/>
        <pt x="220" y="331" on="0"/>
        <pt x="356" y="331" on="0"/>
        <pt x="442" y="226" on="1"/>
        <pt x="495" y="160" on="0"/>
        <pt x="593" y="112" on="0"/>
        <pt x="653" y="163" on="1"/>
        <pt x="710" y="212" on="0"/>
        <pt x="591" y="417" on="0"/>
        <pt x="483" y="537" on="1"/>
        <pt x="386" y="644" on="0"/>
        <pt x="293" y="913" on="0"/>
        <pt x="320" y="1009" on="1"/>
        <pt x="377" y="1217" on="0"/>
        <pt x="770" y="1458" on="0"/>
        <pt x="997" y="1455" on="1"/>
        <pt x="1260" y="1457" on="0"/>
        <pt x="1594" y="1142" on="0"/>
        <pt x="1602" y="917" on="1"/>
        <pt x="1605" y="805" on="0"/>
        <pt x="1465" y="636" on="0"/>
        <pt x="1364" y="582" on="1"/>
        <pt x="1333" y="566" on="0"/>
        <pt x="1311" y="604" on="0"/>
        <pt x="1338" y="619" on="1"/>
        <pt x="1440" y="682" on="0"/>
        <pt x="1493" y="820" on="0"/>
        <pt x="1490" y="928" on="1"/>
        <pt x="1484" y="1113" on="0"/>
        <pt x="1214" y="1404" on="0"/>
        <pt x="995" y="1412" on="1"/>
        <pt x="726" y="1409" on="0"/>
        <pt x="476" y="1043" on="0"/>
        <pt x="605" y="842" on="1"/>
        <pt x="612" y="830" on="0"/>
        <pt x="624" y="833" on="1"/>
        <pt x="636" y="838" on="0"/>
        <pt x="635" y="852" on="1"/>
        <pt x="626" y="942" on="0"/>
        <pt x="699" y="1142" on="0"/>
        <pt x="946" y="1260" on="0"/>
        <pt x="1212" y="1162" on="0"/>
        <pt x="1269" y="1050" on="1"/>
        <pt x="1313" y="962" on="0"/>
        <pt x="1360" y="855" on="0"/>
        <pt x="1390" y="859" on="1"/>
        <pt x="1413" y="863" on="0"/>
        <pt x="1424" y="829" on="0"/>
        <pt x="1401" y="817" on="1"/>
        <pt x="1165" y="682" on="1"/>
        <pt x="1155" y="676" on="0"/>
        <pt x="1155" y="658" on="0"/>
        <pt x="1166" y="653" on="1"/>
        <pt x="1222" y="623" on="0"/>
        <pt x="1324" y="439" on="0"/>
        <pt x="1378" y="301" on="1"/>
        <pt x="1449" y="117" on="0"/>
        <pt x="1567" y="160" on="1"/>
        <pt x="1599" y="174" on="0"/>
        <pt x="1620" y="138" on="0"/>
        <pt x="1589" y="119" on="1"/>
        <pt x="1351" y="-34" on="1"/>
        <pt x="1342" y="-39" on="0"/>
        <pt x="1333" y="-34" on="1"/>
        <pt x="1238" y="29" on="0"/>
        <pt x="1118" y="231" on="0"/>
        <pt x="1078" y="363" on="1"/>
        <pt x="1050" y="455" on="0"/>
        <pt x="956" y="554" on="0"/>
        <pt x="898" y="530" on="1"/>
        <pt x="870" y="520" on="0"/>
        <pt x="854" y="556" on="0"/>
        <pt x="878" y="569" on="1"/>
      </contour>
    </TTGlyph>
    <TTGlyph name="L" xMin="40" yMin="-21" xMax="1115" yMax="1441">
      <contour>
        <pt x="72" y="191" on="1"/>
        <pt x="47" y="184" on="0"/>
        <pt x="34" y="226" on="0"/>
        <pt x="66" y="238" on="1"/>
        <pt x="123" y="261" on="0"/>
        <pt x="233" y="340" on="0"/>
        <pt x="373" y="517" on="0"/>
        <pt x="264" y="692" on="0"/>
        <pt x="204" y="782" on="1"/>
        <pt x="151" y="857" on="0"/>
        <pt x="106" y="1027" on="0"/>
        <pt x="128" y="1102" on="1"/>
        <pt x="172" y="1255" on="0"/>
        <pt x="445" y="1441" on="0"/>
        <pt x="655" y="1441" on="1"/>
        <pt x="1117" y="1440" on="0"/>
        <pt x="1113" y="1032" on="1"/>
        <pt x="1112" y="841" on="0"/>
        <pt x="793" y="668" on="0"/>
        <pt x="616" y="757" on="1"/>
        <pt x="583" y="772" on="0"/>
        <pt x="600" y="809" on="0"/>
        <pt x="626" y="799" on="1"/>
        <pt x="728" y="757" on="0"/>
        <pt x="914" y="863" on="0"/>
        <pt x="923" y="1014" on="1"/>
        <pt x="933" y="1191" on="0"/>
        <pt x="780" y="1388" on="0"/>
        <pt x="651" y="1397" on="1"/>
        <pt x="525" y="1397" on="0"/>
        <pt x="365" y="1258" on="0"/>
        <pt x="365" y="1165" on="1"/>
        <pt x="365" y="1102" on="0"/>
        <pt x="417" y="990" on="0"/>
        <pt x="450" y="938" on="1"/>
        <pt x="510" y="841" on="0"/>
        <pt x="567" y="593" on="0"/>
        <pt x="359" y="431" on="1"/>
        <pt x="349" y="423" on="0"/>
        <pt x="352" y="405" on="0"/>
        <pt x="364" y="402" on="1"/>
        <pt x="506" y="352" on="0"/>
        <pt x="628" y="250" on="1"/>
        <pt x="745" y="152" on="0"/>
        <pt x="1006" y="156" on="0"/>
        <pt x="1075" y="257" on="1"/>
        <pt x="1091" y="280" on="0"/>
        <pt x="1130" y="259" on="0"/>
        <pt x="1115" y="235" on="1"/>
        <pt x="1066" y="165" on="0"/>
        <pt x="927" y="25" on="0"/>
        <pt x="742" y="-41" on="0"/>
        <pt x="512" y="0" on="0"/>
        <pt x="373" y="112" on="1"/>
        <pt x="298" y="172" on="0"/>
        <pt x="150" y="224" on="0"/>
      </contour>
    </TTGlyph>
    <TTGlyph name="M" xMin="51" yMin="-27" xMax="2203" yMax="1436">
      <contour>
        <pt x="564" y="553" on="1"/>
        <pt x="566" y="609" on="0"/>
        <pt x="509" y="636" on="0"/>
        <pt x="417" y="615" on="1"/>
        <pt x="275" y="581" on="0"/>
        <pt x="51" y="775" on="0"/>
        <pt x="51" y="967" on="1"/>
        <pt x="52" y="1158" on="0"/>
        <pt x="328" y="1436" on="0"/>
        <pt x="520" y="1436" on="1"/>
        <pt x="607" y="1436" on="0"/>
        <pt x="811" y="1350" on="0"/>
        <pt x="883" y="1265" on="1"/>
        <pt x="889" y="1257" on="0"/>
        <pt x="903" y="1259" on="0"/>
        <pt x="908" y="1267" on="1"/>
        <pt x="952" y="1339" on="0"/>
        <pt x="1091" y="1437" on="0"/>
        <pt x="1206" y="1434" on="1"/>
        <pt x="1355" y="1427" on="0"/>
        <pt x="1473" y="1250" on="1"/>
        <pt x="1479" y="1241" on="0"/>
        <pt x="1497" y="1241" on="0"/>
        <pt x="1502" y="1251" on="1"/>
        <pt x="1544" y="1329" on="0"/>
        <pt x="1672" y="1429" on="0"/>
        <pt x="1768" y="1429" on="1"/>
        <pt x="1891" y="1427" on="0"/>
        <pt x="2051" y="1281" on="0"/>
        <pt x="2087" y="1109" on="1"/>
        <pt x="2109" y="990" on="0"/>
        <pt x="2179" y="983" on="1"/>
        <pt x="2199" y="982" on="0"/>
        <pt x="2202" y="950" on="0"/>
        <pt x="2176" y="942" on="1"/>
        <pt x="1982" y="876" on="0"/>
        <pt x="1836" y="585" on="0"/>
        <pt x="1915" y="360" on="1"/>
        <pt x="1950" y="258" on="0"/>
        <pt x="2081" y="175" on="0"/>
        <pt x="2159" y="223" on="1"/>
        <pt x="2188" y="240" on="0"/>
        <pt x="2217" y="205" on="0"/>
        <pt x="2197" y="188" on="1"/>
        <pt x="2129" y="134" on="0"/>
        <pt x="1996" y="27" on="0"/>
        <pt x="1929" y="-26" on="1"/>
        <pt x="1918" y="-34" on="0"/>
        <pt x="1908" y="-26" on="1"/>
        <pt x="1695" y="145" on="0"/>
        <pt x="1608" y="563" on="0"/>
        <pt x="1927" y="849" on="1"/>
        <pt x="1934" y="856" on="0"/>
        <pt x="1933" y="870" on="0"/>
        <pt x="1924" y="875" on="1"/>
        <pt x="1854" y="922" on="0"/>
        <pt x="1821" y="1116" on="1"/>
        <pt x="1786" y="1308" on="0"/>
        <pt x="1665" y="1310" on="1"/>
        <pt x="1579" y="1312" on="0"/>
        <pt x="1519" y="1184" on="1"/>
        <pt x="1515" y="1177" on="0"/>
        <pt x="1519" y="1170" on="1"/>
        <pt x="1558" y="1087" on="0"/>
        <pt x="1593" y="883" on="0"/>
        <pt x="1577" y="769" on="1"/>
        <pt x="1537" y="493" on="0"/>
        <pt x="1380" y="212" on="0"/>
        <pt x="1272" y="72" on="1"/>
        <pt x="1129" y="-107" on="0"/>
        <pt x="1002" y="33" on="1"/>
        <pt x="966" y="73" on="0"/>
        <pt x="887" y="97" on="0"/>
        <pt x="836" y="57" on="1"/>
        <pt x="817" y="41" on="0"/>
        <pt x="790" y="66" on="0"/>
        <pt x="805" y="85" on="1"/>
        <pt x="933" y="263" on="0"/>
        <pt x="1084" y="313" on="0"/>
        <pt x="1156" y="246" on="1"/>
        <pt x="1215" y="191" on="0"/>
        <pt x="1314" y="183" on="0"/>
        <pt x="1342" y="261" on="1"/>
        <pt x="1396" y="411" on="0"/>
        <pt x="1365" y="950" on="0"/>
        <pt x="1178" y="1238" on="0"/>
        <pt x="1009" y="1289" on="0"/>
        <pt x="940" y="1219" on="1"/>
        <pt x="930" y="1209" on="0"/>
        <pt x="939" y="1198" on="1"/>
        <pt x="1058" y="1033" on="0"/>
        <pt x="1067" y="816" on="1"/>
        <pt x="1073" y="638" on="0"/>
        <pt x="923" y="311" on="0"/>
        <pt x="805" y="161" on="1"/>
        <pt x="676" y="-3" on="0"/>
        <pt x="445" y="-51" on="0"/>
        <pt x="349" y="90" on="1"/>
        <pt x="265" y="216" on="0"/>
        <pt x="178" y="121" on="1"/>
        <pt x="157" y="103" on="0"/>
        <pt x="124" y="137" on="0"/>
        <pt x="145" y="159" on="1"/>
        <pt x="418" y="437" on="0"/>
        <pt x="574" y="232" on="1"/>
        <pt x="599" y="198" on="0"/>
        <pt x="644" y="140" on="0"/>
        <pt x="689" y="142" on="1"/>
        <pt x="747" y="144" on="0"/>
        <pt x="875" y="394" on="0"/>
        <pt x="875" y="584" on="1"/>
        <pt x="873" y="833" on="0"/>
        <pt x="617" y="1208" on="0"/>
        <pt x="452" y="1226" on="1"/>
        <pt x="287" y="1243" on="0"/>
        <pt x="97" y="1085" on="0"/>
        <pt x="100" y="977" on="1"/>
        <pt x="103" y="867" on="0"/>
        <pt x="214" y="735" on="0"/>
        <pt x="364" y="774" on="1"/>
        <pt x="653" y="848" on="0"/>
        <pt x="615" y="561" on="1"/>
        <pt x="611" y="531" on="0"/>
        <pt x="564" y="530" on="0"/>
      </contour>
    </TTGlyph>
    <TTGlyph name="N" xMin="53" yMin="-18" xMax="1748" yMax="1445">
      <contour>
        <pt x="566" y="562" on="1"/>
        <pt x="568" y="618" on="0"/>
        <pt x="511" y="645" on="0"/>
        <pt x="419" y="624" on="1"/>
        <pt x="277" y="589" on="0"/>
        <pt x="53" y="784" on="0"/>
        <pt x="53" y="976" on="1"/>
        <pt x="54" y="1179" on="0"/>
        <pt x="305" y="1444" on="0"/>
        <pt x="522" y="1445" on="1"/>
        <pt x="629" y="1445" on="0"/>
        <pt x="870" y="1313" on="0"/>
        <pt x="954" y="1187" on="1"/>
        <pt x="959" y="1180" on="0"/>
        <pt x="969" y="1180" on="1"/>
        <pt x="980" y="1181" on="0"/>
        <pt x="983" y="1190" on="1"/>
        <pt x="1022" y="1282" on="0"/>
        <pt x="1180" y="1437" on="0"/>
        <pt x="1281" y="1437" on="1"/>
        <pt x="1441" y="1437" on="0"/>
        <pt x="1576" y="1287" on="0"/>
        <pt x="1619" y="1118" on="1"/>
        <pt x="1643" y="1001" on="0"/>
        <pt x="1712" y="993" on="1"/>
        <pt x="1733" y="992" on="0"/>
        <pt x="1736" y="960" on="0"/>
        <pt x="1711" y="951" on="1"/>
        <pt x="1518" y="885" on="0"/>
        <pt x="1376" y="595" on="0"/>
        <pt x="1457" y="370" on="1"/>
        <pt x="1494" y="268" on="0"/>
        <pt x="1627" y="185" on="0"/>
        <pt x="1705" y="233" on="1"/>
        <pt x="1734" y="251" on="0"/>
        <pt x="1762" y="217" on="0"/>
        <pt x="1742" y="199" on="1"/>
        <pt x="1676" y="145" on="0"/>
        <pt x="1543" y="37" on="0"/>
        <pt x="1477" y="-17" on="1"/>
        <pt x="1467" y="-25" on="0"/>
        <pt x="1456" y="-17" on="1"/>
        <pt x="1227" y="152" on="0"/>
        <pt x="1158" y="572" on="0"/>
        <pt x="1462" y="859" on="1"/>
        <pt x="1471" y="867" on="0"/>
        <pt x="1469" y="880" on="0"/>
        <pt x="1461" y="885" on="1"/>
        <pt x="1390" y="929" on="0"/>
        <pt x="1352" y="1127" on="1"/>
        <pt x="1332" y="1225" on="0"/>
        <pt x="1255" y="1292" on="0"/>
        <pt x="1181" y="1292" on="1"/>
        <pt x="1121" y="1292" on="0"/>
        <pt x="1028" y="1188" on="0"/>
        <pt x="1003" y="1113" on="1"/>
        <pt x="1001" y="1105" on="0"/>
        <pt x="1004" y="1100" on="1"/>
        <pt x="1063" y="973" on="0"/>
        <pt x="1069" y="825" on="1"/>
        <pt x="1075" y="647" on="0"/>
        <pt x="933" y="304" on="0"/>
        <pt x="811" y="163" on="1"/>
        <pt x="678" y="6" on="0"/>
        <pt x="447" y="-42" on="0"/>
        <pt x="351" y="99" on="1"/>
        <pt x="267" y="225" on="0"/>
        <pt x="180" y="130" on="1"/>
        <pt x="158" y="109" on="0"/>
        <pt x="126" y="146" on="0"/>
        <pt x="147" y="168" on="1"/>
        <pt x="420" y="446" on="0"/>
        <pt x="576" y="241" on="1"/>
        <pt x="601" y="207" on="0"/>
        <pt x="646" y="149" on="0"/>
        <pt x="691" y="152" on="1"/>
        <pt x="749" y="153" on="0"/>
        <pt x="877" y="403" on="0"/>
        <pt x="877" y="593" on="1"/>
        <pt x="875" y="842" on="0"/>
        <pt x="619" y="1217" on="0"/>
        <pt x="454" y="1234" on="1"/>
        <pt x="289" y="1252" on="0"/>
        <pt x="99" y="1095" on="0"/>
        <pt x="102" y="986" on="1"/>
        <pt x="105" y="876" on="0"/>
        <pt x="216" y="744" on="0"/>
        <pt x="366" y="783" on="1"/>
        <pt x="655" y="857" on="0"/>
        <pt x="617" y="570" on="1"/>
        <pt x="611" y="533" on="0"/>
        <pt x="565" y="537" on="0"/>
      </contour>
    </TTGlyph>
    <TTGlyph name="Ntilde" xMin="53" yMin="-18" xMax="1748" yMax="1746">
      <component glyphName="N" x="0" y="0" flags="0x1204"/>
      <component glyphName="tilde" x="414" y="364" flags="0x1004"/>
    </TTGlyph>
    <TTGlyph name="O" xMin="54" yMin="-13" xMax="1454" yMax="1467">
      <contour>
        <pt x="61" y="239" on="1"/>
        <pt x="280" y="413" on="0"/>
        <pt x="448" y="401" on="0"/>
        <pt x="655" y="249" on="1"/>
        <pt x="859" y="99" on="0"/>
        <pt x="1155" y="139" on="0"/>
        <pt x="1254" y="278" on="1"/>
        <pt x="1346" y="409" on="0"/>
        <pt x="1259" y="884" on="0"/>
        <pt x="1019" y="1056" on="1"/>
        <pt x="850" y="1176" on="0"/>
        <pt x="498" y="1240" on="0"/>
        <pt x="351" y="1150" on="1"/>
        <pt x="258" y="1093" on="0"/>
        <pt x="284" y="888" on="0"/>
        <pt x="430" y="834" on="1"/>
        <pt x="703" y="734" on="0"/>
        <pt x="729" y="513" on="0"/>
        <pt x="565" y="378" on="1"/>
        <pt x="546" y="362" on="0"/>
        <pt x="522" y="383" on="0"/>
        <pt x="536" y="399" on="1"/>
        <pt x="586" y="456" on="0"/>
        <pt x="486" y="531" on="0"/>
        <pt x="315" y="597" on="1"/>
        <pt x="62" y="693" on="0"/>
        <pt x="74" y="1064" on="0"/>
        <pt x="305" y="1185" on="1"/>
        <pt x="450" y="1253" on="0"/>
        <pt x="638" y="1369" on="0"/>
        <pt x="687" y="1459" on="1"/>
        <pt x="692" y="1468" on="0"/>
        <pt x="704" y="1467" on="1"/>
        <pt x="944" y="1436" on="0"/>
        <pt x="1337" y="1168" on="0"/>
        <pt x="1416" y="964" on="1"/>
        <pt x="1495" y="757" on="0"/>
        <pt x="1412" y="373" on="0"/>
        <pt x="1290" y="242" on="1"/>
        <pt x="1086" y="21" on="0"/>
        <pt x="638" y="-47" on="0"/>
        <pt x="416" y="94" on="1"/>
        <pt x="317" y="156" on="0"/>
        <pt x="152" y="253" on="0"/>
        <pt x="80" y="208" on="1"/>
        <pt x="65" y="199" on="0"/>
        <pt x="44" y="224" on="0"/>
      </contour>
    </TTGlyph>
    <TTGlyph name="OE" xMin="54" yMin="-25" xMax="2235" yMax="1487">
      <contour>
        <pt x="1666" y="1256" on="1"/>
        <pt x="1647" y="1246" on="0"/>
        <pt x="1628" y="1231" on="1"/>
        <pt x="1546" y="1167" on="0"/>
        <pt x="1545" y="1105" on="1"/>
        <pt x="1542" y="1027" on="0"/>
        <pt x="1668" y="918" on="1"/>
        <pt x="1720" y="872" on="0"/>
        <pt x="1752" y="842" on="1"/>
        <pt x="1759" y="836" on="0"/>
        <pt x="1771" y="838" on="0"/>
        <pt x="1776" y="844" on="1"/>
        <pt x="1800" y="874" on="0"/>
        <pt x="1840" y="921" on="1"/>
        <pt x="1896" y="987" on="0"/>
        <pt x="2002" y="973" on="0"/>
        <pt x="2054" y="934" on="1"/>
        <pt x="2144" y="863" on="0"/>
        <pt x="2193" y="894" on="1"/>
        <pt x="2219" y="911" on="0"/>
        <pt x="2250" y="882" on="0"/>
        <pt x="2232" y="855" on="1"/>
        <pt x="2207" y="821" on="0"/>
        <pt x="2156" y="753" on="0"/>
        <pt x="2122" y="724" on="1"/>
        <pt x="2052" y="663" on="0"/>
        <pt x="1969" y="735" on="1"/>
        <pt x="1879" y="808" on="0"/>
        <pt x="1831" y="798" on="1"/>
        <pt x="1822" y="796" on="0"/>
        <pt x="1819" y="787" on="1"/>
        <pt x="1816" y="778" on="0"/>
        <pt x="1823" y="771" on="1"/>
        <pt x="1935" y="648" on="0"/>
        <pt x="1944" y="556" on="1"/>
        <pt x="1954" y="428" on="0"/>
        <pt x="1614" y="242" on="1"/>
        <pt x="1590" y="229" on="0"/>
        <pt x="1567" y="259" on="0"/>
        <pt x="1587" y="277" on="1"/>
        <pt x="1703" y="363" on="0"/>
        <pt x="1706" y="424" on="1"/>
        <pt x="1709" y="465" on="0"/>
        <pt x="1628" y="577" on="0"/>
        <pt x="1526" y="670" on="1"/>
        <pt x="1319" y="858" on="0"/>
        <pt x="1321" y="982" on="1"/>
        <pt x="1321" y="1096" on="0"/>
        <pt x="1493" y="1203" on="1"/>
        <pt x="1499" y="1206" on="0"/>
        <pt x="1585" y="1257" on="0"/>
        <pt x="1604" y="1271" on="1"/>
        <pt x="1613" y="1279" on="0"/>
        <pt x="1611" y="1289" on="1"/>
        <pt x="1582" y="1426" on="0"/>
        <pt x="1439" y="1426" on="1"/>
        <pt x="1296" y="1426" on="0"/>
        <pt x="1218" y="1248" on="1"/>
        <pt x="1189" y="1183" on="0"/>
        <pt x="1176" y="1101" on="1"/>
        <pt x="1174" y="1029" on="0"/>
        <pt x="1164" y="931" on="1"/>
        <pt x="1165" y="853" on="0"/>
        <pt x="1175" y="764" on="1"/>
        <pt x="1211" y="458" on="0"/>
        <pt x="1611" y="128" on="0"/>
        <pt x="1868" y="128" on="1"/>
        <pt x="2010" y="128" on="0"/>
        <pt x="2166" y="204" on="1"/>
        <pt x="2191" y="215" on="0"/>
        <pt x="2212" y="183" on="0"/>
        <pt x="2190" y="164" on="1"/>
        <pt x="1951" y="-25" on="0"/>
        <pt x="1644" y="-25" on="1"/>
        <pt x="1381" y="-25" on="0"/>
        <pt x="1197" y="151" on="1"/>
        <pt x="1035" y="13" on="0"/>
        <pt x="862" y="-13" on="1"/>
        <pt x="638" y="-47" on="0"/>
        <pt x="416" y="94" on="1"/>
        <pt x="317" y="156" on="0"/>
        <pt x="152" y="253" on="0"/>
        <pt x="80" y="208" on="1"/>
        <pt x="65" y="199" on="0"/>
        <pt x="44" y="224" on="0"/>
        <pt x="61" y="239" on="1"/>
        <pt x="280" y="413" on="0"/>
        <pt x="448" y="401" on="0"/>
        <pt x="655" y="249" on="1"/>
        <pt x="859" y="99" on="0"/>
        <pt x="1007" y="119" on="1"/>
        <pt x="1094" y="131" on="0"/>
        <pt x="1165" y="184" on="1"/>
        <pt x="1151" y="200" on="0"/>
        <pt x="1137" y="216" on="1"/>
        <pt x="937" y="458" on="0"/>
        <pt x="922" y="689" on="1"/>
        <pt x="908" y="912" on="0"/>
        <pt x="969" y="1089" on="1"/>
        <pt x="824" y="1180" on="0"/>
        <pt x="674" y="1208" on="1"/>
        <pt x="498" y="1240" on="0"/>
        <pt x="351" y="1150" on="1"/>
        <pt x="258" y="1093" on="0"/>
        <pt x="284" y="888" on="0"/>
        <pt x="430" y="834" on="1"/>
        <pt x="703" y="734" on="0"/>
        <pt x="729" y="513" on="0"/>
        <pt x="565" y="378" on="1"/>
        <pt x="546" y="362" on="0"/>
        <pt x="522" y="383" on="0"/>
        <pt x="536" y="399" on="1"/>
        <pt x="586" y="456" on="0"/>
        <pt x="486" y="531" on="0"/>
        <pt x="315" y="597" on="1"/>
        <pt x="62" y="693" on="0"/>
        <pt x="74" y="1064" on="0"/>
        <pt x="305" y="1185" on="1"/>
        <pt x="450" y="1253" on="0"/>
        <pt x="638" y="1369" on="0"/>
        <pt x="687" y="1459" on="1"/>
        <pt x="692" y="1468" on="0"/>
        <pt x="704" y="1467" on="1"/>
        <pt x="920" y="1439" on="0"/>
        <pt x="1101" y="1327" on="1"/>
        <pt x="1235" y="1487" on="0"/>
        <pt x="1423" y="1487" on="1"/>
        <pt x="1515" y="1487" on="0"/>
        <pt x="1626" y="1394" on="0"/>
        <pt x="1647" y="1329" on="1"/>
        <pt x="1650" y="1320" on="0"/>
        <pt x="1657" y="1319" on="1"/>
        <pt x="1662" y="1317" on="0"/>
        <pt x="1668" y="1318" on="1"/>
        <pt x="1672" y="1320" on="1"/>
        <pt x="1760" y="1385" on="0"/>
        <pt x="1835" y="1463" on="1"/>
        <pt x="1868" y="1488" on="0"/>
        <pt x="1953" y="1443" on="0"/>
        <pt x="1989" y="1425" on="1"/>
        <pt x="2022" y="1406" on="0"/>
        <pt x="2122" y="1354" on="0"/>
        <pt x="2172" y="1377" on="1"/>
        <pt x="2195" y="1392" on="0"/>
        <pt x="2219" y="1367" on="0"/>
        <pt x="2204" y="1350" on="1"/>
        <pt x="2153" y="1300" on="0"/>
        <pt x="2065" y="1221" on="0"/>
        <pt x="2023" y="1183" on="1"/>
        <pt x="2013" y="1175" on="0"/>
        <pt x="1986" y="1176" on="0"/>
        <pt x="1964" y="1188" on="1"/>
        <pt x="1791" y="1272" on="0"/>
        <pt x="1725" y="1272" on="1"/>
        <pt x="1696" y="1271" on="0"/>
      </contour>
    </TTGlyph>
    <TTGlyph name="Oacute" xMin="54" yMin="-13" xMax="1454" yMax="1801">
      <component glyphName="O" x="0" y="0" flags="0x1204"/>
      <component glyphName="acute" x="45" y="368" flags="0x1004"/>
    </TTGlyph>
    <TTGlyph name="Ocircumflex" xMin="54" yMin="-13" xMax="1454" yMax="1810">
      <component glyphName="O" x="0" y="0" flags="0x1204"/>
      <component glyphName="circumflex" x="343" y="364" flags="0x1004"/>
    </TTGlyph>
    <TTGlyph name="Odieresis" xMin="54" yMin="-13" xMax="1454" yMax="1815">
      <contour>
        <pt x="570" y="1815" on="1"/>
        <pt x="681" y="1815" on="0"/>
        <pt x="671" y="1708" on="1"/>
        <pt x="665" y="1654" on="0"/>
        <pt x="542" y="1545" on="0"/>
        <pt x="506" y="1546" on="1"/>
        <pt x="470" y="1546" on="0"/>
        <pt x="432" y="1660" on="0"/>
        <pt x="436" y="1708" on="1"/>
        <pt x="439" y="1754" on="0"/>
        <pt x="522" y="1815" on="0"/>
      </contour>
      <contour>
        <pt x="1000" y="1815" on="1"/>
        <pt x="1111" y="1815" on="0"/>
        <pt x="1101" y="1708" on="1"/>
        <pt x="1095" y="1654" on="0"/>
        <pt x="972" y="1545" on="0"/>
        <pt x="936" y="1546" on="1"/>
        <pt x="900" y="1546" on="0"/>
        <pt x="862" y="1660" on="0"/>
        <pt x="866" y="1708" on="1"/>
        <pt x="869" y="1754" on="0"/>
        <pt x="952" y="1815" on="0"/>
      </contour>
      <contour>
        <pt x="61" y="239" on="1"/>
        <pt x="280" y="413" on="0"/>
        <pt x="448" y="401" on="0"/>
        <pt x="655" y="249" on="1"/>
        <pt x="859" y="99" on="0"/>
        <pt x="1155" y="139" on="0"/>
        <pt x="1254" y="278" on="1"/>
        <pt x="1346" y="409" on="0"/>
        <pt x="1259" y="884" on="0"/>
        <pt x="1019" y="1056" on="1"/>
        <pt x="850" y="1176" on="0"/>
        <pt x="498" y="1240" on="0"/>
        <pt x="351" y="1150" on="1"/>
        <pt x="258" y="1093" on="0"/>
        <pt x="284" y="888" on="0"/>
        <pt x="430" y="834" on="1"/>
        <pt x="703" y="734" on="0"/>
        <pt x="729" y="513" on="0"/>
        <pt x="565" y="378" on="1"/>
        <pt x="546" y="362" on="0"/>
        <pt x="522" y="383" on="0"/>
        <pt x="536" y="399" on="1"/>
        <pt x="586" y="456" on="0"/>
        <pt x="486" y="531" on="0"/>
        <pt x="315" y="597" on="1"/>
        <pt x="62" y="693" on="0"/>
        <pt x="74" y="1064" on="0"/>
        <pt x="305" y="1185" on="1"/>
        <pt x="450" y="1253" on="0"/>
        <pt x="638" y="1369" on="0"/>
        <pt x="687" y="1459" on="1"/>
        <pt x="692" y="1468" on="0"/>
        <pt x="704" y="1467" on="1"/>
        <pt x="944" y="1436" on="0"/>
        <pt x="1337" y="1168" on="0"/>
        <pt x="1416" y="964" on="1"/>
        <pt x="1495" y="757" on="0"/>
        <pt x="1412" y="373" on="0"/>
        <pt x="1290" y="242" on="1"/>
        <pt x="1086" y="21" on="0"/>
        <pt x="638" y="-47" on="0"/>
        <pt x="416" y="94" on="1"/>
        <pt x="317" y="156" on="0"/>
        <pt x="152" y="253" on="0"/>
        <pt x="80" y="208" on="1"/>
        <pt x="65" y="199" on="0"/>
        <pt x="44" y="224" on="0"/>
      </contour>
    </TTGlyph>
    <TTGlyph name="Ograve" xMin="54" yMin="-13" xMax="1454" yMax="1804">
      <component glyphName="O" x="0" y="0" flags="0x1204"/>
      <component glyphName="grave" x="539" y="370" flags="0x1004"/>
    </TTGlyph>
    <TTGlyph name="Oslash" xMin="54" yMin="-79" xMax="1454" yMax="1525">
      <contour>
        <pt x="1217" y="1525" on="1"/>
        <pt x="1251" y="1505" on="1"/>
        <pt x="1264" y="1495" on="0"/>
        <pt x="1256" y="1482" on="1"/>
        <pt x="1148" y="1297" on="1"/>
        <pt x="1338" y="1164" on="0"/>
        <pt x="1416" y="964" on="1"/>
        <pt x="1495" y="757" on="0"/>
        <pt x="1412" y="373" on="0"/>
        <pt x="1290" y="242" on="1"/>
        <pt x="1086" y="21" on="0"/>
        <pt x="862" y="-13" on="1"/>
        <pt x="649" y="-45" on="0"/>
        <pt x="438" y="80" on="1"/>
        <pt x="349" y="-72" on="1"/>
        <pt x="341" y="-87" on="0"/>
        <pt x="327" y="-79" on="1"/>
        <pt x="293" y="-59" on="1"/>
        <pt x="279" y="-52" on="0"/>
        <pt x="287" y="-36" on="1"/>
        <pt x="377" y="118" on="1"/>
        <pt x="300" y="165" on="0"/>
        <pt x="234" y="204" on="1"/>
        <pt x="152" y="253" on="0"/>
        <pt x="80" y="208" on="1"/>
        <pt x="65" y="199" on="0"/>
        <pt x="44" y="224" on="0"/>
        <pt x="61" y="239" on="1"/>
        <pt x="280" y="413" on="0"/>
        <pt x="364" y="407" on="1"/>
        <pt x="414" y="403" on="0"/>
        <pt x="510" y="346" on="1"/>
        <pt x="529" y="379" on="1"/>
        <pt x="526" y="388" on="0"/>
        <pt x="536" y="399" on="1"/>
        <pt x="586" y="456" on="0"/>
        <pt x="486" y="531" on="0"/>
        <pt x="315" y="597" on="1"/>
        <pt x="62" y="693" on="0"/>
        <pt x="74" y="1064" on="0"/>
        <pt x="305" y="1185" on="1"/>
        <pt x="450" y="1253" on="0"/>
        <pt x="638" y="1369" on="0"/>
        <pt x="687" y="1459" on="1"/>
        <pt x="692" y="1468" on="0"/>
        <pt x="704" y="1467" on="1"/>
        <pt x="912" y="1440" on="0"/>
        <pt x="1087" y="1336" on="1"/>
        <pt x="1194" y="1519" on="1"/>
        <pt x="1200" y="1532" on="0"/>
      </contour>
      <contour>
        <pt x="655" y="249" on="1"/>
        <pt x="859" y="99" on="0"/>
        <pt x="1155" y="139" on="0"/>
        <pt x="1254" y="278" on="1"/>
        <pt x="1346" y="409" on="0"/>
        <pt x="1259" y="884" on="0"/>
        <pt x="1019" y="1056" on="1"/>
        <pt x="1011" y="1062" on="1"/>
        <pt x="571" y="308" on="1"/>
        <pt x="610" y="282" on="0"/>
      </contour>
      <contour>
        <pt x="674" y="1208" on="1"/>
        <pt x="498" y="1240" on="0"/>
        <pt x="351" y="1150" on="1"/>
        <pt x="258" y="1093" on="0"/>
        <pt x="284" y="888" on="0"/>
        <pt x="430" y="834" on="1"/>
        <pt x="644" y="755" on="0"/>
        <pt x="698" y="670" on="1"/>
        <pt x="950" y="1101" on="1"/>
        <pt x="814" y="1182" on="0"/>
      </contour>
    </TTGlyph>
    <TTGlyph name="Otilde" xMin="54" yMin="-13" xMax="1454" yMax="1746">
      <component glyphName="O" x="0" y="0" flags="0x1204"/>
      <component glyphName="tilde" x="282" y="364" flags="0x1004"/>
    </TTGlyph>
    <TTGlyph name="P" xMin="31" yMin="-336" xMax="1771" yMax="1435">
      <contour>
        <pt x="575" y="751" on="1"/>
        <pt x="596" y="768" on="0"/>
        <pt x="626" y="738" on="0"/>
        <pt x="600" y="711" on="1"/>
        <pt x="560" y="675" on="0"/>
        <pt x="456" y="652" on="0"/>
        <pt x="403" y="651" on="1"/>
        <pt x="243" y="647" on="0"/>
        <pt x="31" y="846" on="0"/>
        <pt x="31" y="1189" on="0"/>
        <pt x="297" y="1435" on="0"/>
        <pt x="525" y="1435" on="1"/>
        <pt x="663" y="1432" on="0"/>
        <pt x="851" y="1300" on="0"/>
        <pt x="904" y="1210" on="1"/>
        <pt x="911" y="1196" on="0"/>
        <pt x="925" y="1204" on="1"/>
        <pt x="1358" y="1429" on="1"/>
        <pt x="1387" y="1442" on="0"/>
        <pt x="1413" y="1409" on="0"/>
        <pt x="1393" y="1393" on="1"/>
        <pt x="1322" y="1342" on="0"/>
        <pt x="1427" y="1161" on="0"/>
        <pt x="1546" y="1065" on="1"/>
        <pt x="1783" y="869" on="0"/>
        <pt x="1758" y="463" on="0"/>
        <pt x="1623" y="277" on="1"/>
        <pt x="1469" y="68" on="0"/>
        <pt x="1169" y="-69" on="0"/>
        <pt x="962" y="46" on="1"/>
        <pt x="954" y="51" on="0"/>
        <pt x="939" y="43" on="0"/>
        <pt x="938" y="35" on="1"/>
        <pt x="923" y="-91" on="0"/>
        <pt x="850" y="-261" on="0"/>
        <pt x="775" y="-332" on="1"/>
        <pt x="761" y="-345" on="0"/>
        <pt x="737" y="-327" on="0"/>
        <pt x="747" y="-310" on="1"/>
        <pt x="824" y="-149" on="0"/>
        <pt x="798" y="121" on="1"/>
        <pt x="798" y="130" on="0"/>
        <pt x="788" y="134" on="1"/>
        <pt x="588" y="212" on="0"/>
        <pt x="489" y="116" on="1"/>
        <pt x="472" y="99" on="0"/>
        <pt x="441" y="122" on="0"/>
        <pt x="455" y="141" on="1"/>
        <pt x="611" y="344" on="0"/>
        <pt x="759" y="356" on="1"/>
        <pt x="767" y="357" on="0"/>
        <pt x="774" y="365" on="0"/>
        <pt x="774" y="374" on="1"/>
        <pt x="762" y="503" on="0"/>
        <pt x="737" y="760" on="0"/>
        <pt x="725" y="889" on="1"/>
        <pt x="710" y="1035" on="0"/>
        <pt x="542" y="1248" on="0"/>
        <pt x="417" y="1250" on="1"/>
        <pt x="283" y="1257" on="0"/>
        <pt x="99" y="1112" on="0"/>
        <pt x="99" y="850" on="0"/>
        <pt x="268" y="698" on="0"/>
        <pt x="409" y="698" on="1"/>
        <pt x="510" y="696" on="0"/>
      </contour>
      <contour>
        <pt x="938" y="1137" on="1"/>
        <pt x="955" y="1091" on="0"/>
        <pt x="968" y="999" on="0"/>
        <pt x="970" y="958" on="1"/>
        <pt x="976" y="745" on="0"/>
        <pt x="959" y="449" on="0"/>
        <pt x="956" y="326" on="1"/>
        <pt x="956" y="314" on="0"/>
        <pt x="965" y="311" on="1"/>
        <pt x="1014" y="289" on="0"/>
        <pt x="1072" y="255" on="1"/>
        <pt x="1275" y="138" on="0"/>
        <pt x="1514" y="186" on="0"/>
        <pt x="1586" y="300" on="1"/>
        <pt x="1744" y="550" on="0"/>
        <pt x="1389" y="837" on="1"/>
        <pt x="1268" y="933" on="0"/>
        <pt x="1103" y="1111" on="0"/>
        <pt x="1097" y="1209" on="1"/>
        <pt x="1097" y="1221" on="0"/>
        <pt x="1081" y="1227" on="0"/>
        <pt x="1073" y="1223" on="1"/>
        <pt x="946" y="1157" on="1"/>
        <pt x="932" y="1150" on="0"/>
      </contour>
    </TTGlyph>
    <TTGlyph name="Q" xMin="53" yMin="12" xMax="1573" yMax="1469">
      <contour>
        <pt x="59" y="239" on="1"/>
        <pt x="278" y="413" on="0"/>
        <pt x="446" y="402" on="0"/>
        <pt x="653" y="251" on="1"/>
        <pt x="913" y="60" on="0"/>
        <pt x="1100" y="145" on="1"/>
        <pt x="1110" y="149" on="0"/>
        <pt x="1109" y="167" on="0"/>
        <pt x="1104" y="171" on="1"/>
        <pt x="1056" y="225" on="0"/>
        <pt x="951" y="260" on="0"/>
        <pt x="885" y="217" on="1"/>
        <pt x="861" y="203" on="0"/>
        <pt x="835" y="229" on="0"/>
        <pt x="854" y="246" on="1"/>
        <pt x="1008" y="392" on="0"/>
        <pt x="1174" y="417" on="0"/>
        <pt x="1255" y="328" on="1"/>
        <pt x="1261" y="321" on="0"/>
        <pt x="1278" y="324" on="0"/>
        <pt x="1283" y="333" on="1"/>
        <pt x="1345" y="474" on="0"/>
        <pt x="1235" y="901" on="0"/>
        <pt x="1017" y="1058" on="1"/>
        <pt x="848" y="1178" on="0"/>
        <pt x="496" y="1242" on="0"/>
        <pt x="349" y="1152" on="1"/>
        <pt x="256" y="1094" on="0"/>
        <pt x="282" y="888" on="0"/>
        <pt x="428" y="835" on="1"/>
        <pt x="701" y="735" on="0"/>
        <pt x="727" y="514" on="0"/>
        <pt x="563" y="379" on="1"/>
        <pt x="546" y="363" on="0"/>
        <pt x="521" y="384" on="0"/>
        <pt x="534" y="401" on="1"/>
        <pt x="584" y="457" on="0"/>
        <pt x="484" y="532" on="0"/>
        <pt x="313" y="598" on="1"/>
        <pt x="60" y="694" on="0"/>
        <pt x="72" y="1065" on="0"/>
        <pt x="303" y="1186" on="1"/>
        <pt x="451" y="1263" on="0"/>
        <pt x="636" y="1371" on="0"/>
        <pt x="685" y="1461" on="1"/>
        <pt x="692" y="1470" on="0"/>
        <pt x="702" y="1469" on="1"/>
        <pt x="942" y="1437" on="0"/>
        <pt x="1335" y="1169" on="0"/>
        <pt x="1414" y="966" on="1"/>
        <pt x="1489" y="772" on="0"/>
        <pt x="1423" y="408" on="0"/>
        <pt x="1317" y="277" on="1"/>
        <pt x="1308" y="264" on="0"/>
        <pt x="1318" y="255" on="1"/>
        <pt x="1390" y="180" on="0"/>
        <pt x="1490" y="194" on="0"/>
        <pt x="1535" y="251" on="1"/>
        <pt x="1550" y="272" on="0"/>
        <pt x="1591" y="248" on="0"/>
        <pt x="1573" y="220" on="1"/>
        <pt x="1475" y="76" on="0"/>
        <pt x="1295" y="-52" on="0"/>
        <pt x="1159" y="105" on="1"/>
        <pt x="1148" y="115" on="0"/>
        <pt x="1137" y="108" on="1"/>
        <pt x="787" y="-142" on="0"/>
        <pt x="414" y="94" on="1"/>
        <pt x="315" y="157" on="0"/>
        <pt x="150" y="254" on="0"/>
        <pt x="78" y="210" on="1"/>
        <pt x="63" y="200" on="0"/>
        <pt x="43" y="225" on="0"/>
      </contour>
    </TTGlyph>
    <TTGlyph name="R" xMin="48" yMin="-30" xMax="1846" yMax="1413">
      <contour>
        <pt x="226" y="142" on="1"/>
        <pt x="209" y="128" on="0"/>
        <pt x="187" y="153" on="0"/>
        <pt x="204" y="171" on="1"/>
        <pt x="361" y="337" on="0"/>
        <pt x="536" y="326" on="0"/>
        <pt x="591" y="254" on="1"/>
        <pt x="660" y="161" on="0"/>
        <pt x="759" y="136" on="0"/>
        <pt x="800" y="185" on="1"/>
        <pt x="873" y="273" on="0"/>
        <pt x="911" y="519" on="0"/>
        <pt x="905" y="659" on="1"/>
        <pt x="898" y="827" on="0"/>
        <pt x="765" y="1107" on="0"/>
        <pt x="605" y="1181" on="1"/>
        <pt x="414" y="1268" on="0"/>
        <pt x="129" y="1099" on="0"/>
        <pt x="131" y="926" on="1"/>
        <pt x="131" y="807" on="0"/>
        <pt x="275" y="637" on="0"/>
        <pt x="405" y="621" on="1"/>
        <pt x="540" y="604" on="0"/>
        <pt x="653" y="684" on="1"/>
        <pt x="667" y="693" on="0"/>
        <pt x="683" y="670" on="0"/>
        <pt x="664" y="652" on="1"/>
        <pt x="551" y="563" on="0"/>
        <pt x="393" y="573" on="1"/>
        <pt x="241" y="583" on="0"/>
        <pt x="52" y="775" on="0"/>
        <pt x="48" y="931" on="1"/>
        <pt x="52" y="1215" on="0"/>
        <pt x="469" y="1481" on="0"/>
        <pt x="707" y="1413" on="1"/>
        <pt x="882" y="1361" on="0"/>
        <pt x="990" y="1176" on="1"/>
        <pt x="996" y="1165" on="0"/>
        <pt x="1015" y="1165" on="0"/>
        <pt x="1020" y="1180" on="1"/>
        <pt x="1061" y="1316" on="0"/>
        <pt x="1317" y="1474" on="0"/>
        <pt x="1617" y="1322" on="0"/>
        <pt x="1670" y="1144" on="1"/>
        <pt x="1716" y="1006" on="0"/>
        <pt x="1759" y="1024" on="1"/>
        <pt x="1780" y="1032" on="0"/>
        <pt x="1801" y="1001" on="0"/>
        <pt x="1774" y="985" on="1"/>
        <pt x="1425" y="780" on="1"/>
        <pt x="1417" y="776" on="0"/>
        <pt x="1417" y="768" on="1"/>
        <pt x="1415" y="760" on="0"/>
        <pt x="1421" y="754" on="1"/>
        <pt x="1554" y="636" on="0"/>
        <pt x="1582" y="457" on="1"/>
        <pt x="1626" y="281" on="0"/>
        <pt x="1740" y="135" on="0"/>
        <pt x="1812" y="195" on="1"/>
        <pt x="1832" y="211" on="0"/>
        <pt x="1860" y="177" on="0"/>
        <pt x="1835" y="158" on="1"/>
        <pt x="1771" y="112" on="0"/>
        <pt x="1645" y="17" on="0"/>
        <pt x="1582" y="-28" on="1"/>
        <pt x="1576" y="-33" on="0"/>
        <pt x="1566" y="-30" on="1"/>
        <pt x="1395" y="31" on="0"/>
        <pt x="1323" y="350" on="1"/>
        <pt x="1294" y="492" on="0"/>
        <pt x="1220" y="640" on="0"/>
        <pt x="1153" y="624" on="1"/>
        <pt x="1128" y="617" on="0"/>
        <pt x="1121" y="646" on="0"/>
        <pt x="1144" y="659" on="1"/>
        <pt x="1519" y="893" on="1"/>
        <pt x="1525" y="897" on="0"/>
        <pt x="1527" y="906" on="1"/>
        <pt x="1527" y="911" on="0"/>
        <pt x="1522" y="920" on="1"/>
        <pt x="1475" y="962" on="0"/>
        <pt x="1397" y="1054" on="0"/>
        <pt x="1384" y="1114" on="1"/>
        <pt x="1360" y="1222" on="0"/>
        <pt x="1218" y="1316" on="0"/>
        <pt x="1144" y="1277" on="1"/>
        <pt x="1072" y="1239" on="0"/>
        <pt x="1045" y="1069" on="0"/>
        <pt x="1063" y="997" on="1"/>
        <pt x="1107" y="820" on="0"/>
        <pt x="1084" y="630" on="1"/>
        <pt x="1065" y="484" on="0"/>
        <pt x="918" y="233" on="0"/>
        <pt x="672" y="-29" on="0"/>
        <pt x="464" y="-13" on="0"/>
        <pt x="397" y="75" on="1"/>
        <pt x="341" y="149" on="0"/>
        <pt x="256" y="166" on="0"/>
      </contour>
    </TTGlyph>
    <TTGlyph name="S" xMin="56" yMin="-23" xMax="1477" yMax="1455">
      <contour>
        <pt x="1382" y="1348" on="1"/>
        <pt x="1405" y="1376" on="0"/>
        <pt x="1452" y="1339" on="0"/>
        <pt x="1425" y="1313" on="1"/>
        <pt x="1349" y="1241" on="0"/>
        <pt x="1248" y="1148" on="0"/>
        <pt x="1205" y="1124" on="1"/>
        <pt x="1127" y="1079" on="0"/>
        <pt x="978" y="1116" on="0"/>
        <pt x="842" y="1185" on="1"/>
        <pt x="700" y="1257" on="0"/>
        <pt x="468" y="1268" on="0"/>
        <pt x="367" y="1171" on="1"/>
        <pt x="268" y="1076" on="0"/>
        <pt x="209" y="885" on="0"/>
        <pt x="212" y="783" on="1"/>
        <pt x="219" y="543" on="0"/>
        <pt x="632" y="220" on="0"/>
        <pt x="936" y="228" on="1"/>
        <pt x="1149" y="232" on="0"/>
        <pt x="1457" y="416" on="0"/>
        <pt x="1432" y="599" on="1"/>
        <pt x="1411" y="744" on="0"/>
        <pt x="1153" y="763" on="0"/>
        <pt x="996" y="663" on="1"/>
        <pt x="790" y="532" on="0"/>
        <pt x="604" y="562" on="0"/>
        <pt x="439" y="789" on="1"/>
        <pt x="419" y="815" on="0"/>
        <pt x="457" y="837" on="0"/>
        <pt x="475" y="810" on="1"/>
        <pt x="535" y="721" on="0"/>
        <pt x="724" y="792" on="0"/>
        <pt x="838" y="858" on="1"/>
        <pt x="915" y="901" on="0"/>
        <pt x="1051" y="972" on="0"/>
        <pt x="1156" y="947" on="1"/>
        <pt x="1256" y="922" on="0"/>
        <pt x="1447" y="758" on="0"/>
        <pt x="1477" y="632" on="1"/>
        <pt x="1502" y="522" on="0"/>
        <pt x="1444" y="342" on="0"/>
        <pt x="1396" y="270" on="1"/>
        <pt x="1307" y="135" on="0"/>
        <pt x="1006" y="-23" on="0"/>
        <pt x="813" y="-23" on="1"/>
        <pt x="528" y="-23" on="0"/>
        <pt x="50" y="359" on="0"/>
        <pt x="56" y="696" on="1"/>
        <pt x="64" y="1173" on="0"/>
        <pt x="770" y="1455" on="1"/>
        <pt x="804" y="1469" on="0"/>
        <pt x="841" y="1451" on="1"/>
        <pt x="1151" y="1298" on="0"/>
        <pt x="1348" y="1304" on="0"/>
      </contour>
    </TTGlyph>
    <TTGlyph name="Scaron" xMin="56" yMin="-23" xMax="1477" yMax="1865">
      <contour>
        <pt x="564" y="1830" on="1"/>
        <pt x="564" y="1855" on="1"/>
        <pt x="564" y="1863" on="0"/>
        <pt x="569" y="1865" on="1"/>
        <pt x="575" y="1867" on="0"/>
        <pt x="580" y="1863" on="1"/>
        <pt x="800" y="1679" on="1"/>
        <pt x="807" y="1671" on="0"/>
        <pt x="813" y="1679" on="1"/>
        <pt x="1032" y="1863" on="1"/>
        <pt x="1038" y="1867" on="0"/>
        <pt x="1043" y="1865" on="1"/>
        <pt x="1049" y="1863" on="0"/>
        <pt x="1049" y="1855" on="1"/>
        <pt x="1049" y="1830" on="1"/>
        <pt x="1049" y="1825" on="0"/>
        <pt x="1047" y="1824" on="1"/>
        <pt x="815" y="1515" on="1"/>
        <pt x="811" y="1511" on="0"/>
        <pt x="806" y="1511" on="1"/>
        <pt x="802" y="1511" on="0"/>
        <pt x="798" y="1515" on="1"/>
        <pt x="566" y="1824" on="1"/>
        <pt x="564" y="1826" on="0"/>
      </contour>
      <contour>
        <pt x="1382" y="1348" on="1"/>
        <pt x="1405" y="1376" on="0"/>
        <pt x="1452" y="1339" on="0"/>
        <pt x="1425" y="1313" on="1"/>
        <pt x="1349" y="1241" on="0"/>
        <pt x="1248" y="1148" on="0"/>
        <pt x="1205" y="1124" on="1"/>
        <pt x="1127" y="1079" on="0"/>
        <pt x="978" y="1116" on="0"/>
        <pt x="842" y="1185" on="1"/>
        <pt x="700" y="1257" on="0"/>
        <pt x="468" y="1268" on="0"/>
        <pt x="367" y="1171" on="1"/>
        <pt x="268" y="1076" on="0"/>
        <pt x="209" y="885" on="0"/>
        <pt x="212" y="783" on="1"/>
        <pt x="219" y="543" on="0"/>
        <pt x="632" y="220" on="0"/>
        <pt x="936" y="228" on="1"/>
        <pt x="1149" y="232" on="0"/>
        <pt x="1457" y="416" on="0"/>
        <pt x="1432" y="599" on="1"/>
        <pt x="1411" y="744" on="0"/>
        <pt x="1153" y="763" on="0"/>
        <pt x="996" y="663" on="1"/>
        <pt x="790" y="532" on="0"/>
        <pt x="604" y="562" on="0"/>
        <pt x="439" y="789" on="1"/>
        <pt x="419" y="815" on="0"/>
        <pt x="457" y="837" on="0"/>
        <pt x="475" y="810" on="1"/>
        <pt x="535" y="721" on="0"/>
        <pt x="724" y="792" on="0"/>
        <pt x="838" y="858" on="1"/>
        <pt x="915" y="901" on="0"/>
        <pt x="1051" y="972" on="0"/>
        <pt x="1156" y="947" on="1"/>
        <pt x="1256" y="922" on="0"/>
        <pt x="1447" y="758" on="0"/>
        <pt x="1477" y="632" on="1"/>
        <pt x="1502" y="522" on="0"/>
        <pt x="1444" y="342" on="0"/>
        <pt x="1396" y="270" on="1"/>
        <pt x="1307" y="135" on="0"/>
        <pt x="1006" y="-23" on="0"/>
        <pt x="813" y="-23" on="1"/>
        <pt x="528" y="-23" on="0"/>
        <pt x="50" y="359" on="0"/>
        <pt x="56" y="696" on="1"/>
        <pt x="64" y="1173" on="0"/>
        <pt x="770" y="1455" on="1"/>
        <pt x="804" y="1469" on="0"/>
        <pt x="841" y="1451" on="1"/>
        <pt x="1151" y="1298" on="0"/>
        <pt x="1348" y="1304" on="0"/>
      </contour>
    </TTGlyph>
    <TTGlyph name="T" xMin="49" yMin="-18" xMax="1477" yMax="1462">
      <contour>
        <pt x="539" y="711" on="1"/>
        <pt x="486" y="674" on="0"/>
        <pt x="385" y="674" on="1"/>
        <pt x="243" y="677" on="0"/>
        <pt x="49" y="859" on="0"/>
        <pt x="49" y="993" on="1"/>
        <pt x="49" y="1187" on="0"/>
        <pt x="355" y="1461" on="0"/>
        <pt x="588" y="1462" on="1"/>
        <pt x="786" y="1463" on="0"/>
        <pt x="1137" y="1275" on="0"/>
        <pt x="1269" y="1180" on="1"/>
        <pt x="1361" y="1111" on="0"/>
        <pt x="1439" y="1180" on="1"/>
        <pt x="1461" y="1200" on="0"/>
        <pt x="1493" y="1169" on="0"/>
        <pt x="1474" y="1151" on="1"/>
        <pt x="1302" y="1007" on="1"/>
        <pt x="1187" y="923" on="0"/>
        <pt x="1039" y="1021" on="1"/>
        <pt x="896" y="1120" on="0"/>
        <pt x="581" y="1288" on="0"/>
        <pt x="450" y="1288" on="1"/>
        <pt x="296" y="1288" on="0"/>
        <pt x="113" y="1114" on="0"/>
        <pt x="112" y="1003" on="1"/>
        <pt x="107" y="740" on="0"/>
        <pt x="377" y="713" on="1"/>
        <pt x="454" y="704" on="0"/>
        <pt x="515" y="748" on="1"/>
        <pt x="538" y="762" on="0"/>
        <pt x="560" y="726" on="0"/>
      </contour>
      <contour>
        <pt x="103" y="392" on="1"/>
        <pt x="223" y="489" on="0"/>
        <pt x="308" y="524" on="1"/>
        <pt x="430" y="576" on="0"/>
        <pt x="497" y="506" on="1"/>
        <pt x="683" y="314" on="0"/>
        <pt x="933" y="139" on="0"/>
        <pt x="1116" y="101" on="0"/>
        <pt x="1256" y="165" on="0"/>
        <pt x="1333" y="212" on="1"/>
        <pt x="1363" y="232" on="0"/>
        <pt x="1389" y="197" on="0"/>
        <pt x="1366" y="178" on="1"/>
        <pt x="1270" y="99" on="0"/>
        <pt x="1058" y="-16" on="0"/>
        <pt x="805" y="-19" on="0"/>
        <pt x="499" y="123" on="0"/>
        <pt x="309" y="303" on="1"/>
        <pt x="246" y="364" on="0"/>
        <pt x="185" y="363" on="1"/>
        <pt x="152" y="363" on="0"/>
        <pt x="115" y="345" on="1"/>
        <pt x="91" y="334" on="0"/>
        <pt x="74" y="370" on="0"/>
      </contour>
      <contour>
        <pt x="784" y="1113" on="1"/>
        <pt x="711" y="1056" on="0"/>
        <pt x="779" y="929" on="0"/>
        <pt x="891" y="843" on="1"/>
        <pt x="1085" y="693" on="0"/>
        <pt x="1054" y="423" on="0"/>
        <pt x="796" y="327" on="1"/>
        <pt x="775" y="318" on="0"/>
        <pt x="756" y="348" on="0"/>
        <pt x="775" y="360" on="1"/>
        <pt x="873" y="423" on="0"/>
        <pt x="820" y="569" on="0"/>
        <pt x="696" y="664" on="1"/>
        <pt x="550" y="773" on="0"/>
        <pt x="523" y="1018" on="0"/>
        <pt x="758" y="1144" on="1"/>
        <pt x="782" y="1157" on="0"/>
        <pt x="806" y="1130" on="0"/>
      </contour>
    </TTGlyph>
    <TTGlyph name="Thorn" xMin="31" yMin="-336" xMax="1766" yMax="1435">
      <contour>
        <pt x="1574" y="1060" on="1"/>
        <pt x="1603" y="1073" on="0"/>
        <pt x="1629" y="1040" on="0"/>
        <pt x="1609" y="1024" on="1"/>
        <pt x="1538" y="973" on="0"/>
        <pt x="1601" y="800" on="0"/>
        <pt x="1783" y="659" on="0"/>
        <pt x="1748" y="463" on="0"/>
        <pt x="1613" y="277" on="1"/>
        <pt x="1459" y="68" on="0"/>
        <pt x="1309" y="0" on="1"/>
        <pt x="1185" y="-57" on="0"/>
        <pt x="1025" y="13" on="1"/>
        <pt x="1021" y="15" on="1"/>
        <pt x="992" y="28" on="0"/>
        <pt x="962" y="46" on="1"/>
        <pt x="954" y="51" on="0"/>
        <pt x="939" y="43" on="0"/>
        <pt x="938" y="35" on="1"/>
        <pt x="923" y="-91" on="0"/>
        <pt x="850" y="-261" on="0"/>
        <pt x="775" y="-332" on="1"/>
        <pt x="761" y="-345" on="0"/>
        <pt x="737" y="-327" on="0"/>
        <pt x="747" y="-310" on="1"/>
        <pt x="824" y="-149" on="0"/>
        <pt x="798" y="121" on="1"/>
        <pt x="798" y="130" on="0"/>
        <pt x="788" y="134" on="1"/>
        <pt x="588" y="212" on="0"/>
        <pt x="489" y="116" on="1"/>
        <pt x="472" y="99" on="0"/>
        <pt x="441" y="122" on="0"/>
        <pt x="455" y="141" on="1"/>
        <pt x="611" y="344" on="0"/>
        <pt x="759" y="356" on="1"/>
        <pt x="767" y="357" on="0"/>
        <pt x="774" y="365" on="0"/>
        <pt x="774" y="374" on="1"/>
        <pt x="762" y="503" on="0"/>
        <pt x="737" y="760" on="0"/>
        <pt x="725" y="889" on="1"/>
        <pt x="710" y="1035" on="0"/>
        <pt x="542" y="1248" on="0"/>
        <pt x="417" y="1250" on="1"/>
        <pt x="283" y="1257" on="0"/>
        <pt x="99" y="1112" on="0"/>
        <pt x="99" y="850" on="0"/>
        <pt x="268" y="698" on="0"/>
        <pt x="409" y="698" on="1"/>
        <pt x="510" y="696" on="0"/>
        <pt x="575" y="751" on="1"/>
        <pt x="596" y="768" on="0"/>
        <pt x="626" y="738" on="0"/>
        <pt x="600" y="711" on="1"/>
        <pt x="560" y="675" on="0"/>
        <pt x="456" y="652" on="0"/>
        <pt x="403" y="651" on="1"/>
        <pt x="243" y="647" on="0"/>
        <pt x="31" y="846" on="0"/>
        <pt x="31" y="1189" on="0"/>
        <pt x="297" y="1435" on="0"/>
        <pt x="525" y="1435" on="1"/>
        <pt x="663" y="1432" on="0"/>
        <pt x="851" y="1300" on="0"/>
        <pt x="952" y="1134" on="0"/>
        <pt x="968" y="999" on="0"/>
        <pt x="970" y="958" on="1"/>
        <pt x="973" y="849" on="0"/>
        <pt x="972" y="757" on="1"/>
      </contour>
      <contour>
        <pt x="1062" y="255" on="1"/>
        <pt x="1265" y="138" on="0"/>
        <pt x="1504" y="186" on="0"/>
        <pt x="1576" y="300" on="1"/>
        <pt x="1645" y="513" on="0"/>
        <pt x="1319" y="742" on="0"/>
        <pt x="1313" y="840" on="1"/>
        <pt x="1313" y="852" on="0"/>
        <pt x="1297" y="858" on="0"/>
        <pt x="1289" y="854" on="1"/>
        <pt x="971" y="698" on="1"/>
        <pt x="970" y="644" on="0"/>
        <pt x="967" y="597" on="1"/>
        <pt x="959" y="449" on="0"/>
        <pt x="956" y="326" on="1"/>
        <pt x="956" y="314" on="0"/>
        <pt x="965" y="311" on="1"/>
        <pt x="1008" y="291" on="0"/>
      </contour>
    </TTGlyph>
    <TTGlyph name="U" xMin="49" yMin="-20" xMax="1402" yMax="1429">
      <contour>
        <pt x="1153" y="-14" on="1"/>
        <pt x="1052" y="35" on="0"/>
        <pt x="1018" y="78" on="1"/>
        <pt x="982" y="125" on="0"/>
        <pt x="978" y="247" on="1"/>
        <pt x="978" y="261" on="0"/>
        <pt x="959" y="267" on="0"/>
        <pt x="950" y="257" on="1"/>
        <pt x="908" y="212" on="0"/>
        <pt x="823" y="123" on="0"/>
        <pt x="781" y="78" on="1"/>
        <pt x="585" y="-126" on="0"/>
        <pt x="370" y="103" on="1"/>
        <pt x="295" y="182" on="0"/>
        <pt x="149" y="233" on="0"/>
        <pt x="80" y="172" on="1"/>
        <pt x="62" y="158" on="0"/>
        <pt x="37" y="186" on="0"/>
        <pt x="56" y="203" on="1"/>
        <pt x="309" y="416" on="1"/>
        <pt x="310" y="417" on="1"/>
        <pt x="437" y="539" on="0"/>
        <pt x="370" y="720" on="0"/>
        <pt x="283" y="810" on="1"/>
        <pt x="209" y="885" on="0"/>
        <pt x="107" y="1100" on="0"/>
        <pt x="187" y="1234" on="1"/>
        <pt x="250" y="1339" on="0"/>
        <pt x="458" y="1432" on="0"/>
        <pt x="536" y="1429" on="1"/>
        <pt x="676" y="1423" on="0"/>
        <pt x="748" y="1206" on="0"/>
        <pt x="652" y="1133" on="1"/>
        <pt x="630" y="1115" on="0"/>
        <pt x="599" y="1152" on="0"/>
        <pt x="623" y="1172" on="1"/>
        <pt x="704" y="1235" on="0"/>
        <pt x="621" y="1376" on="0"/>
        <pt x="537" y="1381" on="1"/>
        <pt x="476" y="1384" on="0"/>
        <pt x="373" y="1296" on="0"/>
        <pt x="371" y="1234" on="1"/>
        <pt x="367" y="1118" on="0"/>
        <pt x="462" y="1030" on="0"/>
        <pt x="494" y="999" on="1"/>
        <pt x="658" y="830" on="0"/>
        <pt x="615" y="580" on="0"/>
        <pt x="378" y="418" on="1"/>
        <pt x="367" y="411" on="0"/>
        <pt x="369" y="392" on="0"/>
        <pt x="384" y="389" on="1"/>
        <pt x="446" y="375" on="0"/>
        <pt x="513" y="300" on="0"/>
        <pt x="551" y="265" on="1"/>
        <pt x="680" y="145" on="0"/>
        <pt x="878" y="229" on="0"/>
        <pt x="972" y="337" on="1"/>
        <pt x="976" y="342" on="0"/>
        <pt x="976" y="348" on="1"/>
        <pt x="970" y="1070" on="1"/>
        <pt x="970" y="1144" on="0"/>
        <pt x="914" y="1166" on="1"/>
        <pt x="868" y="1187" on="0"/>
        <pt x="916" y="1214" on="1"/>
        <pt x="1016" y="1262" on="0"/>
        <pt x="1216" y="1362" on="0"/>
        <pt x="1317" y="1412" on="1"/>
        <pt x="1335" y="1422" on="0"/>
        <pt x="1362" y="1395" on="0"/>
        <pt x="1341" y="1376" on="1"/>
        <pt x="1263" y="1320" on="0"/>
        <pt x="1210" y="1131" on="0"/>
        <pt x="1211" y="1005" on="1"/>
        <pt x="1218" y="301" on="1"/>
        <pt x="1219" y="141" on="0"/>
        <pt x="1371" y="196" on="1"/>
        <pt x="1391" y="204" on="0"/>
        <pt x="1413" y="177" on="0"/>
        <pt x="1398" y="163" on="1"/>
        <pt x="1207" y="-9" on="1"/>
        <pt x="1195" y="-19" on="0"/>
        <pt x="1165" y="-21" on="0"/>
      </contour>
    </TTGlyph>
    <TTGlyph name="Uacute" xMin="49" yMin="-20" xMax="1402" yMax="1768">
      <component glyphName="U" x="0" y="0" flags="0x1204"/>
      <component glyphName="acute" x="389" y="335" flags="0x1004"/>
    </TTGlyph>
    <TTGlyph name="Ucircumflex" xMin="49" yMin="-20" xMax="1402" yMax="1810">
      <component glyphName="U" x="0" y="0" flags="0x1204"/>
      <component glyphName="circumflex" x="301" y="364" flags="0x1004"/>
    </TTGlyph>
    <TTGlyph name="Udieresis" xMin="49" yMin="23" xMax="1402" yMax="1815">
      <contour>
        <pt x="1113" y="1815" on="1"/>
        <pt x="1224" y="1815" on="0"/>
        <pt x="1214" y="1708" on="1"/>
        <pt x="1208" y="1654" on="0"/>
        <pt x="1085" y="1545" on="0"/>
        <pt x="1049" y="1546" on="1"/>
        <pt x="1013" y="1546" on="0"/>
        <pt x="975" y="1660" on="0"/>
        <pt x="979" y="1708" on="1"/>
        <pt x="982" y="1754" on="0"/>
        <pt x="1065" y="1815" on="0"/>
      </contour>
      <contour>
        <pt x="683" y="1815" on="1"/>
        <pt x="794" y="1815" on="0"/>
        <pt x="784" y="1708" on="1"/>
        <pt x="778" y="1654" on="0"/>
        <pt x="655" y="1545" on="0"/>
        <pt x="619" y="1546" on="1"/>
        <pt x="583" y="1546" on="0"/>
        <pt x="545" y="1660" on="0"/>
        <pt x="549" y="1708" on="1"/>
        <pt x="552" y="1754" on="0"/>
        <pt x="635" y="1815" on="0"/>
      </contour>
      <contour>
        <pt x="1153" y="29" on="1"/>
        <pt x="1052" y="78" on="0"/>
        <pt x="1018" y="121" on="1"/>
        <pt x="982" y="168" on="0"/>
        <pt x="978" y="290" on="1"/>
        <pt x="978" y="304" on="0"/>
        <pt x="959" y="310" on="0"/>
        <pt x="950" y="300" on="1"/>
        <pt x="908" y="255" on="0"/>
        <pt x="823" y="166" on="0"/>
        <pt x="781" y="121" on="1"/>
        <pt x="585" y="-83" on="0"/>
        <pt x="370" y="146" on="1"/>
        <pt x="295" y="225" on="0"/>
        <pt x="149" y="276" on="0"/>
        <pt x="80" y="215" on="1"/>
        <pt x="62" y="201" on="0"/>
        <pt x="37" y="229" on="0"/>
        <pt x="56" y="246" on="1"/>
        <pt x="309" y="459" on="1"/>
        <pt x="310" y="460" on="1"/>
        <pt x="437" y="582" on="0"/>
        <pt x="370" y="763" on="0"/>
        <pt x="283" y="853" on="1"/>
        <pt x="209" y="928" on="0"/>
        <pt x="107" y="1143" on="0"/>
        <pt x="187" y="1277" on="1"/>
        <pt x="250" y="1382" on="0"/>
        <pt x="458" y="1475" on="0"/>
        <pt x="536" y="1472" on="1"/>
        <pt x="676" y="1466" on="0"/>
        <pt x="748" y="1249" on="0"/>
        <pt x="652" y="1176" on="1"/>
        <pt x="630" y="1158" on="0"/>
        <pt x="599" y="1195" on="0"/>
        <pt x="623" y="1215" on="1"/>
        <pt x="704" y="1278" on="0"/>
        <pt x="621" y="1419" on="0"/>
        <pt x="537" y="1424" on="1"/>
        <pt x="476" y="1427" on="0"/>
        <pt x="373" y="1339" on="0"/>
        <pt x="371" y="1277" on="1"/>
        <pt x="367" y="1161" on="0"/>
        <pt x="462" y="1073" on="0"/>
        <pt x="494" y="1042" on="1"/>
        <pt x="658" y="873" on="0"/>
        <pt x="615" y="623" on="0"/>
        <pt x="378" y="461" on="1"/>
        <pt x="367" y="454" on="0"/>
        <pt x="369" y="435" on="0"/>
        <pt x="384" y="432" on="1"/>
        <pt x="446" y="418" on="0"/>
        <pt x="513" y="343" on="0"/>
        <pt x="551" y="308" on="1"/>
        <pt x="680" y="188" on="0"/>
        <pt x="878" y="272" on="0"/>
        <pt x="972" y="380" on="1"/>
        <pt x="976" y="385" on="0"/>
        <pt x="976" y="391" on="1"/>
        <pt x="970" y="1113" on="1"/>
        <pt x="970" y="1187" on="0"/>
        <pt x="914" y="1209" on="1"/>
        <pt x="868" y="1230" on="0"/>
        <pt x="916" y="1257" on="1"/>
        <pt x="1016" y="1305" on="0"/>
        <pt x="1216" y="1405" on="0"/>
        <pt x="1317" y="1455" on="1"/>
        <pt x="1335" y="1465" on="0"/>
        <pt x="1362" y="1438" on="0"/>
        <pt x="1341" y="1419" on="1"/>
        <pt x="1263" y="1363" on="0"/>
        <pt x="1210" y="1174" on="0"/>
        <pt x="1211" y="1048" on="1"/>
        <pt x="1218" y="344" on="1"/>
        <pt x="1219" y="184" on="0"/>
        <pt x="1371" y="239" on="1"/>
        <pt x="1391" y="247" on="0"/>
        <pt x="1413" y="220" on="0"/>
        <pt x="1398" y="206" on="1"/>
        <pt x="1207" y="34" on="1"/>
        <pt x="1195" y="24" on="0"/>
        <pt x="1165" y="22" on="0"/>
      </contour>
    </TTGlyph>
    <TTGlyph name="Ugrave" xMin="49" yMin="-20" xMax="1402" yMax="1798">
      <component glyphName="U" x="0" y="0" flags="0x1204"/>
      <component glyphName="grave" x="341" y="364" flags="0x1004"/>
    </TTGlyph>
    <TTGlyph name="V" xMin="45" yMin="-23" xMax="1704" yMax="1461">
      <contour>
        <pt x="380" y="704" on="1"/>
        <pt x="437" y="702" on="0"/>
        <pt x="558" y="736" on="0"/>
        <pt x="603" y="775" on="1"/>
        <pt x="621" y="791" on="0"/>
        <pt x="649" y="769" on="0"/>
        <pt x="633" y="754" on="1"/>
        <pt x="524" y="649" on="0"/>
        <pt x="400" y="652" on="1"/>
        <pt x="244" y="655" on="0"/>
        <pt x="46" y="860" on="0"/>
        <pt x="45" y="1029" on="1"/>
        <pt x="45" y="1197" on="0"/>
        <pt x="320" y="1461" on="0"/>
        <pt x="526" y="1461" on="1"/>
        <pt x="799" y="1461" on="0"/>
        <pt x="937" y="1258" on="1"/>
        <pt x="946" y="1246" on="0"/>
        <pt x="962" y="1249" on="0"/>
        <pt x="966" y="1262" on="1"/>
        <pt x="999" y="1363" on="0"/>
        <pt x="1205" y="1494" on="0"/>
        <pt x="1465" y="1417" on="0"/>
        <pt x="1537" y="1280" on="1"/>
        <pt x="1564" y="1226" on="0"/>
        <pt x="1606" y="1137" on="0"/>
        <pt x="1644" y="1131" on="1"/>
        <pt x="1707" y="1118" on="0"/>
        <pt x="1656" y="1093" on="1"/>
        <pt x="1452" y="990" on="0"/>
        <pt x="1462" y="808" on="0"/>
        <pt x="1562" y="724" on="1"/>
        <pt x="1768" y="548" on="0"/>
        <pt x="1639" y="259" on="0"/>
        <pt x="1477" y="127" on="1"/>
        <pt x="1267" y="-44" on="0"/>
        <pt x="827" y="-1" on="0"/>
        <pt x="626" y="176" on="1"/>
        <pt x="527" y="263" on="0"/>
        <pt x="371" y="318" on="0"/>
        <pt x="304" y="249" on="1"/>
        <pt x="283" y="228" on="0"/>
        <pt x="251" y="259" on="0"/>
        <pt x="272" y="279" on="1"/>
        <pt x="401" y="408" on="0"/>
        <pt x="575" y="497" on="0"/>
        <pt x="661" y="471" on="1"/>
        <pt x="673" y="469" on="0"/>
        <pt x="679" y="477" on="1"/>
        <pt x="746" y="561" on="0"/>
        <pt x="824" y="767" on="0"/>
        <pt x="819" y="881" on="1"/>
        <pt x="812" y="1010" on="0"/>
        <pt x="596" y="1276" on="0"/>
        <pt x="415" y="1269" on="1"/>
        <pt x="296" y="1260" on="0"/>
        <pt x="120" y="1107" on="0"/>
        <pt x="120" y="990" on="1"/>
        <pt x="119" y="873" on="0"/>
        <pt x="257" y="709" on="0"/>
      </contour>
      <contour>
        <pt x="1010" y="1067" on="1"/>
        <pt x="1022" y="977" on="0"/>
        <pt x="982" y="768" on="0"/>
        <pt x="816" y="555" on="0"/>
        <pt x="724" y="469" on="1"/>
        <pt x="717" y="462" on="0"/>
        <pt x="719" y="447" on="0"/>
        <pt x="728" y="442" on="1"/>
        <pt x="775" y="415" on="0"/>
        <pt x="882" y="331" on="0"/>
        <pt x="948" y="275" on="1"/>
        <pt x="1087" y="155" on="0"/>
        <pt x="1343" y="72" on="0"/>
        <pt x="1437" y="151" on="1"/>
        <pt x="1539" y="236" on="0"/>
        <pt x="1486" y="420" on="0"/>
        <pt x="1384" y="518" on="1"/>
        <pt x="1242" y="651" on="0"/>
        <pt x="1296" y="875" on="0"/>
        <pt x="1433" y="986" on="1"/>
        <pt x="1441" y="992" on="0"/>
        <pt x="1439" y="1009" on="0"/>
        <pt x="1429" y="1013" on="1"/>
        <pt x="1373" y="1040" on="0"/>
        <pt x="1304" y="1157" on="0"/>
        <pt x="1280" y="1223" on="1"/>
        <pt x="1256" y="1286" on="0"/>
        <pt x="1153" y="1375" on="0"/>
        <pt x="1087" y="1342" on="1"/>
        <pt x="1033" y="1315" on="0"/>
        <pt x="990" y="1194" on="0"/>
      </contour>
    </TTGlyph>
    <TTGlyph name="W" xMin="50" yMin="-23" xMax="2140" yMax="1455">
      <contour>
        <pt x="385" y="691" on="1"/>
        <pt x="520" y="685" on="0"/>
        <pt x="608" y="761" on="1"/>
        <pt x="626" y="778" on="0"/>
        <pt x="653" y="757" on="0"/>
        <pt x="640" y="743" on="1"/>
        <pt x="528" y="634" on="0"/>
        <pt x="405" y="639" on="1"/>
        <pt x="249" y="642" on="0"/>
        <pt x="51" y="847" on="0"/>
        <pt x="50" y="1015" on="1"/>
        <pt x="41" y="1188" on="0"/>
        <pt x="325" y="1448" on="0"/>
        <pt x="531" y="1448" on="1"/>
        <pt x="759" y="1448" on="0"/>
        <pt x="902" y="1296" on="1"/>
        <pt x="916" y="1283" on="0"/>
        <pt x="927" y="1298" on="1"/>
        <pt x="1025" y="1452" on="0"/>
        <pt x="1152" y="1457" on="0"/>
        <pt x="1258" y="1311" on="1"/>
        <pt x="1269" y="1296" on="0"/>
        <pt x="1283" y="1308" on="1"/>
        <pt x="1303" y="1328" on="0"/>
        <pt x="1314" y="1338" on="1"/>
        <pt x="1459" y="1470" on="0"/>
        <pt x="1856" y="1433" on="0"/>
        <pt x="1946" y="1257" on="1"/>
        <pt x="1973" y="1201" on="0"/>
        <pt x="2002" y="1098" on="0"/>
        <pt x="2052" y="1068" on="1"/>
        <pt x="2080" y="1052" on="0"/>
        <pt x="2080" y="1024" on="0"/>
        <pt x="2062" y="1020" on="1"/>
        <pt x="1995" y="1005" on="0"/>
        <pt x="1931" y="963" on="1"/>
        <pt x="1863" y="891" on="0"/>
        <pt x="1913" y="764" on="0"/>
        <pt x="2019" y="689" on="1"/>
        <pt x="2154" y="590" on="0"/>
        <pt x="2125" y="306" on="0"/>
        <pt x="1975" y="162" on="1"/>
        <pt x="1785" y="-22" on="0"/>
        <pt x="1455" y="-24" on="0"/>
        <pt x="1323" y="114" on="1"/>
        <pt x="1257" y="182" on="0"/>
        <pt x="1178" y="128" on="1"/>
        <pt x="962" y="-41" on="0"/>
        <pt x="677" y="16" on="0"/>
        <pt x="582" y="148" on="1"/>
        <pt x="428" y="360" on="0"/>
        <pt x="252" y="251" on="1"/>
        <pt x="229" y="235" on="0"/>
        <pt x="206" y="262" on="0"/>
        <pt x="223" y="277" on="1"/>
        <pt x="363" y="399" on="0"/>
        <pt x="564" y="459" on="0"/>
        <pt x="642" y="431" on="1"/>
        <pt x="654" y="427" on="0"/>
        <pt x="660" y="435" on="1"/>
        <pt x="737" y="522" on="0"/>
        <pt x="830" y="744" on="0"/>
        <pt x="824" y="867" on="1"/>
        <pt x="817" y="996" on="0"/>
        <pt x="601" y="1263" on="0"/>
        <pt x="420" y="1248" on="1"/>
        <pt x="312" y="1238" on="0"/>
        <pt x="131" y="1094" on="0"/>
        <pt x="125" y="977" on="1"/>
        <pt x="124" y="860" on="0"/>
        <pt x="262" y="696" on="0"/>
      </contour>
      <contour>
        <pt x="1836" y="961" on="1"/>
        <pt x="1772" y="1008" on="0"/>
        <pt x="1709" y="1128" on="0"/>
        <pt x="1679" y="1190" on="1"/>
        <pt x="1615" y="1317" on="0"/>
        <pt x="1415" y="1387" on="0"/>
        <pt x="1349" y="1315" on="1"/>
        <pt x="1282" y="1242" on="0"/>
        <pt x="1287" y="1055" on="0"/>
        <pt x="1386" y="920" on="1"/>
        <pt x="1497" y="764" on="0"/>
        <pt x="1519" y="511" on="0"/>
        <pt x="1426" y="379" on="1"/>
        <pt x="1419" y="370" on="0"/>
        <pt x="1423" y="356" on="0"/>
        <pt x="1436" y="354" on="1"/>
        <pt x="1479" y="343" on="0"/>
        <pt x="1537" y="293" on="1"/>
        <pt x="1691" y="124" on="0"/>
        <pt x="1884" y="111" on="0"/>
        <pt x="1941" y="183" on="1"/>
        <pt x="1983" y="236" on="0"/>
        <pt x="1966" y="378" on="0"/>
        <pt x="1804" y="509" on="1"/>
        <pt x="1582" y="685" on="0"/>
        <pt x="1743" y="849" on="1"/>
        <pt x="1792" y="898" on="0"/>
        <pt x="1837" y="934" on="1"/>
        <pt x="1843" y="940" on="0"/>
        <pt x="1843" y="955" on="0"/>
      </contour>
      <contour>
        <pt x="951" y="1233" on="1"/>
        <pt x="1049" y="1076" on="0"/>
        <pt x="1009" y="869" on="1"/>
        <pt x="985" y="745" on="0"/>
        <pt x="797" y="515" on="0"/>
        <pt x="698" y="426" on="1"/>
        <pt x="685" y="411" on="0"/>
        <pt x="700" y="400" on="1"/>
        <pt x="746" y="369" on="0"/>
        <pt x="806" y="303" on="1"/>
        <pt x="905" y="189" on="0"/>
        <pt x="1096" y="117" on="0"/>
        <pt x="1225" y="228" on="1"/>
        <pt x="1348" y="333" on="0"/>
        <pt x="1286" y="587" on="0"/>
        <pt x="1194" y="720" on="1"/>
        <pt x="1091" y="869" on="0"/>
        <pt x="1129" y="1131" on="0"/>
        <pt x="1226" y="1248" on="1"/>
        <pt x="1235" y="1257" on="0"/>
        <pt x="1226" y="1269" on="1"/>
        <pt x="1148" y="1354" on="0"/>
        <pt x="1023" y="1348" on="0"/>
        <pt x="951" y="1251" on="1"/>
        <pt x="945" y="1242" on="0"/>
      </contour>
    </TTGlyph>
    <TTGlyph name="X" xMin="72" yMin="-20" xMax="1420" yMax="1455">
      <contour>
        <pt x="497" y="780" on="1"/>
        <pt x="530" y="792" on="0"/>
        <pt x="548" y="751" on="0"/>
        <pt x="519" y="742" on="1"/>
        <pt x="351" y="685" on="0"/>
        <pt x="109" y="812" on="0"/>
        <pt x="36" y="1158" on="0"/>
        <pt x="270" y="1455" on="0"/>
        <pt x="463" y="1455" on="1"/>
        <pt x="658" y="1455" on="0"/>
        <pt x="857" y="1270" on="0"/>
        <pt x="898" y="1118" on="1"/>
        <pt x="901" y="1106" on="0"/>
        <pt x="913" y="1106" on="1"/>
        <pt x="925" y="1106" on="0"/>
        <pt x="929" y="1118" on="1"/>
        <pt x="977" y="1313" on="0"/>
        <pt x="1114" y="1495" on="0"/>
        <pt x="1224" y="1416" on="1"/>
        <pt x="1326" y="1341" on="0"/>
        <pt x="1383" y="1409" on="1"/>
        <pt x="1395" y="1424" on="0"/>
        <pt x="1429" y="1409" on="0"/>
        <pt x="1420" y="1382" on="1"/>
        <pt x="1363" y="1211" on="0"/>
        <pt x="1217" y="1132" on="0"/>
        <pt x="1143" y="1190" on="1"/>
        <pt x="1081" y="1236" on="0"/>
        <pt x="1000" y="1187" on="0"/>
        <pt x="951" y="1076" on="0"/>
        <pt x="931" y="942" on="0"/>
        <pt x="931" y="904" on="1"/>
        <pt x="931" y="897" on="0"/>
        <pt x="935" y="892" on="1"/>
        <pt x="940" y="887" on="0"/>
        <pt x="946" y="887" on="1"/>
        <pt x="1256" y="887" on="1"/>
        <pt x="1283" y="887" on="0"/>
        <pt x="1268" y="859" on="1"/>
        <pt x="1188" y="723" on="1"/>
        <pt x="1173" y="695" on="0"/>
        <pt x="1144" y="695" on="1"/>
        <pt x="954" y="695" on="1"/>
        <pt x="948" y="695" on="0"/>
        <pt x="942" y="690" on="1"/>
        <pt x="936" y="684" on="0"/>
        <pt x="938" y="678" on="1"/>
        <pt x="962" y="363" on="0"/>
        <pt x="1222" y="174" on="0"/>
        <pt x="1342" y="243" on="1"/>
        <pt x="1361" y="255" on="0"/>
        <pt x="1387" y="236" on="0"/>
        <pt x="1377" y="222" on="1"/>
        <pt x="1325" y="153" on="0"/>
        <pt x="1263" y="88" on="1"/>
        <pt x="1215" y="38" on="0"/>
        <pt x="1174" y="-4" on="1"/>
        <pt x="1160" y="-18" on="0"/>
        <pt x="1115" y="-21" on="0"/>
        <pt x="1095" y="-14" on="1"/>
        <pt x="823" y="61" on="0"/>
        <pt x="751" y="374" on="1"/>
        <pt x="748" y="390" on="0"/>
        <pt x="723" y="390" on="0"/>
        <pt x="719" y="374" on="1"/>
        <pt x="632" y="33" on="0"/>
        <pt x="404" y="-30" on="0"/>
        <pt x="332" y="24" on="1"/>
        <pt x="207" y="116" on="0"/>
        <pt x="163" y="46" on="1"/>
        <pt x="154" y="31" on="0"/>
        <pt x="124" y="48" on="0"/>
        <pt x="136" y="75" on="1"/>
        <pt x="236" y="290" on="0"/>
        <pt x="395" y="319" on="0"/>
        <pt x="464" y="256" on="1"/>
        <pt x="546" y="179" on="0"/>
        <pt x="646" y="264" on="0"/>
        <pt x="702" y="441" on="0"/>
        <pt x="722" y="639" on="0"/>
        <pt x="724" y="678" on="1"/>
        <pt x="725" y="685" on="0"/>
        <pt x="720" y="690" on="1"/>
        <pt x="715" y="695" on="0"/>
        <pt x="709" y="695" on="1"/>
        <pt x="588" y="695" on="1"/>
        <pt x="550" y="695" on="0"/>
        <pt x="576" y="723" on="1"/>
        <pt x="699" y="859" on="1"/>
        <pt x="707" y="868" on="0"/>
        <pt x="722" y="879" on="1"/>
        <pt x="729" y="883" on="0"/>
        <pt x="729" y="894" on="1"/>
        <pt x="717" y="1058" on="0"/>
        <pt x="569" y="1255" on="0"/>
        <pt x="446" y="1255" on="1"/>
        <pt x="300" y="1254" on="0"/>
        <pt x="138" y="1099" on="0"/>
        <pt x="145" y="876" on="0"/>
        <pt x="347" y="724" on="0"/>
      </contour>
    </TTGlyph>
    <TTGlyph name="Y" xMin="45" yMin="-319" xMax="1701" yMax="1468">
      <contour>
        <pt x="380" y="710" on="1"/>
        <pt x="515" y="704" on="0"/>
        <pt x="603" y="780" on="1"/>
        <pt x="620" y="797" on="0"/>
        <pt x="650" y="776" on="0"/>
        <pt x="635" y="763" on="1"/>
        <pt x="523" y="655" on="0"/>
        <pt x="400" y="658" on="1"/>
        <pt x="244" y="661" on="0"/>
        <pt x="46" y="866" on="0"/>
        <pt x="45" y="1034" on="1"/>
        <pt x="45" y="1202" on="0"/>
        <pt x="320" y="1467" on="0"/>
        <pt x="526" y="1467" on="1"/>
        <pt x="661" y="1467" on="0"/>
        <pt x="894" y="1345" on="0"/>
        <pt x="959" y="1236" on="1"/>
        <pt x="973" y="1316" on="0"/>
        <pt x="1087" y="1443" on="0"/>
        <pt x="1181" y="1468" on="1"/>
        <pt x="1309" y="1501" on="0"/>
        <pt x="1532" y="1360" on="0"/>
        <pt x="1574" y="1225" on="1"/>
        <pt x="1630" y="1040" on="0"/>
        <pt x="1671" y="1047" on="1"/>
        <pt x="1695" y="1052" on="0"/>
        <pt x="1706" y="1013" on="0"/>
        <pt x="1670" y="1000" on="1"/>
        <pt x="1481" y="922" on="0"/>
        <pt x="1438" y="771" on="0"/>
        <pt x="1558" y="566" on="1"/>
        <pt x="1696" y="326" on="0"/>
        <pt x="1598" y="-27" on="0"/>
        <pt x="1421" y="-163" on="1"/>
        <pt x="1310" y="-244" on="0"/>
        <pt x="1079" y="-322" on="0"/>
        <pt x="963" y="-319" on="1"/>
        <pt x="778" y="-314" on="0"/>
        <pt x="506" y="-172" on="0"/>
        <pt x="403" y="-43" on="1"/>
        <pt x="390" y="-26" on="0"/>
        <pt x="418" y="-5" on="0"/>
        <pt x="434" y="-23" on="1"/>
        <pt x="538" y="-137" on="0"/>
        <pt x="784" y="-255" on="0"/>
        <pt x="951" y="-255" on="1"/>
        <pt x="1265" y="-240" on="0"/>
        <pt x="1450" y="176" on="0"/>
        <pt x="1282" y="449" on="1"/>
        <pt x="1182" y="609" on="0"/>
        <pt x="1262" y="823" on="0"/>
        <pt x="1439" y="917" on="1"/>
        <pt x="1448" y="924" on="0"/>
        <pt x="1448" y="932" on="1"/>
        <pt x="1448" y="940" on="0"/>
        <pt x="1439" y="946" on="1"/>
        <pt x="1403" y="964" on="0"/>
        <pt x="1329" y="1057" on="0"/>
        <pt x="1308" y="1160" on="1"/>
        <pt x="1290" y="1242" on="0"/>
        <pt x="1205" y="1360" on="0"/>
        <pt x="1118" y="1350" on="1"/>
        <pt x="1047" y="1341" on="0"/>
        <pt x="989" y="1208" on="0"/>
        <pt x="1005" y="1123" on="1"/>
        <pt x="1031" y="1008" on="0"/>
        <pt x="1004" y="888" on="1"/>
        <pt x="959" y="684" on="0"/>
        <pt x="792" y="456" on="0"/>
        <pt x="700" y="373" on="1"/>
        <pt x="695" y="368" on="0"/>
        <pt x="695" y="358" on="1"/>
        <pt x="696" y="348" on="0"/>
        <pt x="705" y="346" on="1"/>
        <pt x="739" y="331" on="0"/>
        <pt x="806" y="283" on="1"/>
        <pt x="901" y="208" on="0"/>
        <pt x="1031" y="237" on="0"/>
        <pt x="1086" y="300" on="1"/>
        <pt x="1107" y="323" on="0"/>
        <pt x="1146" y="296" on="0"/>
        <pt x="1129" y="272" on="1"/>
        <pt x="1076" y="212" on="0"/>
        <pt x="1001" y="118" on="0"/>
        <pt x="975" y="82" on="1"/>
        <pt x="915" y="-2" on="0"/>
        <pt x="730" y="11" on="0"/>
        <pt x="639" y="95" on="1"/>
        <pt x="538" y="187" on="0"/>
        <pt x="468" y="131" on="1"/>
        <pt x="446" y="115" on="0"/>
        <pt x="420" y="145" on="0"/>
        <pt x="443" y="168" on="1"/>
        <pt x="501" y="230" on="0"/>
        <pt x="632" y="345" on="0"/>
        <pt x="680" y="417" on="1"/>
        <pt x="744" y="514" on="0"/>
        <pt x="823" y="779" on="0"/>
        <pt x="819" y="887" on="1"/>
        <pt x="812" y="1015" on="0"/>
        <pt x="596" y="1282" on="0"/>
        <pt x="415" y="1267" on="1"/>
        <pt x="299" y="1269" on="0"/>
        <pt x="120" y="1113" on="0"/>
        <pt x="120" y="996" on="1"/>
        <pt x="119" y="879" on="0"/>
        <pt x="257" y="714" on="0"/>
      </contour>
    </TTGlyph>
    <TTGlyph name="Yacute" xMin="45" yMin="-319" xMax="1701" yMax="1827">
      <component glyphName="Y" x="0" y="0" flags="0x1204"/>
      <component glyphName="acute" x="486" y="394" flags="0x1004"/>
    </TTGlyph>
    <TTGlyph name="Ydieresis" xMin="45" yMin="-319" xMax="1701" yMax="1815">
      <component glyphName="Y" x="0" y="0" flags="0x1204"/>
      <component glyphName="dieresis" x="365" y="364" flags="0x1004"/>
    </TTGlyph>
    <TTGlyph name="Z" xMin="47" yMin="-230" xMax="1310" yMax="1497">
      <contour>
        <pt x="521" y="849" on="1"/>
        <pt x="553" y="848" on="0"/>
        <pt x="548" y="799" on="0"/>
        <pt x="509" y="799" on="1"/>
        <pt x="389" y="801" on="0"/>
        <pt x="219" y="962" on="0"/>
        <pt x="245" y="1295" on="0"/>
        <pt x="529" y="1500" on="0"/>
        <pt x="763" y="1497" on="1"/>
        <pt x="934" y="1497" on="0"/>
        <pt x="1210" y="1282" on="0"/>
        <pt x="1214" y="1133" on="1"/>
        <pt x="1214" y="1000" on="0"/>
        <pt x="1077" y="846" on="0"/>
        <pt x="975" y="803" on="1"/>
        <pt x="963" y="797" on="0"/>
        <pt x="965" y="776" on="0"/>
        <pt x="979" y="773" on="1"/>
        <pt x="1126" y="731" on="0"/>
        <pt x="1307" y="527" on="0"/>
        <pt x="1310" y="386" on="1"/>
        <pt x="1313" y="232" on="0"/>
        <pt x="1193" y="-2" on="0"/>
        <pt x="1095" y="-74" on="1"/>
        <pt x="813" y="-276" on="0"/>
        <pt x="457" y="-184" on="0"/>
        <pt x="328" y="-51" on="1"/>
        <pt x="241" y="36" on="0"/>
        <pt x="141" y="86" on="0"/>
        <pt x="83" y="42" on="1"/>
        <pt x="62" y="25" on="0"/>
        <pt x="32" y="61" on="0"/>
        <pt x="60" y="86" on="1"/>
        <pt x="219" y="234" on="0"/>
        <pt x="457" y="209" on="0"/>
        <pt x="565" y="83" on="1"/>
        <pt x="703" y="-79" on="0"/>
        <pt x="927" y="-155" on="0"/>
        <pt x="1039" y="-50" on="1"/>
        <pt x="1123" y="28" on="0"/>
        <pt x="1124" y="271" on="0"/>
        <pt x="1046" y="391" on="1"/>
        <pt x="851" y="684" on="0"/>
        <pt x="550" y="616" on="1"/>
        <pt x="511" y="610" on="0"/>
        <pt x="502" y="668" on="0"/>
        <pt x="544" y="674" on="1"/>
        <pt x="748" y="710" on="0"/>
        <pt x="991" y="881" on="0"/>
        <pt x="1000" y="1019" on="1"/>
        <pt x="1009" y="1149" on="0"/>
        <pt x="802" y="1295" on="0"/>
        <pt x="623" y="1293" on="1"/>
        <pt x="481" y="1291" on="0"/>
        <pt x="329" y="1174" on="0"/>
        <pt x="312" y="964" on="0"/>
        <pt x="422" y="855" on="0"/>
      </contour>
    </TTGlyph>
    <TTGlyph name="Zcaron" xMin="47" yMin="-230" xMax="1310" yMax="1895">
      <contour>
        <pt x="456" y="1860" on="1"/>
        <pt x="456" y="1885" on="1"/>
        <pt x="456" y="1893" on="0"/>
        <pt x="461" y="1895" on="1"/>
        <pt x="467" y="1897" on="0"/>
        <pt x="472" y="1893" on="1"/>
        <pt x="692" y="1709" on="1"/>
        <pt x="699" y="1701" on="0"/>
        <pt x="705" y="1709" on="1"/>
        <pt x="924" y="1893" on="1"/>
        <pt x="930" y="1897" on="0"/>
        <pt x="935" y="1895" on="1"/>
        <pt x="941" y="1893" on="0"/>
        <pt x="941" y="1885" on="1"/>
        <pt x="941" y="1860" on="1"/>
        <pt x="941" y="1855" on="0"/>
        <pt x="939" y="1854" on="1"/>
        <pt x="707" y="1545" on="1"/>
        <pt x="703" y="1541" on="0"/>
        <pt x="698" y="1541" on="1"/>
        <pt x="694" y="1541" on="0"/>
        <pt x="690" y="1545" on="1"/>
        <pt x="458" y="1854" on="1"/>
        <pt x="456" y="1856" on="0"/>
      </contour>
      <contour>
        <pt x="521" y="849" on="1"/>
        <pt x="553" y="848" on="0"/>
        <pt x="548" y="799" on="0"/>
        <pt x="509" y="799" on="1"/>
        <pt x="389" y="801" on="0"/>
        <pt x="219" y="962" on="0"/>
        <pt x="245" y="1295" on="0"/>
        <pt x="529" y="1500" on="0"/>
        <pt x="763" y="1497" on="1"/>
        <pt x="934" y="1497" on="0"/>
        <pt x="1210" y="1282" on="0"/>
        <pt x="1214" y="1133" on="1"/>
        <pt x="1214" y="1000" on="0"/>
        <pt x="1077" y="846" on="0"/>
        <pt x="975" y="803" on="1"/>
        <pt x="963" y="797" on="0"/>
        <pt x="965" y="776" on="0"/>
        <pt x="979" y="773" on="1"/>
        <pt x="1126" y="731" on="0"/>
        <pt x="1307" y="527" on="0"/>
        <pt x="1310" y="386" on="1"/>
        <pt x="1313" y="232" on="0"/>
        <pt x="1193" y="-2" on="0"/>
        <pt x="1095" y="-74" on="1"/>
        <pt x="813" y="-276" on="0"/>
        <pt x="457" y="-184" on="0"/>
        <pt x="328" y="-51" on="1"/>
        <pt x="241" y="36" on="0"/>
        <pt x="141" y="86" on="0"/>
        <pt x="83" y="42" on="1"/>
        <pt x="62" y="25" on="0"/>
        <pt x="32" y="61" on="0"/>
        <pt x="60" y="86" on="1"/>
        <pt x="219" y="234" on="0"/>
        <pt x="457" y="209" on="0"/>
        <pt x="565" y="83" on="1"/>
        <pt x="703" y="-79" on="0"/>
        <pt x="927" y="-155" on="0"/>
        <pt x="1039" y="-50" on="1"/>
        <pt x="1123" y="28" on="0"/>
        <pt x="1124" y="271" on="0"/>
        <pt x="1046" y="391" on="1"/>
        <pt x="851" y="684" on="0"/>
        <pt x="550" y="616" on="1"/>
        <pt x="511" y="610" on="0"/>
        <pt x="502" y="668" on="0"/>
        <pt x="544" y="674" on="1"/>
        <pt x="748" y="710" on="0"/>
        <pt x="991" y="881" on="0"/>
        <pt x="1000" y="1019" on="1"/>
        <pt x="1009" y="1149" on="0"/>
        <pt x="802" y="1295" on="0"/>
        <pt x="623" y="1293" on="1"/>
        <pt x="481" y="1291" on="0"/>
        <pt x="329" y="1174" on="0"/>
        <pt x="312" y="964" on="0"/>
        <pt x="422" y="855" on="0"/>
      </contour>
    </TTGlyph>
    <TTGlyph name="a" xMin="53" yMin="-42" xMax="891" yMax="1023">
      <contour>
        <pt x="534" y="141" on="1"/>
        <pt x="483" y="102" on="0"/>
        <pt x="361" y="9" on="0"/>
        <pt x="309" y="-30" on="1"/>
        <pt x="291" y="-44" on="0"/>
        <pt x="270" y="-40" on="0"/>
        <pt x="272" y="-24" on="1"/>
        <pt x="272" y="-3" on="0"/>
        <pt x="210" y="56" on="1"/>
        <pt x="47" y="209" on="0"/>
        <pt x="53" y="454" on="1"/>
        <pt x="59" y="664" on="0"/>
        <pt x="248" y="809" on="1"/>
        <pt x="306" y="853" on="0"/>
        <pt x="407" y="951" on="0"/>
        <pt x="446" y="1021" on="1"/>
        <pt x="462" y="1052" on="0"/>
        <pt x="490" y="1023" on="1"/>
        <pt x="642" y="851" on="0"/>
        <pt x="794" y="820" on="1"/>
        <pt x="842" y="811" on="0"/>
        <pt x="804" y="782" on="1"/>
        <pt x="757" y="748" on="0"/>
        <pt x="753" y="698" on="1"/>
        <pt x="753" y="696" on="1"/>
        <pt x="756" y="239" on="1"/>
        <pt x="756" y="193" on="0"/>
        <pt x="823" y="159" on="0"/>
        <pt x="862" y="202" on="1"/>
        <pt x="877" y="219" on="0"/>
        <pt x="904" y="202" on="0"/>
        <pt x="891" y="180" on="1"/>
        <pt x="855" y="126" on="0"/>
        <pt x="788" y="22" on="0"/>
        <pt x="765" y="-34" on="1"/>
        <pt x="764" y="-35" on="1"/>
        <pt x="750" y="-58" on="0"/>
        <pt x="730" y="-35" on="1"/>
        <pt x="719" y="-23" on="0"/>
        <pt x="704" y="-19" on="1"/>
        <pt x="590" y="6" on="0"/>
        <pt x="560" y="132" on="1"/>
        <pt x="558" y="138" on="0"/>
        <pt x="550" y="144" on="1"/>
        <pt x="541" y="145" on="0"/>
      </contour>
      <contour>
        <pt x="545" y="730" on="1"/>
        <pt x="483" y="747" on="0"/>
        <pt x="400" y="826" on="1"/>
        <pt x="360" y="874" on="0"/>
        <pt x="336" y="835" on="1"/>
        <pt x="230" y="677" on="0"/>
        <pt x="253" y="486" on="1"/>
        <pt x="285" y="213" on="0"/>
        <pt x="445" y="149" on="1"/>
        <pt x="446" y="149" on="0"/>
        <pt x="447" y="148" on="1"/>
        <pt x="488" y="135" on="0"/>
        <pt x="546" y="197" on="1"/>
        <pt x="550" y="203" on="0"/>
        <pt x="550" y="208" on="1"/>
        <pt x="549" y="223" on="0"/>
        <pt x="549" y="255" on="1"/>
        <pt x="558" y="714" on="1"/>
        <pt x="558" y="726" on="0"/>
      </contour>
    </TTGlyph>
    <TTGlyph name="aacute" xMin="53" yMin="-42" xMax="891" yMax="1433">
      <component glyphName="a" x="0" y="0" flags="0x1204"/>
      <component glyphName="acute" x="-162" y="0" flags="0x1004"/>
    </TTGlyph>
    <TTGlyph name="acircumflex" xMin="53" yMin="-42" xMax="891" yMax="1446">
      <component glyphName="a" x="0" y="0" flags="0x1204"/>
      <component glyphName="circumflex" x="43" y="0" flags="0x1004"/>
    </TTGlyph>
    <TTGlyph name="acute" xMin="427" yMin="1053" xMax="731" yMax="1433">
      <contour>
        <pt x="464" y="1053" on="1"/>
        <pt x="427" y="1053" on="1"/>
        <pt x="507" y="1291" on="1"/>
        <pt x="539" y="1385" on="0"/>
        <pt x="565" y="1407" on="1"/>
        <pt x="595" y="1433" on="0"/>
        <pt x="636" y="1433" on="1"/>
        <pt x="731" y="1433" on="0"/>
        <pt x="731" y="1361" on="1"/>
        <pt x="731" y="1311" on="0"/>
        <pt x="655" y="1237" on="1"/>
      </contour>
    </TTGlyph>
    <TTGlyph name="acutecomb" xMin="-597" yMin="1053" xMax="-293" yMax="1433">
      <component glyphName="acute" x="-1024" y="0" flags="0x1004"/>
    </TTGlyph>
</ttFont>
